<svg width="1000" height="800" viewBox="0 0 1000 800" fill="none" xmlns="http://www.w3.org/2000/svg">
<g clip-path="url(#clip0_32_486)">
<path d="M143.84 619.18C150.113 619.18 155.911 617.896 161.234 615.33C166.557 612.764 170.93 609.247 174.352 604.779C177.773 600.217 179.722 595.036 180.197 589.238H205.291C204.816 598.363 201.727 606.87 196.023 614.76C190.415 622.554 183.049 628.875 173.924 633.723C164.799 638.475 154.771 640.852 143.84 640.852C132.243 640.852 122.12 638.808 113.471 634.721C104.916 630.633 97.7871 625.025 92.084 617.896C86.4759 610.768 82.2461 602.593 79.3945 593.373C76.638 584.058 75.2598 574.22 75.2598 563.859V557.871C75.2598 547.51 76.638 537.72 79.3945 528.5C82.2461 519.185 86.4759 510.963 92.084 503.834C97.7871 496.705 104.916 491.097 113.471 487.01C122.12 482.923 132.243 480.879 143.84 480.879C155.911 480.879 166.462 483.35 175.492 488.293C184.522 493.141 191.604 499.794 196.736 508.254C201.964 516.618 204.816 526.124 205.291 536.77H180.197C179.722 530.401 177.916 524.65 174.779 519.518C171.738 514.385 167.555 510.298 162.232 507.256C157.005 504.119 150.874 502.551 143.84 502.551C135.76 502.551 128.964 504.167 123.451 507.398C118.033 510.535 113.708 514.812 110.477 520.23C107.34 525.553 105.059 531.494 103.633 538.053C102.302 544.516 101.637 551.122 101.637 557.871V563.859C101.637 570.608 102.302 577.262 103.633 583.82C104.964 590.379 107.197 596.32 110.334 601.643C113.566 606.965 117.891 611.243 123.309 614.475C128.822 617.611 135.665 619.18 143.84 619.18ZM263.605 419V638H237.086V419H263.605ZM298.965 562.576V559.297C298.965 548.176 300.581 537.863 303.812 528.357C307.044 518.757 311.702 510.44 317.785 503.406C323.868 496.277 331.235 490.764 339.885 486.867C348.535 482.875 358.23 480.879 368.971 480.879C379.807 480.879 389.549 482.875 398.199 486.867C406.944 490.764 414.358 496.277 420.441 503.406C426.62 510.44 431.325 518.757 434.557 528.357C437.788 537.863 439.404 548.176 439.404 559.297V562.576C439.404 573.697 437.788 584.01 434.557 593.516C431.325 603.021 426.62 611.338 420.441 618.467C414.358 625.501 406.992 631.014 398.342 635.006C389.787 638.903 380.092 640.852 369.256 640.852C358.42 640.852 348.677 638.903 340.027 635.006C331.378 631.014 323.964 625.501 317.785 618.467C311.702 611.338 307.044 603.021 303.812 593.516C300.581 584.01 298.965 573.697 298.965 562.576ZM325.342 559.297V562.576C325.342 570.275 326.245 577.547 328.051 584.391C329.857 591.139 332.566 597.128 336.178 602.355C339.885 607.583 344.495 611.718 350.008 614.76C355.521 617.706 361.937 619.18 369.256 619.18C376.48 619.18 382.801 617.706 388.219 614.76C393.732 611.718 398.294 607.583 401.906 602.355C405.518 597.128 408.227 591.139 410.033 584.391C411.934 577.547 412.885 570.275 412.885 562.576V559.297C412.885 551.693 411.934 544.516 410.033 537.768C408.227 530.924 405.471 524.888 401.764 519.66C398.152 514.337 393.589 510.155 388.076 507.113C382.658 504.072 376.29 502.551 368.971 502.551C361.747 502.551 355.378 504.072 349.865 507.113C344.447 510.155 339.885 514.337 336.178 519.66C332.566 524.888 329.857 530.924 328.051 537.768C326.245 544.516 325.342 551.693 325.342 559.297ZM566.869 602.355V483.73H593.389V638H568.152L566.869 602.355ZM571.859 569.848L582.838 569.562C582.838 579.828 581.745 589.333 579.559 598.078C577.467 606.728 574.046 614.237 569.293 620.605C564.54 626.974 558.314 631.964 550.615 635.576C542.916 639.093 533.553 640.852 522.527 640.852C515.018 640.852 508.127 639.758 501.854 637.572C495.675 635.386 490.352 632.012 485.885 627.449C481.417 622.887 477.948 616.946 475.477 609.627C473.1 602.308 471.912 593.516 471.912 583.25V483.73H498.289V583.535C498.289 590.474 499.049 596.225 500.57 600.787C502.186 605.255 504.325 608.819 506.986 611.48C509.743 614.047 512.785 615.853 516.111 616.898C519.533 617.944 523.05 618.467 526.662 618.467C537.878 618.467 546.766 616.328 553.324 612.051C559.883 607.678 564.588 601.833 567.439 594.514C570.386 587.1 571.859 578.878 571.859 569.848ZM730.834 608.059V419H757.354V638H733.115L730.834 608.059ZM627.037 562.576V559.582C627.037 547.796 628.463 537.102 631.314 527.502C634.261 517.807 638.396 509.49 643.719 502.551C649.137 495.612 655.553 490.289 662.967 486.582C670.476 482.78 678.84 480.879 688.061 480.879C697.756 480.879 706.215 482.59 713.439 486.012C720.758 489.339 726.937 494.234 731.975 500.697C737.107 507.066 741.147 514.765 744.094 523.795C747.04 532.825 749.084 543.043 750.225 554.449V567.566C749.179 578.878 747.135 589.048 744.094 598.078C741.147 607.108 737.107 614.807 731.975 621.176C726.937 627.544 720.758 632.439 713.439 635.861C706.12 639.188 697.566 640.852 687.775 640.852C678.745 640.852 670.476 638.903 662.967 635.006C655.553 631.109 649.137 625.643 643.719 618.609C638.396 611.576 634.261 603.306 631.314 593.801C628.463 584.201 627.037 573.792 627.037 562.576ZM653.557 559.582V562.576C653.557 570.275 654.317 577.499 655.838 584.248C657.454 590.997 659.925 596.938 663.252 602.07C666.579 607.203 670.809 611.243 675.941 614.189C681.074 617.041 687.205 618.467 694.334 618.467C703.079 618.467 710.255 616.613 715.863 612.906C721.566 609.199 726.129 604.304 729.551 598.221C732.973 592.137 735.634 585.531 737.535 578.402V544.041C736.395 538.813 734.731 533.775 732.545 528.928C730.454 523.985 727.697 519.613 724.275 515.811C720.949 511.913 716.814 508.824 711.871 506.543C707.023 504.262 701.273 503.121 694.619 503.121C687.395 503.121 681.169 504.642 675.941 507.684C670.809 510.63 666.579 514.717 663.252 519.945C659.925 525.078 657.454 531.066 655.838 537.91C654.317 544.659 653.557 551.883 653.557 559.582ZM841.76 622.031L884.676 483.73H912.906L851.027 661.811C849.602 665.613 847.701 669.7 845.324 674.072C843.043 678.54 840.096 682.77 836.484 686.762C832.872 690.754 828.5 693.986 823.367 696.457C818.329 699.023 812.294 700.307 805.26 700.307C803.169 700.307 800.507 700.021 797.275 699.451C794.044 698.881 791.762 698.406 790.432 698.025L790.289 676.639C791.049 676.734 792.238 676.829 793.854 676.924C795.564 677.114 796.753 677.209 797.418 677.209C803.406 677.209 808.492 676.401 812.674 674.785C816.856 673.264 820.373 670.65 823.225 666.943C826.171 663.331 828.69 658.341 830.781 651.973L841.76 622.031ZM810.25 483.73L850.314 603.496L857.158 631.299L838.195 640.994L781.449 483.73H810.25Z" fill="#C3B3D3"/>
<path d="M265.328 182.609C265.328 179.693 264.672 176.995 263.359 174.516C262.12 171.964 259.531 169.667 255.594 167.625C251.729 165.51 245.896 163.688 238.094 162.156C231.531 160.771 225.589 159.13 220.266 157.234C215.016 155.339 210.531 153.042 206.812 150.344C203.167 147.646 200.359 144.474 198.391 140.828C196.422 137.182 195.438 132.917 195.438 128.031C195.438 123.365 196.458 118.953 198.5 114.797C200.615 110.641 203.568 106.958 207.359 103.75C211.224 100.542 215.854 98.026 221.25 96.2031C226.646 94.3802 232.661 93.4688 239.297 93.4688C248.776 93.4688 256.87 95.1458 263.578 98.5C270.286 101.854 275.427 106.339 279 111.953C282.573 117.495 284.359 123.656 284.359 130.438H264.125C264.125 127.156 263.141 123.984 261.172 120.922C259.276 117.786 256.469 115.198 252.75 113.156C249.104 111.115 244.62 110.094 239.297 110.094C233.682 110.094 229.125 110.969 225.625 112.719C222.198 114.396 219.682 116.547 218.078 119.172C216.547 121.797 215.781 124.568 215.781 127.484C215.781 129.672 216.146 131.641 216.875 133.391C217.677 135.068 219.062 136.635 221.031 138.094C223 139.479 225.771 140.792 229.344 142.031C232.917 143.271 237.474 144.51 243.016 145.75C252.714 147.938 260.698 150.562 266.969 153.625C273.24 156.688 277.906 160.443 280.969 164.891C284.031 169.339 285.562 174.734 285.562 181.078C285.562 186.255 284.469 190.995 282.281 195.297C280.167 199.599 277.068 203.318 272.984 206.453C268.974 209.516 264.161 211.922 258.547 213.672C253.005 215.349 246.771 216.188 239.844 216.188C229.417 216.188 220.594 214.328 213.375 210.609C206.156 206.891 200.688 202.078 196.969 196.172C193.25 190.266 191.391 184.031 191.391 177.469H211.734C212.026 183.01 213.63 187.422 216.547 190.703C219.464 193.911 223.036 196.208 227.266 197.594C231.495 198.906 235.688 199.562 239.844 199.562C245.385 199.562 250.016 198.833 253.734 197.375C257.526 195.917 260.406 193.911 262.375 191.359C264.344 188.807 265.328 185.891 265.328 182.609ZM384.547 186.656V95.6562H404.891V214H385.531L384.547 186.656ZM388.375 161.719L396.797 161.5C396.797 169.375 395.958 176.667 394.281 183.375C392.677 190.01 390.052 195.771 386.406 200.656C382.76 205.542 377.984 209.37 372.078 212.141C366.172 214.839 358.99 216.188 350.531 216.188C344.771 216.188 339.484 215.349 334.672 213.672C329.932 211.995 325.849 209.406 322.422 205.906C318.995 202.406 316.333 197.849 314.438 192.234C312.615 186.62 311.703 179.875 311.703 172V95.6562H331.938V172.219C331.938 177.542 332.521 181.953 333.688 185.453C334.927 188.88 336.568 191.615 338.609 193.656C340.724 195.625 343.057 197.01 345.609 197.812C348.234 198.615 350.932 199.016 353.703 199.016C362.307 199.016 369.125 197.375 374.156 194.094C379.188 190.74 382.797 186.255 384.984 180.641C387.245 174.953 388.375 168.646 388.375 161.719ZM455.969 120.922V214H435.734V95.6562H454.875L455.969 120.922ZM451.156 150.344L442.734 150.016C442.807 141.922 444.01 134.448 446.344 127.594C448.677 120.667 451.958 114.651 456.188 109.547C460.417 104.443 465.448 100.505 471.281 97.7344C477.188 94.8906 483.714 93.4688 490.859 93.4688C496.693 93.4688 501.943 94.2708 506.609 95.875C511.276 97.4062 515.25 99.8854 518.531 103.312C521.885 106.74 524.438 111.188 526.188 116.656C527.938 122.052 528.812 128.651 528.812 136.453V214H508.469V136.234C508.469 130.036 507.557 125.078 505.734 121.359C503.911 117.568 501.25 114.833 497.75 113.156C494.25 111.406 489.948 110.531 484.844 110.531C479.812 110.531 475.219 111.589 471.062 113.703C466.979 115.818 463.443 118.734 460.453 122.453C457.536 126.172 455.24 130.438 453.562 135.25C451.958 139.99 451.156 145.021 451.156 150.344ZM579.781 120.922V214H559.547V95.6562H578.688L579.781 120.922ZM574.969 150.344L566.547 150.016C566.62 141.922 567.823 134.448 570.156 127.594C572.49 120.667 575.771 114.651 580 109.547C584.229 104.443 589.26 100.505 595.094 97.7344C601 94.8906 607.526 93.4688 614.672 93.4688C620.505 93.4688 625.755 94.2708 630.422 95.875C635.089 97.4062 639.062 99.8854 642.344 103.312C645.698 106.74 648.25 111.188 650 116.656C651.75 122.052 652.625 128.651 652.625 136.453V214H632.281V136.234C632.281 130.036 631.37 125.078 629.547 121.359C627.724 117.568 625.062 114.833 621.562 113.156C618.062 111.406 613.76 110.531 608.656 110.531C603.625 110.531 599.031 111.589 594.875 113.703C590.792 115.818 587.255 118.734 584.266 122.453C581.349 126.172 579.052 130.438 577.375 135.25C575.771 139.99 574.969 145.021 574.969 150.344ZM716.609 201.75L749.531 95.6562H771.188L723.719 232.266C722.625 235.182 721.167 238.318 719.344 241.672C717.594 245.099 715.333 248.344 712.562 251.406C709.792 254.469 706.438 256.948 702.5 258.844C698.635 260.812 694.005 261.797 688.609 261.797C687.005 261.797 684.964 261.578 682.484 261.141C680.005 260.703 678.255 260.339 677.234 260.047L677.125 243.641C677.708 243.714 678.62 243.786 679.859 243.859C681.172 244.005 682.083 244.078 682.594 244.078C687.188 244.078 691.089 243.458 694.297 242.219C697.505 241.052 700.203 239.047 702.391 236.203C704.651 233.432 706.583 229.604 708.188 224.719L716.609 201.75ZM692.438 95.6562L723.172 187.531L728.422 208.859L713.875 216.297L670.344 95.6562H692.438Z" fill="#FDF464"/>
<path d="M58.583 319.731V424.922H43.416V302.771H57.2783L58.583 319.731ZM118.028 346.151V347.864C118.028 354.278 117.267 360.231 115.745 365.722C114.222 371.158 111.994 375.887 109.058 379.91C106.177 383.933 102.616 387.059 98.376 389.288C94.1357 391.516 89.2703 392.631 83.7798 392.631C78.1805 392.631 73.2336 391.707 68.939 389.858C64.6444 388.01 61.0021 385.319 58.0122 381.786C55.0223 378.252 52.6304 374.012 50.8364 369.065C49.0968 364.118 47.9009 358.546 47.2485 352.349V343.216C47.9009 336.692 49.124 330.848 50.918 325.684C52.7119 320.52 55.0767 316.116 58.0122 312.474C61.0021 308.778 64.6172 305.978 68.8574 304.075C73.0977 302.118 77.9902 301.14 83.5352 301.14C89.0801 301.14 93.9998 302.227 98.2944 304.401C102.589 306.521 106.204 309.566 109.14 313.534C112.075 317.503 114.277 322.259 115.745 327.804C117.267 333.295 118.028 339.41 118.028 346.151ZM102.861 347.864V346.151C102.861 341.748 102.399 337.617 101.475 333.757C100.55 329.843 99.1099 326.418 97.1528 323.482C95.2502 320.493 92.8039 318.155 89.814 316.47C86.8241 314.73 83.2633 313.86 79.1318 313.86C75.3265 313.86 72.0104 314.513 69.1836 315.817C66.4111 317.122 64.0464 318.889 62.0894 321.118C60.1323 323.292 58.5286 325.793 57.2783 328.62C56.0824 331.392 55.1854 334.273 54.5874 337.263V358.383C55.6746 362.188 57.1968 365.776 59.1538 369.146C61.1108 372.463 63.7202 375.153 66.9819 377.219C70.2437 379.231 74.348 380.236 79.2949 380.236C83.3721 380.236 86.8784 379.394 89.814 377.708C92.8039 375.969 95.2502 373.604 97.1528 370.614C99.1099 367.624 100.55 364.2 101.475 360.34C102.399 356.426 102.861 352.267 102.861 347.864ZM189.296 375.915V330.495C189.296 327.016 188.59 323.999 187.176 321.444C185.817 318.834 183.751 316.823 180.979 315.41C178.207 313.996 174.782 313.29 170.705 313.29C166.899 313.29 163.556 313.942 160.675 315.247C157.848 316.551 155.619 318.264 153.988 320.384C152.412 322.504 151.624 324.787 151.624 327.233H136.538C136.538 324.08 137.354 320.955 138.984 317.856C140.615 314.757 142.953 311.958 145.997 309.457C149.096 306.902 152.792 304.891 157.087 303.423C161.436 301.901 166.274 301.14 171.602 301.14C178.016 301.14 183.67 302.227 188.562 304.401C193.509 306.576 197.369 309.865 200.142 314.268C202.968 318.617 204.382 324.08 204.382 330.658V371.756C204.382 374.691 204.626 377.817 205.116 381.133C205.659 384.449 206.448 387.303 207.48 389.695V391H191.743C190.982 389.26 190.384 386.95 189.949 384.069C189.514 381.133 189.296 378.415 189.296 375.915ZM191.906 337.508L192.069 348.108H176.82C172.526 348.108 168.693 348.462 165.323 349.168C161.952 349.821 159.125 350.826 156.842 352.186C154.559 353.545 152.819 355.257 151.624 357.323C150.428 359.334 149.83 361.699 149.83 364.417C149.83 367.189 150.455 369.717 151.705 372C152.955 374.284 154.831 376.105 157.332 377.464C159.887 378.769 163.012 379.421 166.709 379.421C171.33 379.421 175.407 378.442 178.94 376.485C182.474 374.528 185.274 372.136 187.339 369.31C189.459 366.483 190.601 363.737 190.764 361.074L197.206 368.331C196.826 370.614 195.793 373.142 194.107 375.915C192.422 378.687 190.166 381.351 187.339 383.906C184.567 386.406 181.251 388.499 177.391 390.185C173.586 391.815 169.291 392.631 164.507 392.631C158.528 392.631 153.282 391.462 148.77 389.125C144.312 386.787 140.833 383.661 138.332 379.747C135.886 375.779 134.663 371.348 134.663 366.456C134.663 361.726 135.587 357.567 137.435 353.979C139.283 350.337 141.947 347.32 145.426 344.928C148.905 342.482 153.091 340.634 157.984 339.383C162.876 338.133 168.34 337.508 174.374 337.508H191.906ZM243.196 316.633V391H228.111V302.771H242.789L243.196 316.633ZM270.758 302.281L270.676 316.307C269.426 316.035 268.23 315.872 267.088 315.817C266.001 315.709 264.751 315.654 263.337 315.654C259.858 315.654 256.787 316.198 254.123 317.285C251.459 318.372 249.203 319.895 247.355 321.852C245.507 323.809 244.039 326.146 242.952 328.864C241.919 331.528 241.239 334.464 240.913 337.671L236.673 340.117C236.673 334.79 237.189 329.788 238.222 325.113C239.309 320.438 240.967 316.307 243.196 312.719C245.425 309.076 248.252 306.25 251.677 304.238C255.156 302.173 259.287 301.14 264.071 301.14C265.159 301.14 266.409 301.276 267.822 301.547C269.236 301.765 270.214 302.009 270.758 302.281ZM325.718 302.771V314.35H278.015V302.771H325.718ZM294.161 281.325H309.246V369.146C309.246 372.136 309.708 374.392 310.632 375.915C311.556 377.437 312.752 378.442 314.22 378.932C315.688 379.421 317.264 379.666 318.95 379.666C320.2 379.666 321.505 379.557 322.864 379.339C324.277 379.068 325.337 378.85 326.044 378.687L326.125 391C324.93 391.381 323.353 391.734 321.396 392.06C319.493 392.441 317.183 392.631 314.465 392.631C310.768 392.631 307.371 391.897 304.272 390.429C301.173 388.961 298.7 386.515 296.852 383.09C295.058 379.611 294.161 374.936 294.161 369.065V281.325ZM359.803 265.75V391H344.636V265.75H359.803ZM408.81 381.867L433.354 302.771H449.5L414.11 404.618C413.295 406.792 412.208 409.13 410.849 411.63C409.544 414.185 407.859 416.604 405.793 418.888C403.727 421.171 401.227 423.019 398.291 424.433C395.41 425.9 391.958 426.634 387.935 426.634C386.739 426.634 385.217 426.471 383.369 426.145C381.52 425.819 380.216 425.547 379.455 425.33L379.373 413.098C379.808 413.153 380.487 413.207 381.412 413.261C382.39 413.37 383.07 413.424 383.45 413.424C386.875 413.424 389.783 412.962 392.175 412.038C394.567 411.168 396.579 409.673 398.209 407.553C399.895 405.487 401.335 402.633 402.531 398.991L408.81 381.867ZM390.789 302.771L413.703 371.267L417.617 387.167L406.771 392.712L374.317 302.771H390.789ZM539.85 380.236C543.438 380.236 546.754 379.502 549.798 378.035C552.842 376.567 555.343 374.556 557.3 372C559.257 369.391 560.371 366.428 560.643 363.112H574.995C574.723 368.331 572.956 373.196 569.694 377.708C566.487 382.166 562.274 385.781 557.055 388.554C551.836 391.272 546.101 392.631 539.85 392.631C533.217 392.631 527.428 391.462 522.481 389.125C517.588 386.787 513.511 383.58 510.25 379.502C507.042 375.425 504.623 370.75 502.992 365.477C501.416 360.15 500.627 354.523 500.627 348.598V345.173C500.627 339.247 501.416 333.648 502.992 328.375C504.623 323.048 507.042 318.345 510.25 314.268C513.511 310.191 517.588 306.984 522.481 304.646C527.428 302.308 533.217 301.14 539.85 301.14C546.754 301.14 552.788 302.553 557.952 305.38C563.117 308.152 567.167 311.958 570.102 316.796C573.092 321.58 574.723 327.016 574.995 333.104H560.643C560.371 329.462 559.338 326.173 557.544 323.238C555.805 320.302 553.413 317.965 550.369 316.225C547.379 314.431 543.872 313.534 539.85 313.534C535.229 313.534 531.342 314.458 528.189 316.307C525.09 318.101 522.617 320.547 520.769 323.646C518.975 326.69 517.67 330.087 516.854 333.838C516.093 337.535 515.713 341.313 515.713 345.173V348.598C515.713 352.457 516.093 356.263 516.854 360.014C517.616 363.765 518.893 367.162 520.687 370.207C522.535 373.251 525.009 375.697 528.107 377.545C531.26 379.339 535.174 380.236 539.85 380.236ZM608.346 265.75V391H593.179V265.75H608.346ZM628.568 347.864V345.988C628.568 339.628 629.493 333.73 631.341 328.293C633.189 322.803 635.853 318.046 639.332 314.023C642.811 309.946 647.024 306.793 651.971 304.564C656.918 302.281 662.463 301.14 668.606 301.14C674.803 301.14 680.375 302.281 685.322 304.564C690.324 306.793 694.564 309.946 698.043 314.023C701.576 318.046 704.267 322.803 706.116 328.293C707.964 333.73 708.888 339.628 708.888 345.988V347.864C708.888 354.224 707.964 360.122 706.116 365.559C704.267 370.995 701.576 375.751 698.043 379.829C694.564 383.851 690.351 387.004 685.404 389.288C680.511 391.516 674.966 392.631 668.769 392.631C662.572 392.631 657 391.516 652.053 389.288C647.106 387.004 642.866 383.851 639.332 379.829C635.853 375.751 633.189 370.995 631.341 365.559C629.493 360.122 628.568 354.224 628.568 347.864ZM643.654 345.988V347.864C643.654 352.267 644.17 356.426 645.203 360.34C646.236 364.2 647.785 367.624 649.851 370.614C651.971 373.604 654.608 375.969 657.761 377.708C660.914 379.394 664.583 380.236 668.769 380.236C672.901 380.236 676.516 379.394 679.614 377.708C682.767 375.969 685.377 373.604 687.442 370.614C689.508 367.624 691.057 364.2 692.09 360.34C693.178 356.426 693.721 352.267 693.721 347.864V345.988C693.721 341.639 693.178 337.535 692.09 333.675C691.057 329.761 689.481 326.309 687.361 323.319C685.295 320.275 682.686 317.883 679.533 316.144C676.434 314.404 672.792 313.534 668.606 313.534C664.474 313.534 660.832 314.404 657.679 316.144C654.581 317.883 651.971 320.275 649.851 323.319C647.785 326.309 646.236 329.761 645.203 333.675C644.17 337.535 643.654 341.639 643.654 345.988ZM781.788 370.614V302.771H796.955V391H782.521L781.788 370.614ZM784.642 352.022L790.92 351.859C790.92 357.73 790.295 363.167 789.045 368.168C787.849 373.115 785.892 377.41 783.174 381.052C780.456 384.694 776.895 387.548 772.492 389.614C768.088 391.625 762.734 392.631 756.428 392.631C752.133 392.631 748.192 392.006 744.604 390.755C741.07 389.505 738.026 387.575 735.471 384.966C732.916 382.356 730.932 378.959 729.519 374.773C728.16 370.587 727.48 365.559 727.48 359.688V302.771H742.565V359.851C742.565 363.819 743 367.108 743.87 369.717C744.794 372.272 746.017 374.311 747.54 375.833C749.116 377.301 750.856 378.334 752.758 378.932C754.715 379.53 756.727 379.829 758.792 379.829C765.207 379.829 770.29 378.605 774.041 376.159C777.792 373.659 780.483 370.315 782.114 366.129C783.799 361.889 784.642 357.187 784.642 352.022ZM875.562 373.876V265.75H890.729V391H876.867L875.562 373.876ZM816.199 347.864V346.151C816.199 339.41 817.014 333.295 818.645 327.804C820.33 322.259 822.695 317.503 825.739 313.534C828.838 309.566 832.507 306.521 836.748 304.401C841.042 302.227 845.826 301.14 851.099 301.14C856.644 301.14 861.482 302.118 865.614 304.075C869.8 305.978 873.333 308.778 876.214 312.474C879.15 316.116 881.46 320.52 883.146 325.684C884.831 330.848 886 336.692 886.652 343.216V350.718C886.054 357.187 884.885 363.004 883.146 368.168C881.46 373.332 879.15 377.736 876.214 381.378C873.333 385.02 869.8 387.82 865.614 389.777C861.428 391.68 856.535 392.631 850.936 392.631C845.772 392.631 841.042 391.516 836.748 389.288C832.507 387.059 828.838 383.933 825.739 379.91C822.695 375.887 820.33 371.158 818.645 365.722C817.014 360.231 816.199 354.278 816.199 347.864ZM831.366 346.151V347.864C831.366 352.267 831.801 356.399 832.67 360.258C833.595 364.118 835.008 367.516 836.911 370.451C838.813 373.387 841.232 375.697 844.168 377.382C847.104 379.013 850.61 379.829 854.687 379.829C859.688 379.829 863.793 378.769 867 376.648C870.262 374.528 872.871 371.729 874.828 368.25C876.785 364.77 878.307 360.992 879.395 356.915V337.263C878.742 334.273 877.791 331.392 876.541 328.62C875.345 325.793 873.768 323.292 871.811 321.118C869.908 318.889 867.544 317.122 864.717 315.817C861.944 314.513 858.655 313.86 854.85 313.86C850.719 313.86 847.158 314.73 844.168 316.47C841.232 318.155 838.813 320.493 836.911 323.482C835.008 326.418 833.595 329.843 832.67 333.757C831.801 337.617 831.366 341.748 831.366 346.151ZM939.002 381.867L963.547 302.771H979.692L944.303 404.618C943.487 406.792 942.4 409.13 941.041 411.63C939.736 414.185 938.051 416.604 935.985 418.888C933.92 421.171 931.419 423.019 928.483 424.433C925.602 425.9 922.15 426.634 918.127 426.634C916.931 426.634 915.409 426.471 913.561 426.145C911.713 425.819 910.408 425.547 909.647 425.33L909.565 413.098C910 413.153 910.68 413.207 911.604 413.261C912.583 413.37 913.262 413.424 913.643 413.424C917.067 413.424 919.976 412.962 922.368 412.038C924.76 411.168 926.771 409.673 928.402 407.553C930.087 405.487 931.528 402.633 932.724 398.991L939.002 381.867ZM920.981 302.771L943.895 371.267L947.809 387.167L936.964 392.712L904.51 302.771H920.981Z" fill="#C3B3D3"/>
<path d="M23.2646 701.272V758H11.0947V687.205H22.6104L23.2646 701.272ZM20.7783 719.92L15.1514 719.724C15.195 714.882 15.8275 710.411 17.0488 706.311C18.2702 702.167 20.0804 698.568 22.4795 695.515C24.8786 692.461 27.8665 690.106 31.4434 688.448C35.0202 686.747 39.1641 685.896 43.875 685.896C47.1901 685.896 50.2435 686.376 53.0352 687.336C55.8268 688.252 58.2477 689.713 60.2979 691.72C62.348 693.726 63.9401 696.3 65.0742 699.44C66.2083 702.581 66.7754 706.376 66.7754 710.825V758H54.6709V711.414C54.6709 707.706 54.0384 704.74 52.7734 702.516C51.5521 700.291 49.8073 698.677 47.5391 697.674C45.2708 696.627 42.61 696.104 39.5566 696.104C35.9798 696.104 32.9919 696.736 30.5928 698.001C28.1937 699.266 26.2744 701.011 24.835 703.235C23.3955 705.46 22.3486 708.012 21.6943 710.891C21.0837 713.726 20.7783 716.736 20.7783 719.92ZM66.6445 713.246L58.5312 715.732C58.5749 711.85 59.2074 708.121 60.4287 704.544C61.6937 700.967 63.5039 697.783 65.8594 694.991C68.2585 692.2 71.2028 689.997 74.6924 688.383C78.182 686.725 82.1732 685.896 86.666 685.896C90.4609 685.896 93.8197 686.398 96.7422 687.401C99.7083 688.405 102.195 689.953 104.201 692.047C106.251 694.097 107.8 696.736 108.847 699.964C109.894 703.192 110.417 707.03 110.417 711.479V758H98.2471V711.349C98.2471 707.379 97.6146 704.304 96.3496 702.123C95.1283 699.898 93.3835 698.35 91.1152 697.478C88.8906 696.562 86.2298 696.104 83.1328 696.104C80.472 696.104 78.1165 696.562 76.0664 697.478C74.0163 698.394 72.2933 699.659 70.8975 701.272C69.5016 702.843 68.4329 704.653 67.6914 706.703C66.9935 708.753 66.6445 710.934 66.6445 713.246ZM170.481 745.896V709.451C170.481 706.66 169.914 704.239 168.78 702.188C167.69 700.095 166.032 698.481 163.808 697.347C161.583 696.213 158.835 695.646 155.563 695.646C152.51 695.646 149.827 696.169 147.516 697.216C145.247 698.263 143.459 699.637 142.15 701.338C140.885 703.039 140.253 704.871 140.253 706.834H128.148C128.148 704.304 128.803 701.796 130.111 699.31C131.42 696.823 133.296 694.577 135.738 692.57C138.225 690.52 141.191 688.906 144.637 687.729C148.126 686.507 152.008 685.896 156.283 685.896C161.43 685.896 165.967 686.769 169.893 688.514C173.862 690.258 176.959 692.897 179.184 696.431C181.452 699.92 182.586 704.304 182.586 709.582V742.559C182.586 744.914 182.782 747.422 183.175 750.083C183.611 752.744 184.243 755.034 185.072 756.953V758H172.444C171.834 756.604 171.354 754.75 171.005 752.438C170.656 750.083 170.481 747.902 170.481 745.896ZM172.575 715.078L172.706 723.584H160.471C157.025 723.584 153.95 723.868 151.245 724.435C148.541 724.958 146.272 725.765 144.44 726.855C142.608 727.946 141.213 729.32 140.253 730.978C139.293 732.591 138.813 734.489 138.813 736.67C138.813 738.895 139.315 740.923 140.318 742.755C141.322 744.587 142.826 746.048 144.833 747.139C146.883 748.186 149.391 748.709 152.357 748.709C156.065 748.709 159.337 747.924 162.172 746.354C165.007 744.783 167.254 742.864 168.911 740.596C170.612 738.327 171.528 736.125 171.659 733.987L176.828 739.811C176.523 741.643 175.694 743.671 174.342 745.896C172.99 748.12 171.179 750.257 168.911 752.308C166.687 754.314 164.026 755.993 160.929 757.346C157.875 758.654 154.429 759.309 150.591 759.309C145.793 759.309 141.583 758.371 137.963 756.495C134.386 754.619 131.594 752.111 129.588 748.971C127.625 745.786 126.644 742.231 126.644 738.306C126.644 734.511 127.385 731.174 128.868 728.295C130.351 725.372 132.489 722.951 135.28 721.032C138.072 719.069 141.431 717.586 145.356 716.583C149.282 715.58 153.666 715.078 158.508 715.078H172.575ZM214.777 687.205V758H202.607V687.205H214.777ZM201.691 668.427C201.691 666.464 202.28 664.806 203.458 663.454C204.679 662.102 206.468 661.426 208.823 661.426C211.135 661.426 212.902 662.102 214.123 663.454C215.388 664.806 216.021 666.464 216.021 668.427C216.021 670.302 215.388 671.916 214.123 673.269C212.902 674.577 211.135 675.231 208.823 675.231C206.468 675.231 204.679 674.577 203.458 673.269C202.28 671.916 201.691 670.302 201.691 668.427ZM246.314 702.319V758H234.21V687.205H245.66L246.314 702.319ZM243.436 719.92L238.397 719.724C238.441 714.882 239.161 710.411 240.557 706.311C241.952 702.167 243.915 698.568 246.445 695.515C248.975 692.461 251.985 690.106 255.475 688.448C259.008 686.747 262.912 685.896 267.187 685.896C270.676 685.896 273.817 686.376 276.608 687.336C279.4 688.252 281.777 689.735 283.74 691.785C285.747 693.835 287.273 696.496 288.32 699.768C289.367 702.995 289.891 706.943 289.891 711.61V758H277.721V711.479C277.721 707.772 277.175 704.806 276.085 702.581C274.994 700.313 273.402 698.677 271.309 697.674C269.215 696.627 266.641 696.104 263.588 696.104C260.578 696.104 257.83 696.736 255.344 698.001C252.901 699.266 250.785 701.011 248.997 703.235C247.252 705.46 245.878 708.012 244.875 710.891C243.915 713.726 243.436 716.736 243.436 719.92ZM321.428 657.5V758H309.258V657.5H321.428ZM360.751 750.672L380.445 687.205H393.4L365.004 768.927C364.35 770.672 363.477 772.547 362.387 774.554C361.34 776.604 359.988 778.545 358.33 780.377C356.673 782.209 354.666 783.692 352.311 784.826C349.999 786.004 347.229 786.593 344.001 786.593C343.041 786.593 341.82 786.462 340.337 786.2C338.854 785.938 337.807 785.72 337.196 785.546L337.131 775.731C337.48 775.775 338.025 775.819 338.767 775.862C339.552 775.95 340.097 775.993 340.402 775.993C343.15 775.993 345.484 775.622 347.403 774.881C349.323 774.183 350.937 772.983 352.245 771.282C353.597 769.625 354.753 767.335 355.713 764.412L360.751 750.672ZM346.291 687.205L364.677 742.166L367.817 754.925L359.115 759.374L333.074 687.205H346.291ZM478.786 739.222C478.786 737.477 478.394 735.863 477.608 734.38C476.867 732.853 475.318 731.479 472.963 730.258C470.651 728.993 467.161 727.902 462.494 726.986C458.568 726.158 455.013 725.176 451.829 724.042C448.688 722.908 446.006 721.534 443.781 719.92C441.6 718.306 439.921 716.409 438.743 714.228C437.565 712.047 436.977 709.495 436.977 706.572C436.977 703.781 437.587 701.142 438.809 698.655C440.074 696.169 441.84 693.966 444.108 692.047C446.42 690.128 449.19 688.623 452.418 687.532C455.646 686.442 459.244 685.896 463.214 685.896C468.884 685.896 473.726 686.9 477.739 688.906C481.752 690.913 484.827 693.595 486.965 696.954C489.102 700.269 490.171 703.955 490.171 708.012H478.066C478.066 706.049 477.478 704.151 476.3 702.319C475.166 700.444 473.486 698.895 471.262 697.674C469.081 696.452 466.398 695.842 463.214 695.842C459.855 695.842 457.129 696.365 455.035 697.412C452.985 698.415 451.48 699.702 450.521 701.272C449.604 702.843 449.146 704.5 449.146 706.245C449.146 707.554 449.365 708.731 449.801 709.778C450.281 710.782 451.109 711.719 452.287 712.592C453.465 713.421 455.122 714.206 457.26 714.947C459.397 715.689 462.123 716.43 465.438 717.172C471.24 718.48 476.016 720.051 479.768 721.883C483.519 723.715 486.311 725.961 488.143 728.622C489.975 731.283 490.891 734.511 490.891 738.306C490.891 741.403 490.236 744.238 488.928 746.812C487.663 749.385 485.809 751.61 483.366 753.485C480.967 755.317 478.088 756.757 474.729 757.804C471.414 758.807 467.685 759.309 463.541 759.309C457.303 759.309 452.025 758.196 447.707 755.972C443.389 753.747 440.117 750.868 437.893 747.335C435.668 743.802 434.556 740.072 434.556 736.146H446.726C446.9 739.462 447.86 742.101 449.604 744.063C451.349 745.983 453.487 747.357 456.017 748.186C458.547 748.971 461.055 749.363 463.541 749.363C466.856 749.363 469.626 748.927 471.851 748.055C474.119 747.182 475.842 745.983 477.02 744.456C478.197 742.929 478.786 741.185 478.786 739.222ZM550.104 741.643V687.205H562.274V758H550.693L550.104 741.643ZM552.395 726.725L557.433 726.594C557.433 731.305 556.931 735.667 555.928 739.68C554.968 743.649 553.398 747.095 551.217 750.018C549.036 752.94 546.179 755.23 542.646 756.888C539.112 758.502 534.816 759.309 529.756 759.309C526.31 759.309 523.147 758.807 520.269 757.804C517.433 756.8 514.991 755.252 512.94 753.158C510.89 751.064 509.298 748.338 508.164 744.979C507.074 741.621 506.528 737.586 506.528 732.875V687.205H518.633V733.006C518.633 736.19 518.982 738.829 519.68 740.923C520.421 742.973 521.403 744.609 522.624 745.83C523.889 747.008 525.285 747.837 526.812 748.316C528.382 748.796 529.996 749.036 531.653 749.036C536.8 749.036 540.879 748.055 543.889 746.092C546.898 744.085 549.058 741.403 550.366 738.044C551.718 734.642 552.395 730.868 552.395 726.725ZM592.83 702.319V758H580.726V687.205H592.176L592.83 702.319ZM589.951 719.92L584.913 719.724C584.957 714.882 585.676 710.411 587.072 706.311C588.468 702.167 590.431 698.568 592.961 695.515C595.491 692.461 598.501 690.106 601.99 688.448C605.523 686.747 609.427 685.896 613.702 685.896C617.192 685.896 620.332 686.376 623.124 687.336C625.916 688.252 628.293 689.735 630.256 691.785C632.262 693.835 633.789 696.496 634.836 699.768C635.883 702.995 636.406 706.943 636.406 711.61V758H624.236V711.479C624.236 707.772 623.691 704.806 622.601 702.581C621.51 700.313 619.918 698.677 617.824 697.674C615.73 696.627 613.157 696.104 610.104 696.104C607.094 696.104 604.346 696.736 601.859 698.001C599.417 699.266 597.301 701.011 595.513 703.235C593.768 705.46 592.394 708.012 591.391 710.891C590.431 713.726 589.951 716.736 589.951 719.92ZM666.896 702.319V758H654.792V687.205H666.242L666.896 702.319ZM664.018 719.92L658.979 719.724C659.023 714.882 659.743 710.411 661.139 706.311C662.535 702.167 664.497 698.568 667.027 695.515C669.557 692.461 672.567 690.106 676.057 688.448C679.59 686.747 683.494 685.896 687.769 685.896C691.258 685.896 694.399 686.376 697.19 687.336C699.982 688.252 702.359 689.735 704.322 691.785C706.329 693.835 707.855 696.496 708.902 699.768C709.949 702.995 710.473 706.943 710.473 711.61V758H698.303V711.479C698.303 707.772 697.757 704.806 696.667 702.581C695.576 700.313 693.984 698.677 691.891 697.674C689.797 696.627 687.223 696.104 684.17 696.104C681.16 696.104 678.412 696.736 675.926 698.001C673.483 699.266 671.368 701.011 669.579 703.235C667.834 705.46 666.46 708.012 665.457 710.891C664.497 713.726 664.018 716.736 664.018 719.92ZM748.749 750.672L768.443 687.205H781.398L753.002 768.927C752.348 770.672 751.475 772.547 750.385 774.554C749.338 776.604 747.986 778.545 746.328 780.377C744.671 782.209 742.664 783.692 740.309 784.826C737.997 786.004 735.227 786.593 731.999 786.593C731.039 786.593 729.818 786.462 728.335 786.2C726.852 785.938 725.805 785.72 725.194 785.546L725.129 775.731C725.478 775.775 726.023 775.819 726.765 775.862C727.55 775.95 728.095 775.993 728.4 775.993C731.148 775.993 733.482 775.622 735.401 774.881C737.321 774.183 738.935 772.983 740.243 771.282C741.595 769.625 742.751 767.335 743.711 764.412L748.749 750.672ZM734.289 687.205L752.675 742.166L755.815 754.925L747.113 759.374L721.072 687.205H734.289Z" fill="#FDF464"/>
<path d="M417.196 8.75V77H408.932V8.75H417.196ZM439.324 28.9229V77H431.06V28.9229H439.324ZM430.438 16.1704C430.438 14.8374 430.837 13.7118 431.637 12.7935C432.467 11.8752 433.681 11.416 435.281 11.416C436.851 11.416 438.05 11.8752 438.88 12.7935C439.739 13.7118 440.168 14.8374 440.168 16.1704C440.168 17.4442 439.739 18.5402 438.88 19.4585C438.05 20.3472 436.851 20.7915 435.281 20.7915C433.681 20.7915 432.467 20.3472 431.637 19.4585C430.837 18.5402 430.438 17.4442 430.438 16.1704ZM483.669 28.9229H491.134V75.978C491.134 80.214 490.275 83.828 488.557 86.8198C486.839 89.8117 484.439 92.0778 481.358 93.6182C478.307 95.1882 474.782 95.9731 470.783 95.9731C469.124 95.9731 467.169 95.7065 464.918 95.1733C462.696 94.6698 460.504 93.7959 458.342 92.5518C456.209 91.3372 454.417 89.6932 452.965 87.6196L457.275 82.7319C459.29 85.161 461.393 86.8494 463.585 87.7974C465.807 88.7453 467.999 89.2192 470.161 89.2192C472.768 89.2192 475.019 88.7305 476.915 87.7529C478.811 86.7754 480.277 85.3239 481.314 83.3984C482.38 81.5026 482.914 79.1624 482.914 76.3779V39.498L483.669 28.9229ZM450.566 53.4946V52.5615C450.566 48.8883 450.995 45.5558 451.854 42.564C452.743 39.5425 454.002 36.9505 455.631 34.7881C457.29 32.6257 459.29 30.9668 461.63 29.8115C463.97 28.6266 466.606 28.0342 469.539 28.0342C472.561 28.0342 475.197 28.5674 477.448 29.6338C479.729 30.6706 481.655 32.1961 483.225 34.2104C484.824 36.1951 486.083 38.5946 487.001 41.4087C487.92 44.2228 488.557 47.4072 488.912 50.9619V55.0498C488.586 58.5749 487.949 61.7445 487.001 64.5586C486.083 67.3727 484.824 69.7721 483.225 71.7568C481.655 73.7415 479.729 75.2671 477.448 76.3335C475.167 77.3703 472.501 77.8887 469.45 77.8887C466.577 77.8887 463.97 77.2814 461.63 76.0669C459.319 74.8524 457.335 73.1491 455.676 70.957C454.017 68.765 452.743 66.1878 451.854 63.2256C450.995 60.2337 450.566 56.9901 450.566 53.4946ZM458.786 52.5615V53.4946C458.786 55.894 459.023 58.1453 459.497 60.2485C460.001 62.3517 460.756 64.2031 461.763 65.8027C462.8 67.4023 464.118 68.6613 465.718 69.5796C467.317 70.4683 469.228 70.9126 471.45 70.9126C474.175 70.9126 476.426 70.335 478.204 69.1797C479.981 68.0244 481.388 66.4989 482.425 64.603C483.491 62.7072 484.321 60.6484 484.913 58.4268V47.7183C484.587 46.089 484.084 44.519 483.402 43.0083C482.751 41.4679 481.892 40.1053 480.825 38.9204C479.788 37.7059 478.5 36.7432 476.959 36.0322C475.419 35.3213 473.612 34.9658 471.539 34.9658C469.287 34.9658 467.347 35.4398 465.718 36.3877C464.118 37.306 462.8 38.5798 461.763 40.209C460.756 41.8086 460.001 43.6748 459.497 45.8076C459.023 47.9108 458.786 50.1621 458.786 52.5615ZM511.84 8.75V77H503.62V8.75H511.84ZM509.885 51.1396L506.463 51.0063C506.493 47.7183 506.982 44.682 507.93 41.8975C508.878 39.0833 510.211 36.6395 511.929 34.5659C513.647 32.4924 515.691 30.8927 518.061 29.7671C520.46 28.6118 523.111 28.0342 526.014 28.0342C528.384 28.0342 530.517 28.36 532.413 29.0117C534.308 29.6338 535.923 30.641 537.256 32.0332C538.618 33.4255 539.655 35.2324 540.366 37.4541C541.077 39.6462 541.433 42.327 541.433 45.4966V77H533.168V45.4077C533.168 42.8898 532.798 40.8755 532.057 39.3647C531.317 37.8244 530.235 36.7135 528.813 36.0322C527.392 35.3213 525.644 34.9658 523.57 34.9658C521.526 34.9658 519.66 35.3953 517.972 36.2544C516.313 37.1134 514.876 38.2983 513.662 39.8091C512.477 41.3198 511.544 43.0527 510.862 45.0078C510.211 46.9333 509.885 48.9772 509.885 51.1396ZM573.869 28.9229V35.2324H547.875V28.9229H573.869ZM556.673 17.2368H564.894V65.0918C564.894 66.721 565.145 67.9504 565.649 68.7798C566.153 69.6092 566.804 70.1572 567.604 70.4238C568.404 70.6904 569.263 70.8237 570.181 70.8237C570.862 70.8237 571.573 70.7645 572.314 70.646C573.084 70.4979 573.662 70.3794 574.047 70.2905L574.091 77C573.44 77.2074 572.581 77.3999 571.514 77.5776C570.477 77.785 569.218 77.8887 567.737 77.8887C565.723 77.8887 563.872 77.4888 562.183 76.689C560.495 75.8892 559.147 74.5562 558.14 72.6899C557.162 70.7941 556.673 68.2466 556.673 65.0474V17.2368ZM614.304 36.4766V77H606.083V28.9229H614.082L614.304 36.4766ZM629.322 28.6562L629.278 36.2988C628.597 36.1507 627.945 36.0618 627.323 36.0322C626.73 35.973 626.049 35.9434 625.279 35.9434C623.383 35.9434 621.709 36.2396 620.258 36.832C618.806 37.4245 617.577 38.2539 616.57 39.3203C615.563 40.3867 614.763 41.6605 614.17 43.1416C613.608 44.5931 613.237 46.1927 613.06 47.9404L610.749 49.2734C610.749 46.3704 611.03 43.6452 611.593 41.0977C612.186 38.5501 613.089 36.2988 614.304 34.3438C615.518 32.359 617.059 30.8187 618.925 29.7227C620.821 28.597 623.072 28.0342 625.679 28.0342C626.271 28.0342 626.952 28.1082 627.723 28.2563C628.493 28.3748 629.026 28.5081 629.322 28.6562ZM663.492 68.7798V44.0303C663.492 42.1344 663.107 40.4904 662.336 39.0981C661.596 37.6763 660.47 36.5802 658.959 35.8101C657.449 35.0399 655.583 34.6548 653.361 34.6548C651.287 34.6548 649.465 35.0103 647.896 35.7212C646.355 36.4321 645.141 37.3652 644.252 38.5205C643.393 39.6758 642.963 40.9199 642.963 42.2529H634.743C634.743 40.5348 635.188 38.8315 636.076 37.1431C636.965 35.4546 638.239 33.929 639.897 32.5664C641.586 31.1742 643.6 30.0781 645.94 29.2783C648.31 28.4489 650.947 28.0342 653.85 28.0342C657.345 28.0342 660.426 28.6266 663.092 29.8115C665.787 30.9964 667.891 32.7886 669.401 35.188C670.942 37.5578 671.712 40.5348 671.712 44.1191V66.5137C671.712 68.1133 671.845 69.8166 672.112 71.6235C672.408 73.4305 672.838 74.9857 673.4 76.2891V77H664.825C664.41 76.0521 664.084 74.7931 663.847 73.2231C663.61 71.6235 663.492 70.1424 663.492 68.7798ZM664.914 47.8516L665.002 53.6279H656.693C654.353 53.6279 652.265 53.8205 650.428 54.2056C648.592 54.561 647.051 55.109 645.807 55.8496C644.563 56.5902 643.615 57.5233 642.963 58.6489C642.312 59.745 641.986 61.0335 641.986 62.5146C641.986 64.0254 642.326 65.4028 643.008 66.647C643.689 67.8911 644.711 68.8835 646.074 69.624C647.466 70.335 649.169 70.6904 651.184 70.6904C653.701 70.6904 655.923 70.1572 657.849 69.0908C659.774 68.0244 661.3 66.721 662.425 65.1807C663.581 63.6403 664.203 62.1444 664.292 60.6929L667.802 64.6475C667.594 65.8916 667.032 67.269 666.113 68.7798C665.195 70.2905 663.966 71.742 662.425 73.1343C660.915 74.4969 659.108 75.6374 657.004 76.5557C654.931 77.4443 652.591 77.8887 649.984 77.8887C646.725 77.8887 643.867 77.2518 641.408 75.978C638.979 74.7043 637.083 73.001 635.721 70.8682C634.388 68.7057 633.721 66.2915 633.721 63.6255C633.721 61.0483 634.225 58.7822 635.232 56.8271C636.239 54.8424 637.691 53.1984 639.586 51.895C641.482 50.562 643.763 49.5549 646.429 48.8735C649.095 48.1922 652.072 47.8516 655.36 47.8516H664.914ZM693.573 28.9229V77H685.309V28.9229H693.573ZM684.687 16.1704C684.687 14.8374 685.086 13.7118 685.886 12.7935C686.716 11.8752 687.93 11.416 689.53 11.416C691.1 11.416 692.299 11.8752 693.129 12.7935C693.988 13.7118 694.417 14.8374 694.417 16.1704C694.417 17.4442 693.988 18.5402 693.129 19.4585C692.299 20.3472 691.1 20.7915 689.53 20.7915C687.93 20.7915 686.716 20.3472 685.886 19.4585C685.086 18.5402 684.687 17.4442 684.687 16.1704ZM714.99 39.187V77H706.77V28.9229H714.546L714.99 39.187ZM713.035 51.1396L709.614 51.0063C709.643 47.7183 710.132 44.682 711.08 41.8975C712.028 39.0833 713.361 36.6395 715.079 34.5659C716.797 32.4924 718.841 30.8927 721.211 29.7671C723.61 28.6118 726.262 28.0342 729.165 28.0342C731.534 28.0342 733.667 28.36 735.563 29.0117C737.459 29.6338 739.073 30.641 740.406 32.0332C741.769 33.4255 742.806 35.2324 743.517 37.4541C744.228 39.6462 744.583 42.327 744.583 45.4966V77H736.318V45.4077C736.318 42.8898 735.948 40.8755 735.208 39.3647C734.467 37.8244 733.386 36.7135 731.964 36.0322C730.542 35.3213 728.794 34.9658 726.721 34.9658C724.677 34.9658 722.811 35.3953 721.122 36.2544C719.463 37.1134 718.027 38.2983 716.812 39.8091C715.627 41.3198 714.694 43.0527 714.013 45.0078C713.361 46.9333 713.035 48.9772 713.035 51.1396Z" fill="#C3B3D3"/>
<path d="M14.1885 21.75V72H8.10352V21.75H14.1885ZM30.4805 36.6025V72H24.3955V36.6025H30.4805ZM23.9375 27.2134C23.9375 26.2319 24.2319 25.4032 24.8208 24.7271C25.4315 24.0509 26.3257 23.7129 27.5034 23.7129C28.6593 23.7129 29.5426 24.0509 30.1533 24.7271C30.7858 25.4032 31.1021 26.2319 31.1021 27.2134C31.1021 28.1512 30.7858 28.9582 30.1533 29.6343C29.5426 30.2886 28.6593 30.6157 27.5034 30.6157C26.3257 30.6157 25.4315 30.2886 24.8208 29.6343C24.2319 28.9582 23.9375 28.1512 23.9375 27.2134ZM63.1299 36.6025H68.626V71.2476C68.626 74.3664 67.9935 77.0272 66.7285 79.23C65.4635 81.4328 63.6969 83.1012 61.4287 84.2354C59.1823 85.3913 56.5869 85.9692 53.6426 85.9692C52.4212 85.9692 50.9818 85.7729 49.3242 85.3804C47.6885 85.0096 46.0745 84.3662 44.4824 83.4502C42.9121 82.556 41.5926 81.3455 40.5239 79.8188L43.6973 76.2202C45.1803 78.0086 46.7288 79.2518 48.3428 79.9497C49.9785 80.6476 51.5924 80.9966 53.1846 80.9966C55.1038 80.9966 56.7614 80.6367 58.1572 79.917C59.5531 79.1973 60.6326 78.1286 61.396 76.7109C62.1812 75.3151 62.5737 73.5921 62.5737 71.542V44.3887L63.1299 36.6025ZM38.7573 54.6938V54.0068C38.7573 51.3024 39.0736 48.8488 39.7061 46.646C40.3604 44.4214 41.2873 42.513 42.4868 40.9209C43.7082 39.3288 45.1803 38.1074 46.9033 37.2568C48.6263 36.3844 50.5674 35.9482 52.7266 35.9482C54.9512 35.9482 56.8923 36.3408 58.5498 37.126C60.2292 37.8893 61.6468 39.0125 62.8027 40.4956C63.9805 41.9569 64.9074 43.7235 65.5835 45.7954C66.2596 47.8674 66.7285 50.2119 66.9902 52.8291V55.8389C66.7503 58.4342 66.2814 60.7679 65.5835 62.8398C64.9074 64.9118 63.9805 66.6784 62.8027 68.1396C61.6468 69.6009 60.2292 70.7241 58.5498 71.5093C56.8704 72.2726 54.9076 72.6543 52.6611 72.6543C50.5456 72.6543 48.6263 72.2072 46.9033 71.313C45.2021 70.4188 43.7409 69.1647 42.5195 67.5508C41.2982 65.9368 40.3604 64.0394 39.7061 61.8584C39.0736 59.6556 38.7573 57.2674 38.7573 54.6938ZM44.8096 54.0068V54.6938C44.8096 56.4604 44.984 58.118 45.333 59.6665C45.7038 61.215 46.2599 62.5781 47.0015 63.7559C47.7648 64.9336 48.7354 65.8605 49.9131 66.5366C51.0908 67.1909 52.4976 67.5181 54.1333 67.5181C56.1398 67.5181 57.7974 67.0928 59.106 66.2422C60.4146 65.3916 61.4505 64.2684 62.2139 62.8726C62.999 61.4767 63.6097 59.9609 64.0459 58.3252V50.4409C63.806 49.2414 63.4352 48.0854 62.9336 46.9731C62.4538 45.839 61.8213 44.8358 61.0361 43.9634C60.2728 43.0692 59.3241 42.3604 58.1899 41.8369C57.0558 41.3135 55.7254 41.0518 54.1987 41.0518C52.5412 41.0518 51.1126 41.4007 49.9131 42.0986C48.7354 42.7747 47.7648 43.7126 47.0015 44.9121C46.2599 46.0898 45.7038 47.4639 45.333 49.0342C44.984 50.5827 44.8096 52.2402 44.8096 54.0068ZM83.8711 21.75V72H77.8188V21.75H83.8711ZM82.4316 52.96L79.9126 52.8618C79.9344 50.4409 80.2943 48.2054 80.9922 46.1553C81.6901 44.0833 82.6715 42.284 83.9365 40.7573C85.2015 39.2306 86.7064 38.0529 88.4512 37.2241C90.2178 36.3735 92.1698 35.9482 94.3071 35.9482C96.0519 35.9482 97.6222 36.1882 99.0181 36.668C100.414 37.126 101.603 37.8675 102.584 38.8926C103.587 39.9176 104.351 41.248 104.874 42.8838C105.397 44.4977 105.659 46.4715 105.659 48.8052V72H99.5742V48.7397C99.5742 46.8859 99.3016 45.4028 98.7563 44.2905C98.2111 43.1564 97.415 42.3385 96.3682 41.8369C95.3213 41.3135 94.0345 41.0518 92.5078 41.0518C91.0029 41.0518 89.6289 41.368 88.3857 42.0005C87.1644 42.633 86.1066 43.5054 85.2124 44.6177C84.34 45.73 83.653 47.0059 83.1514 48.4453C82.6715 49.863 82.4316 51.3678 82.4316 52.96ZM129.541 36.6025V41.248H110.403V36.6025H129.541ZM116.88 27.9985H122.933V63.2324C122.933 64.432 123.118 65.3371 123.489 65.9478C123.86 66.5584 124.339 66.9619 124.928 67.1582C125.517 67.3545 126.15 67.4526 126.826 67.4526C127.327 67.4526 127.851 67.409 128.396 67.3218C128.963 67.2127 129.388 67.1255 129.672 67.0601L129.705 72C129.225 72.1527 128.592 72.2944 127.807 72.4253C127.044 72.578 126.117 72.6543 125.026 72.6543C123.543 72.6543 122.18 72.3599 120.937 71.771C119.694 71.1821 118.701 70.2007 117.96 68.8267C117.24 67.4308 116.88 65.5552 116.88 63.1997V27.9985ZM173.87 62.6108C173.87 61.7384 173.673 60.9315 173.281 60.1899C172.91 59.4266 172.136 58.7396 170.958 58.1289C169.802 57.4964 168.057 56.9512 165.724 56.4932C163.761 56.0788 161.983 55.5881 160.391 55.021C158.821 54.4539 157.479 53.7669 156.367 52.96C155.277 52.153 154.437 51.2043 153.848 50.1138C153.259 49.0233 152.965 47.7474 152.965 46.2861C152.965 44.8903 153.27 43.5708 153.881 42.3276C154.513 41.0845 155.397 39.9831 156.531 39.0234C157.687 38.0638 159.072 37.3114 160.686 36.7661C162.299 36.2209 164.099 35.9482 166.083 35.9482C168.919 35.9482 171.34 36.4499 173.346 37.4531C175.353 38.4564 176.89 39.7977 177.959 41.4771C179.028 43.1346 179.562 44.9775 179.562 47.0059H173.51C173.51 46.0244 173.215 45.0757 172.626 44.1597C172.059 43.2218 171.22 42.4476 170.107 41.8369C169.017 41.2262 167.676 40.9209 166.083 40.9209C164.404 40.9209 163.041 41.1826 161.994 41.7061C160.969 42.2077 160.217 42.8511 159.737 43.6362C159.279 44.4214 159.05 45.2502 159.05 46.1226C159.05 46.7769 159.159 47.3657 159.377 47.8892C159.617 48.3908 160.031 48.8597 160.62 49.2959C161.209 49.7103 162.038 50.1029 163.106 50.4736C164.175 50.8444 165.538 51.2152 167.196 51.5859C170.097 52.2402 172.485 53.0254 174.36 53.9414C176.236 54.8574 177.632 55.9806 178.548 57.311C179.464 58.6414 179.922 60.2554 179.922 62.1528C179.922 63.7013 179.595 65.119 178.94 66.4058C178.308 67.6925 177.381 68.8049 176.16 69.7427C174.96 70.6587 173.521 71.3784 171.841 71.9019C170.184 72.4035 168.319 72.6543 166.247 72.6543C163.128 72.6543 160.489 72.0981 158.33 70.9858C156.171 69.8735 154.535 68.4341 153.423 66.6675C152.311 64.9009 151.754 63.0361 151.754 61.0732H157.839C157.927 62.7308 158.406 64.0503 159.279 65.0317C160.151 65.9914 161.22 66.6784 162.485 67.0928C163.75 67.4854 165.004 67.6816 166.247 67.6816C167.905 67.6816 169.29 67.4635 170.402 67.0273C171.536 66.5911 172.397 65.9914 172.986 65.228C173.575 64.4647 173.87 63.5923 173.87 62.6108ZM193.924 21.75V72H187.872V21.75H193.924ZM192.484 52.96L189.965 52.8618C189.987 50.4409 190.347 48.2054 191.045 46.1553C191.743 44.0833 192.724 42.284 193.989 40.7573C195.254 39.2306 196.759 38.0529 198.504 37.2241C200.271 36.3735 202.222 35.9482 204.36 35.9482C206.105 35.9482 207.675 36.1882 209.071 36.668C210.467 37.126 211.655 37.8675 212.637 38.8926C213.64 39.9176 214.403 41.248 214.927 42.8838C215.45 44.4977 215.712 46.4715 215.712 48.8052V72H209.627V48.7397C209.627 46.8859 209.354 45.4028 208.809 44.2905C208.264 43.1564 207.468 42.3385 206.421 41.8369C205.374 41.3135 204.087 41.0518 202.561 41.0518C201.056 41.0518 199.682 41.368 198.438 42.0005C197.217 42.633 196.159 43.5054 195.265 44.6177C194.393 45.73 193.706 47.0059 193.204 48.4453C192.724 49.863 192.484 51.3678 192.484 52.96ZM223.171 54.6938V53.9414C223.171 51.3896 223.542 49.0233 224.283 46.8423C225.025 44.6395 226.093 42.7311 227.489 41.1172C228.885 39.4814 230.575 38.2165 232.56 37.3223C234.545 36.4062 236.769 35.9482 239.234 35.9482C241.72 35.9482 243.956 36.4062 245.94 37.3223C247.947 38.2165 249.648 39.4814 251.044 41.1172C252.462 42.7311 253.541 44.6395 254.283 46.8423C255.024 49.0233 255.395 51.3896 255.395 53.9414V54.6938C255.395 57.2456 255.024 59.612 254.283 61.793C253.541 63.974 252.462 65.8823 251.044 67.5181C249.648 69.132 247.958 70.397 245.973 71.313C244.01 72.2072 241.786 72.6543 239.299 72.6543C236.813 72.6543 234.577 72.2072 232.593 71.313C230.608 70.397 228.907 69.132 227.489 67.5181C226.093 65.8823 225.025 63.974 224.283 61.793C223.542 59.612 223.171 57.2456 223.171 54.6938ZM229.223 53.9414V54.6938C229.223 56.4604 229.43 58.1289 229.845 59.6992C230.259 61.2477 230.881 62.6217 231.709 63.8213C232.56 65.0208 233.618 65.9696 234.883 66.6675C236.148 67.3436 237.62 67.6816 239.299 67.6816C240.957 67.6816 242.407 67.3436 243.65 66.6675C244.915 65.9696 245.962 65.0208 246.791 63.8213C247.62 62.6217 248.241 61.2477 248.656 59.6992C249.092 58.1289 249.31 56.4604 249.31 54.6938V53.9414C249.31 52.1966 249.092 50.55 248.656 49.0015C248.241 47.4312 247.609 46.0462 246.758 44.8467C245.93 43.6253 244.883 42.6657 243.618 41.9678C242.375 41.2699 240.913 40.9209 239.234 40.9209C237.576 40.9209 236.115 41.2699 234.85 41.9678C233.607 42.6657 232.56 43.6253 231.709 44.8467C230.881 46.0462 230.259 47.4312 229.845 49.0015C229.43 50.55 229.223 52.1966 229.223 53.9414ZM271.949 65.7188L281.043 36.6025H285.035L284.25 42.3931L274.991 72H271.098L271.949 65.7188ZM265.831 36.6025L273.584 66.0459L274.141 72H270.051L259.779 36.6025H265.831ZM293.737 65.8169L301.13 36.6025H307.15L296.877 72H292.821L293.737 65.8169ZM285.918 36.6025L294.816 65.228L295.831 72H291.97L282.45 42.3276L281.665 36.6025H285.918ZM328.055 72.6543C325.59 72.6543 323.355 72.2399 321.348 71.4111C319.363 70.5605 317.651 69.3719 316.212 67.8452C314.794 66.3185 313.704 64.5083 312.94 62.4146C312.177 60.3208 311.795 58.0308 311.795 55.5444V54.1704C311.795 51.2915 312.221 48.7288 313.071 46.4824C313.922 44.2142 315.078 42.2949 316.539 40.7246C318 39.1543 319.658 37.9657 321.512 37.1587C323.366 36.3517 325.285 35.9482 327.27 35.9482C329.799 35.9482 331.98 36.3844 333.812 37.2568C335.666 38.1292 337.182 39.3506 338.36 40.9209C339.538 42.4694 340.41 44.3014 340.977 46.417C341.544 48.5107 341.828 50.8008 341.828 53.2871V56.0024H315.394V51.0625H335.775V50.6045C335.688 49.0342 335.361 47.5075 334.794 46.0244C334.249 44.5413 333.376 43.32 332.177 42.3604C330.977 41.4007 329.341 40.9209 327.27 40.9209C325.896 40.9209 324.631 41.2153 323.475 41.8042C322.319 42.3713 321.326 43.2218 320.498 44.356C319.669 45.4901 319.025 46.875 318.567 48.5107C318.109 50.1465 317.88 52.033 317.88 54.1704V55.5444C317.88 57.2238 318.109 58.805 318.567 60.2881C319.047 61.7493 319.734 63.0361 320.628 64.1484C321.544 65.2607 322.646 66.1331 323.933 66.7656C325.241 67.3981 326.724 67.7144 328.382 67.7144C330.519 67.7144 332.329 67.2782 333.812 66.4058C335.296 65.5334 336.593 64.3665 337.706 62.9053L341.37 65.8169C340.606 66.9728 339.636 68.0742 338.458 69.1211C337.28 70.168 335.83 71.0186 334.107 71.6729C332.406 72.3271 330.388 72.6543 328.055 72.6543ZM354.946 42.1641V72H348.894V36.6025H354.783L354.946 42.1641ZM366.004 36.4062L365.971 42.0332C365.47 41.9242 364.99 41.8587 364.532 41.8369C364.096 41.7933 363.594 41.7715 363.027 41.7715C361.631 41.7715 360.399 41.9896 359.33 42.4258C358.261 42.862 357.356 43.4727 356.615 44.2578C355.873 45.043 355.284 45.9808 354.848 47.0713C354.434 48.14 354.161 49.3177 354.03 50.6045L352.329 51.5859C352.329 49.4486 352.536 47.4421 352.951 45.5664C353.387 43.6908 354.052 42.0332 354.946 40.5938C355.84 39.1325 356.975 37.9984 358.349 37.1914C359.744 36.3626 361.402 35.9482 363.321 35.9482C363.757 35.9482 364.259 36.0028 364.826 36.1118C365.393 36.1991 365.786 36.2972 366.004 36.4062ZM392.208 62.6108C392.208 61.7384 392.012 60.9315 391.62 60.1899C391.249 59.4266 390.475 58.7396 389.297 58.1289C388.141 57.4964 386.396 56.9512 384.062 56.4932C382.1 56.0788 380.322 55.5881 378.73 55.021C377.16 54.4539 375.818 53.7669 374.706 52.96C373.616 52.153 372.776 51.2043 372.187 50.1138C371.598 49.0233 371.304 47.7474 371.304 46.2861C371.304 44.8903 371.609 43.5708 372.22 42.3276C372.852 41.0845 373.736 39.9831 374.87 39.0234C376.026 38.0638 377.41 37.3114 379.024 36.7661C380.638 36.2209 382.438 35.9482 384.422 35.9482C387.258 35.9482 389.679 36.4499 391.685 37.4531C393.692 38.4564 395.229 39.7977 396.298 41.4771C397.367 43.1346 397.901 44.9775 397.901 47.0059H391.849C391.849 46.0244 391.554 45.0757 390.965 44.1597C390.398 43.2218 389.559 42.4476 388.446 41.8369C387.356 41.2262 386.014 40.9209 384.422 40.9209C382.743 40.9209 381.38 41.1826 380.333 41.7061C379.308 42.2077 378.556 42.8511 378.076 43.6362C377.618 44.4214 377.389 45.2502 377.389 46.1226C377.389 46.7769 377.498 47.3657 377.716 47.8892C377.956 48.3908 378.37 48.8597 378.959 49.2959C379.548 49.7103 380.377 50.1029 381.445 50.4736C382.514 50.8444 383.877 51.2152 385.535 51.5859C388.435 52.2402 390.824 53.0254 392.699 53.9414C394.575 54.8574 395.971 55.9806 396.887 57.311C397.803 58.6414 398.261 60.2554 398.261 62.1528C398.261 63.7013 397.934 65.119 397.279 66.4058C396.647 67.6925 395.72 68.8049 394.499 69.7427C393.299 70.6587 391.86 71.3784 390.18 71.9019C388.523 72.4035 386.658 72.6543 384.586 72.6543C381.467 72.6543 378.828 72.0981 376.669 70.9858C374.51 69.8735 372.874 68.4341 371.762 66.6675C370.649 64.9009 370.093 63.0361 370.093 61.0732H376.178C376.265 62.7308 376.745 64.0503 377.618 65.0317C378.49 65.9914 379.559 66.6784 380.824 67.0928C382.089 67.4854 383.343 67.6816 384.586 67.6816C386.243 67.6816 387.628 67.4635 388.741 67.0273C389.875 66.5911 390.736 65.9914 391.325 65.228C391.914 64.4647 392.208 63.5923 392.208 62.6108Z" fill="#C3B3D3"/>
<path d="M784.68 27V57H781.047V27H784.68ZM794.406 35.8672V57H790.773V35.8672H794.406ZM790.5 30.2617C790.5 29.6758 790.676 29.181 791.027 28.7773C791.392 28.3737 791.926 28.1719 792.629 28.1719C793.319 28.1719 793.846 28.3737 794.211 28.7773C794.589 29.181 794.777 29.6758 794.777 30.2617C794.777 30.8216 794.589 31.3034 794.211 31.707C793.846 32.0977 793.319 32.293 792.629 32.293C791.926 32.293 791.392 32.0977 791.027 31.707C790.676 31.3034 790.5 30.8216 790.5 30.2617ZM813.898 35.8672H817.18V56.5508C817.18 58.4128 816.802 60.0013 816.047 61.3164C815.292 62.6315 814.237 63.6276 812.883 64.3047C811.542 64.9948 809.992 65.3398 808.234 65.3398C807.505 65.3398 806.646 65.2227 805.656 64.9883C804.68 64.7669 803.716 64.3828 802.766 63.8359C801.828 63.3021 801.04 62.5794 800.402 61.668L802.297 59.5195C803.182 60.5872 804.107 61.3294 805.07 61.7461C806.047 62.1628 807.01 62.3711 807.961 62.3711C809.107 62.3711 810.096 62.1562 810.93 61.7266C811.763 61.2969 812.408 60.6589 812.863 59.8125C813.332 58.9792 813.566 57.9505 813.566 56.7266V40.5156L813.898 35.8672ZM799.348 46.668V46.2578C799.348 44.6432 799.536 43.1784 799.914 41.8633C800.305 40.5352 800.858 39.3958 801.574 38.4453C802.303 37.4948 803.182 36.7656 804.211 36.2578C805.24 35.737 806.398 35.4766 807.688 35.4766C809.016 35.4766 810.174 35.7109 811.164 36.1797C812.167 36.6354 813.013 37.306 813.703 38.1914C814.406 39.0638 814.96 40.1185 815.363 41.3555C815.767 42.5924 816.047 43.9922 816.203 45.5547V47.3516C816.06 48.901 815.78 50.2943 815.363 51.5312C814.96 52.7682 814.406 53.8229 813.703 54.6953C813.013 55.5677 812.167 56.2383 811.164 56.707C810.161 57.1628 808.99 57.3906 807.648 57.3906C806.385 57.3906 805.24 57.1237 804.211 56.5898C803.195 56.056 802.323 55.3073 801.594 54.3438C800.865 53.3802 800.305 52.2474 799.914 50.9453C799.536 49.6302 799.348 48.2044 799.348 46.668ZM802.961 46.2578V46.668C802.961 47.7227 803.065 48.7122 803.273 49.6367C803.495 50.5612 803.827 51.375 804.27 52.0781C804.725 52.7812 805.305 53.3346 806.008 53.7383C806.711 54.1289 807.551 54.3242 808.527 54.3242C809.725 54.3242 810.715 54.0703 811.496 53.5625C812.277 53.0547 812.896 52.3841 813.352 51.5508C813.82 50.7174 814.185 49.8125 814.445 48.8359V44.1289C814.302 43.4128 814.081 42.7227 813.781 42.0586C813.495 41.3815 813.117 40.7826 812.648 40.2617C812.193 39.7279 811.626 39.3047 810.949 38.9922C810.272 38.6797 809.478 38.5234 808.566 38.5234C807.577 38.5234 806.724 38.7318 806.008 39.1484C805.305 39.5521 804.725 40.112 804.27 40.8281C803.827 41.5312 803.495 42.3516 803.273 43.2891C803.065 44.2135 802.961 45.2031 802.961 46.2578ZM826.281 27V57H822.668V27H826.281ZM825.422 45.6328L823.918 45.5742C823.931 44.1289 824.146 42.7943 824.562 41.5703C824.979 40.3333 825.565 39.2591 826.32 38.3477C827.076 37.4362 827.974 36.7331 829.016 36.2383C830.07 35.7305 831.236 35.4766 832.512 35.4766C833.553 35.4766 834.491 35.6198 835.324 35.9062C836.158 36.1797 836.867 36.6224 837.453 37.2344C838.052 37.8464 838.508 38.6406 838.82 39.6172C839.133 40.5807 839.289 41.7591 839.289 43.1523V57H835.656V43.1133C835.656 42.0065 835.493 41.1211 835.168 40.457C834.842 39.7799 834.367 39.2917 833.742 38.9922C833.117 38.6797 832.349 38.5234 831.438 38.5234C830.539 38.5234 829.719 38.7122 828.977 39.0898C828.247 39.4674 827.616 39.9883 827.082 40.6523C826.561 41.3164 826.151 42.0781 825.852 42.9375C825.565 43.7839 825.422 44.6823 825.422 45.6328ZM853.547 35.8672V38.6406H842.121V35.8672H853.547ZM845.988 30.7305H849.602V51.7656C849.602 52.4818 849.712 53.0221 849.934 53.3867C850.155 53.7513 850.441 53.9922 850.793 54.1094C851.145 54.2266 851.522 54.2852 851.926 54.2852C852.225 54.2852 852.538 54.2591 852.863 54.207C853.202 54.1419 853.456 54.0898 853.625 54.0508L853.645 57C853.358 57.0911 852.98 57.1758 852.512 57.2539C852.056 57.3451 851.503 57.3906 850.852 57.3906C849.966 57.3906 849.152 57.2148 848.41 56.8633C847.668 56.5117 847.076 55.9258 846.633 55.1055C846.203 54.2721 845.988 53.1523 845.988 51.7461V30.7305ZM881.027 52.8984V27H884.66V57H881.34L881.027 52.8984ZM866.809 46.668V46.2578C866.809 44.6432 867.004 43.1784 867.395 41.8633C867.798 40.5352 868.365 39.3958 869.094 38.4453C869.836 37.4948 870.715 36.7656 871.73 36.2578C872.759 35.737 873.905 35.4766 875.168 35.4766C876.496 35.4766 877.655 35.7109 878.645 36.1797C879.647 36.6354 880.493 37.306 881.184 38.1914C881.887 39.0638 882.44 40.1185 882.844 41.3555C883.247 42.5924 883.527 43.9922 883.684 45.5547V47.3516C883.54 48.901 883.26 50.2943 882.844 51.5312C882.44 52.7682 881.887 53.8229 881.184 54.6953C880.493 55.5677 879.647 56.2383 878.645 56.707C877.642 57.1628 876.47 57.3906 875.129 57.3906C873.892 57.3906 872.759 57.1237 871.73 56.5898C870.715 56.056 869.836 55.3073 869.094 54.3438C868.365 53.3802 867.798 52.2474 867.395 50.9453C867.004 49.6302 866.809 48.2044 866.809 46.668ZM870.441 46.2578V46.668C870.441 47.7227 870.546 48.7122 870.754 49.6367C870.975 50.5612 871.314 51.375 871.77 52.0781C872.225 52.7812 872.805 53.3346 873.508 53.7383C874.211 54.1289 875.051 54.3242 876.027 54.3242C877.225 54.3242 878.208 54.0703 878.977 53.5625C879.758 53.0547 880.383 52.3841 880.852 51.5508C881.32 50.7174 881.685 49.8125 881.945 48.8359V44.1289C881.789 43.4128 881.561 42.7227 881.262 42.0586C880.975 41.3815 880.598 40.7826 880.129 40.2617C879.673 39.7279 879.107 39.3047 878.43 38.9922C877.766 38.6797 876.978 38.5234 876.066 38.5234C875.077 38.5234 874.224 38.7318 873.508 39.1484C872.805 39.5521 872.225 40.112 871.77 40.8281C871.314 41.5312 870.975 42.3516 870.754 43.2891C870.546 44.2135 870.441 45.2031 870.441 46.2578ZM893.898 39.1875V57H890.285V35.8672H893.801L893.898 39.1875ZM900.5 35.75L900.48 39.1094C900.181 39.0443 899.895 39.0052 899.621 38.9922C899.361 38.9661 899.061 38.9531 898.723 38.9531C897.889 38.9531 897.154 39.0833 896.516 39.3438C895.878 39.6042 895.337 39.9688 894.895 40.4375C894.452 40.9062 894.1 41.4661 893.84 42.1172C893.592 42.7552 893.43 43.4583 893.352 44.2266L892.336 44.8125C892.336 43.5365 892.46 42.3385 892.707 41.2188C892.967 40.099 893.365 39.1094 893.898 38.25C894.432 37.3776 895.109 36.7005 895.93 36.2188C896.763 35.724 897.753 35.4766 898.898 35.4766C899.159 35.4766 899.458 35.5091 899.797 35.5742C900.135 35.6263 900.37 35.6849 900.5 35.75ZM907.766 35.8672V57H904.133V35.8672H907.766ZM903.859 30.2617C903.859 29.6758 904.035 29.181 904.387 28.7773C904.751 28.3737 905.285 28.1719 905.988 28.1719C906.678 28.1719 907.206 28.3737 907.57 28.7773C907.948 29.181 908.137 29.6758 908.137 30.2617C908.137 30.8216 907.948 31.3034 907.57 31.707C907.206 32.0977 906.678 32.293 905.988 32.293C905.285 32.293 904.751 32.0977 904.387 31.707C904.035 31.3034 903.859 30.8216 903.859 30.2617ZM929.309 54.0312V57H913.938V54.0312H929.309ZM928.742 38.4258L914.758 57H912.551V54.3438L926.438 35.8672H928.742V38.4258ZM927.141 35.8672V38.8555H912.707V35.8672H927.141ZM949.152 54.0312V57H933.781V54.0312H949.152ZM948.586 38.4258L934.602 57H932.395V54.3438L946.281 35.8672H948.586V38.4258ZM946.984 35.8672V38.8555H932.551V35.8672H946.984ZM957.18 27V57H953.547V27H957.18ZM971.75 57.3906C970.279 57.3906 968.944 57.1432 967.746 56.6484C966.561 56.1406 965.539 55.431 964.68 54.5195C963.833 53.6081 963.182 52.5273 962.727 51.2773C962.271 50.0273 962.043 48.6602 962.043 47.1758V46.3555C962.043 44.6367 962.297 43.1068 962.805 41.7656C963.312 40.4115 964.003 39.2656 964.875 38.3281C965.747 37.3906 966.737 36.681 967.844 36.1992C968.951 35.7174 970.096 35.4766 971.281 35.4766C972.792 35.4766 974.094 35.737 975.188 36.2578C976.294 36.7786 977.199 37.5078 977.902 38.4453C978.605 39.3698 979.126 40.4635 979.465 41.7266C979.803 42.9766 979.973 44.3438 979.973 45.8281V47.4492H964.191V44.5H976.359V44.2266C976.307 43.2891 976.112 42.3776 975.773 41.4922C975.448 40.6068 974.927 39.8776 974.211 39.3047C973.495 38.7318 972.518 38.4453 971.281 38.4453C970.461 38.4453 969.706 38.6211 969.016 38.9727C968.326 39.3112 967.733 39.819 967.238 40.4961C966.743 41.1732 966.359 42 966.086 42.9766C965.812 43.9531 965.676 45.0794 965.676 46.3555V47.1758C965.676 48.1784 965.812 49.1224 966.086 50.0078C966.372 50.8802 966.783 51.6484 967.316 52.3125C967.863 52.9766 968.521 53.4974 969.289 53.875C970.07 54.2526 970.956 54.4414 971.945 54.4414C973.221 54.4414 974.302 54.181 975.188 53.6602C976.073 53.1393 976.848 52.4427 977.512 51.5703L979.699 53.3086C979.243 53.9987 978.664 54.6562 977.961 55.2812C977.258 55.9062 976.392 56.4141 975.363 56.8047C974.348 57.1953 973.143 57.3906 971.75 57.3906Z" fill="#C3B3D3"/>
<path d="M196.281 417.094V419.312H187.141V417.094H196.281ZM190.234 412.984H193.125V429.812C193.125 430.385 193.214 430.818 193.391 431.109C193.568 431.401 193.797 431.594 194.078 431.688C194.359 431.781 194.661 431.828 194.984 431.828C195.224 431.828 195.474 431.807 195.734 431.766C196.005 431.714 196.208 431.672 196.344 431.641L196.359 434C196.13 434.073 195.828 434.141 195.453 434.203C195.089 434.276 194.646 434.312 194.125 434.312C193.417 434.312 192.766 434.172 192.172 433.891C191.578 433.609 191.104 433.141 190.75 432.484C190.406 431.818 190.234 430.922 190.234 429.797V412.984ZM202.562 410V434H199.672V410H202.562ZM201.875 424.906L200.672 424.859C200.682 423.703 200.854 422.635 201.188 421.656C201.521 420.667 201.99 419.807 202.594 419.078C203.198 418.349 203.917 417.786 204.75 417.391C205.594 416.984 206.526 416.781 207.547 416.781C208.38 416.781 209.13 416.896 209.797 417.125C210.464 417.344 211.031 417.698 211.5 418.188C211.979 418.677 212.344 419.312 212.594 420.094C212.844 420.865 212.969 421.807 212.969 422.922V434H210.062V422.891C210.062 422.005 209.932 421.297 209.672 420.766C209.411 420.224 209.031 419.833 208.531 419.594C208.031 419.344 207.417 419.219 206.688 419.219C205.969 419.219 205.312 419.37 204.719 419.672C204.135 419.974 203.63 420.391 203.203 420.922C202.786 421.453 202.458 422.062 202.219 422.75C201.99 423.427 201.875 424.146 201.875 424.906ZM227.641 430.094V417.094H230.547V434H227.781L227.641 430.094ZM228.188 426.531L229.391 426.5C229.391 427.625 229.271 428.667 229.031 429.625C228.802 430.573 228.427 431.396 227.906 432.094C227.385 432.792 226.703 433.339 225.859 433.734C225.016 434.12 223.99 434.312 222.781 434.312C221.958 434.312 221.203 434.193 220.516 433.953C219.839 433.714 219.255 433.344 218.766 432.844C218.276 432.344 217.896 431.693 217.625 430.891C217.365 430.089 217.234 429.125 217.234 428V417.094H220.125V428.031C220.125 428.792 220.208 429.422 220.375 429.922C220.552 430.411 220.786 430.802 221.078 431.094C221.38 431.375 221.714 431.573 222.078 431.688C222.453 431.802 222.839 431.859 223.234 431.859C224.464 431.859 225.438 431.625 226.156 431.156C226.875 430.677 227.391 430.036 227.703 429.234C228.026 428.422 228.188 427.521 228.188 426.531ZM237.844 420.703V434H234.953V417.094H237.688L237.844 420.703ZM237.156 424.906L235.953 424.859C235.964 423.703 236.135 422.635 236.469 421.656C236.802 420.667 237.271 419.807 237.875 419.078C238.479 418.349 239.198 417.786 240.031 417.391C240.875 416.984 241.807 416.781 242.828 416.781C243.661 416.781 244.411 416.896 245.078 417.125C245.745 417.344 246.312 417.698 246.781 418.188C247.26 418.677 247.625 419.312 247.875 420.094C248.125 420.865 248.25 421.807 248.25 422.922V434H245.344V422.891C245.344 422.005 245.214 421.297 244.953 420.766C244.693 420.224 244.312 419.833 243.812 419.594C243.312 419.344 242.698 419.219 241.969 419.219C241.25 419.219 240.594 419.37 240 419.672C239.417 419.974 238.911 420.391 238.484 420.922C238.068 421.453 237.74 422.062 237.5 422.75C237.271 423.427 237.156 424.146 237.156 424.906ZM263.297 430.719V410H266.203V434H263.547L263.297 430.719ZM251.922 425.734V425.406C251.922 424.115 252.078 422.943 252.391 421.891C252.714 420.828 253.167 419.917 253.75 419.156C254.344 418.396 255.047 417.812 255.859 417.406C256.682 416.99 257.599 416.781 258.609 416.781C259.672 416.781 260.599 416.969 261.391 417.344C262.193 417.708 262.87 418.245 263.422 418.953C263.984 419.651 264.427 420.495 264.75 421.484C265.073 422.474 265.297 423.594 265.422 424.844V426.281C265.307 427.521 265.083 428.635 264.75 429.625C264.427 430.615 263.984 431.458 263.422 432.156C262.87 432.854 262.193 433.391 261.391 433.766C260.589 434.13 259.651 434.312 258.578 434.312C257.589 434.312 256.682 434.099 255.859 433.672C255.047 433.245 254.344 432.646 253.75 431.875C253.167 431.104 252.714 430.198 252.391 429.156C252.078 428.104 251.922 426.964 251.922 425.734ZM254.828 425.406V425.734C254.828 426.578 254.911 427.37 255.078 428.109C255.255 428.849 255.526 429.5 255.891 430.062C256.255 430.625 256.719 431.068 257.281 431.391C257.844 431.703 258.516 431.859 259.297 431.859C260.255 431.859 261.042 431.656 261.656 431.25C262.281 430.844 262.781 430.307 263.156 429.641C263.531 428.974 263.823 428.25 264.031 427.469V423.703C263.906 423.13 263.724 422.578 263.484 422.047C263.255 421.505 262.953 421.026 262.578 420.609C262.214 420.182 261.76 419.844 261.219 419.594C260.688 419.344 260.057 419.219 259.328 419.219C258.536 419.219 257.854 419.385 257.281 419.719C256.719 420.042 256.255 420.49 255.891 421.062C255.526 421.625 255.255 422.281 255.078 423.031C254.911 423.771 254.828 424.562 254.828 425.406ZM277.719 434.312C276.542 434.312 275.474 434.115 274.516 433.719C273.568 433.312 272.75 432.745 272.062 432.016C271.385 431.286 270.865 430.422 270.5 429.422C270.135 428.422 269.953 427.328 269.953 426.141V425.484C269.953 424.109 270.156 422.885 270.562 421.812C270.969 420.729 271.521 419.812 272.219 419.062C272.917 418.312 273.708 417.745 274.594 417.359C275.479 416.974 276.396 416.781 277.344 416.781C278.552 416.781 279.594 416.99 280.469 417.406C281.354 417.823 282.078 418.406 282.641 419.156C283.203 419.896 283.62 420.771 283.891 421.781C284.161 422.781 284.297 423.875 284.297 425.062V426.359H271.672V424H281.406V423.781C281.365 423.031 281.208 422.302 280.938 421.594C280.677 420.885 280.26 420.302 279.688 419.844C279.115 419.385 278.333 419.156 277.344 419.156C276.688 419.156 276.083 419.297 275.531 419.578C274.979 419.849 274.505 420.255 274.109 420.797C273.714 421.339 273.406 422 273.188 422.781C272.969 423.562 272.859 424.464 272.859 425.484V426.141C272.859 426.943 272.969 427.698 273.188 428.406C273.417 429.104 273.745 429.719 274.172 430.25C274.609 430.781 275.135 431.198 275.75 431.5C276.375 431.802 277.083 431.953 277.875 431.953C278.896 431.953 279.76 431.745 280.469 431.328C281.177 430.911 281.797 430.354 282.328 429.656L284.078 431.047C283.714 431.599 283.25 432.125 282.688 432.625C282.125 433.125 281.432 433.531 280.609 433.844C279.797 434.156 278.833 434.312 277.719 434.312ZM290.562 419.75V434H287.672V417.094H290.484L290.562 419.75ZM295.844 417L295.828 419.688C295.589 419.635 295.359 419.604 295.141 419.594C294.932 419.573 294.693 419.562 294.422 419.562C293.755 419.562 293.167 419.667 292.656 419.875C292.146 420.083 291.714 420.375 291.359 420.75C291.005 421.125 290.724 421.573 290.516 422.094C290.318 422.604 290.188 423.167 290.125 423.781L289.312 424.25C289.312 423.229 289.411 422.271 289.609 421.375C289.818 420.479 290.135 419.688 290.562 419C290.99 418.302 291.531 417.76 292.188 417.375C292.854 416.979 293.646 416.781 294.562 416.781C294.771 416.781 295.01 416.807 295.281 416.859C295.552 416.901 295.74 416.948 295.844 417ZM308.359 429.516C308.359 429.099 308.266 428.714 308.078 428.359C307.901 427.995 307.531 427.667 306.969 427.375C306.417 427.073 305.583 426.812 304.469 426.594C303.531 426.396 302.682 426.161 301.922 425.891C301.172 425.62 300.531 425.292 300 424.906C299.479 424.521 299.078 424.068 298.797 423.547C298.516 423.026 298.375 422.417 298.375 421.719C298.375 421.052 298.521 420.422 298.812 419.828C299.115 419.234 299.536 418.708 300.078 418.25C300.63 417.792 301.292 417.432 302.062 417.172C302.833 416.911 303.693 416.781 304.641 416.781C305.995 416.781 307.151 417.021 308.109 417.5C309.068 417.979 309.802 418.62 310.312 419.422C310.823 420.214 311.078 421.094 311.078 422.062H308.188C308.188 421.594 308.047 421.141 307.766 420.703C307.495 420.255 307.094 419.885 306.562 419.594C306.042 419.302 305.401 419.156 304.641 419.156C303.839 419.156 303.188 419.281 302.688 419.531C302.198 419.771 301.839 420.078 301.609 420.453C301.391 420.828 301.281 421.224 301.281 421.641C301.281 421.953 301.333 422.234 301.438 422.484C301.552 422.724 301.75 422.948 302.031 423.156C302.312 423.354 302.708 423.542 303.219 423.719C303.729 423.896 304.38 424.073 305.172 424.25C306.557 424.562 307.698 424.938 308.594 425.375C309.49 425.812 310.156 426.349 310.594 426.984C311.031 427.62 311.25 428.391 311.25 429.297C311.25 430.036 311.094 430.714 310.781 431.328C310.479 431.943 310.036 432.474 309.453 432.922C308.88 433.359 308.193 433.703 307.391 433.953C306.599 434.193 305.708 434.312 304.719 434.312C303.229 434.312 301.969 434.047 300.938 433.516C299.906 432.984 299.125 432.297 298.594 431.453C298.062 430.609 297.797 429.719 297.797 428.781H300.703C300.745 429.573 300.974 430.203 301.391 430.672C301.807 431.13 302.318 431.458 302.922 431.656C303.526 431.844 304.125 431.938 304.719 431.938C305.51 431.938 306.172 431.833 306.703 431.625C307.245 431.417 307.656 431.13 307.938 430.766C308.219 430.401 308.359 429.984 308.359 429.516ZM322.125 417.094V419.312H312.984V417.094H322.125ZM316.078 412.984H318.969V429.812C318.969 430.385 319.057 430.818 319.234 431.109C319.411 431.401 319.641 431.594 319.922 431.688C320.203 431.781 320.505 431.828 320.828 431.828C321.068 431.828 321.318 431.807 321.578 431.766C321.849 431.714 322.052 431.672 322.188 431.641L322.203 434C321.974 434.073 321.672 434.141 321.297 434.203C320.932 434.276 320.49 434.312 319.969 434.312C319.26 434.312 318.609 434.172 318.016 433.891C317.422 433.609 316.948 433.141 316.594 432.484C316.25 431.818 316.078 430.922 316.078 429.797V412.984ZM324.438 425.734V425.375C324.438 424.156 324.615 423.026 324.969 421.984C325.323 420.932 325.833 420.021 326.5 419.25C327.167 418.469 327.974 417.865 328.922 417.438C329.87 417 330.932 416.781 332.109 416.781C333.297 416.781 334.365 417 335.312 417.438C336.271 417.865 337.083 418.469 337.75 419.25C338.427 420.021 338.943 420.932 339.297 421.984C339.651 423.026 339.828 424.156 339.828 425.375V425.734C339.828 426.953 339.651 428.083 339.297 429.125C338.943 430.167 338.427 431.078 337.75 431.859C337.083 432.63 336.276 433.234 335.328 433.672C334.391 434.099 333.328 434.312 332.141 434.312C330.953 434.312 329.885 434.099 328.938 433.672C327.99 433.234 327.177 432.63 326.5 431.859C325.833 431.078 325.323 430.167 324.969 429.125C324.615 428.083 324.438 426.953 324.438 425.734ZM327.328 425.375V425.734C327.328 426.578 327.427 427.375 327.625 428.125C327.823 428.865 328.12 429.521 328.516 430.094C328.922 430.667 329.427 431.12 330.031 431.453C330.635 431.776 331.339 431.938 332.141 431.938C332.932 431.938 333.625 431.776 334.219 431.453C334.823 431.12 335.323 430.667 335.719 430.094C336.115 429.521 336.411 428.865 336.609 428.125C336.818 427.375 336.922 426.578 336.922 425.734V425.375C336.922 424.542 336.818 423.755 336.609 423.016C336.411 422.266 336.109 421.604 335.703 421.031C335.307 420.448 334.807 419.99 334.203 419.656C333.609 419.323 332.911 419.156 332.109 419.156C331.318 419.156 330.62 419.323 330.016 419.656C329.422 419.99 328.922 420.448 328.516 421.031C328.12 421.604 327.823 422.266 327.625 423.016C327.427 423.755 327.328 424.542 327.328 425.375ZM346.344 419.75V434H343.453V417.094H346.266L346.344 419.75ZM351.625 417L351.609 419.688C351.37 419.635 351.141 419.604 350.922 419.594C350.714 419.573 350.474 419.562 350.203 419.562C349.536 419.562 348.948 419.667 348.438 419.875C347.927 420.083 347.495 420.375 347.141 420.75C346.786 421.125 346.505 421.573 346.297 422.094C346.099 422.604 345.969 423.167 345.906 423.781L345.094 424.25C345.094 423.229 345.193 422.271 345.391 421.375C345.599 420.479 345.917 419.688 346.344 419C346.771 418.302 347.312 417.76 347.969 417.375C348.635 416.979 349.427 416.781 350.344 416.781C350.552 416.781 350.792 416.807 351.062 416.859C351.333 416.901 351.521 416.948 351.625 417ZM357.172 420.453V434H354.266V417.094H357.016L357.172 420.453ZM356.578 424.906L355.234 424.859C355.245 423.703 355.396 422.635 355.688 421.656C355.979 420.667 356.411 419.807 356.984 419.078C357.557 418.349 358.271 417.786 359.125 417.391C359.979 416.984 360.969 416.781 362.094 416.781C362.885 416.781 363.615 416.896 364.281 417.125C364.948 417.344 365.526 417.693 366.016 418.172C366.505 418.651 366.885 419.266 367.156 420.016C367.427 420.766 367.562 421.672 367.562 422.734V434H364.672V422.875C364.672 421.99 364.521 421.281 364.219 420.75C363.927 420.219 363.51 419.833 362.969 419.594C362.427 419.344 361.792 419.219 361.062 419.219C360.208 419.219 359.495 419.37 358.922 419.672C358.349 419.974 357.891 420.391 357.547 420.922C357.203 421.453 356.953 422.062 356.797 422.75C356.651 423.427 356.578 424.146 356.578 424.906ZM367.531 423.312L365.594 423.906C365.604 422.979 365.755 422.089 366.047 421.234C366.349 420.38 366.781 419.62 367.344 418.953C367.917 418.286 368.62 417.76 369.453 417.375C370.286 416.979 371.24 416.781 372.312 416.781C373.219 416.781 374.021 416.901 374.719 417.141C375.427 417.38 376.021 417.75 376.5 418.25C376.99 418.74 377.359 419.37 377.609 420.141C377.859 420.911 377.984 421.828 377.984 422.891V434H375.078V422.859C375.078 421.911 374.927 421.177 374.625 420.656C374.333 420.125 373.917 419.755 373.375 419.547C372.844 419.328 372.208 419.219 371.469 419.219C370.833 419.219 370.271 419.328 369.781 419.547C369.292 419.766 368.88 420.068 368.547 420.453C368.214 420.828 367.958 421.26 367.781 421.75C367.615 422.24 367.531 422.76 367.531 423.312Z" fill="#C3B3D3"/>
<path d="M890.841 755.744V741.5H892.839V758H891.013L890.841 755.744ZM883.021 752.317V752.092C883.021 751.204 883.128 750.398 883.343 749.675C883.565 748.944 883.876 748.318 884.277 747.795C884.686 747.272 885.169 746.871 885.728 746.592C886.293 746.305 886.924 746.162 887.618 746.162C888.349 746.162 888.986 746.291 889.53 746.549C890.082 746.799 890.547 747.168 890.927 747.655C891.313 748.135 891.618 748.715 891.84 749.396C892.062 750.076 892.216 750.846 892.302 751.705V752.693C892.223 753.546 892.069 754.312 891.84 754.992C891.618 755.673 891.313 756.253 890.927 756.732C890.547 757.212 890.082 757.581 889.53 757.839C888.979 758.09 888.334 758.215 887.597 758.215C886.916 758.215 886.293 758.068 885.728 757.774C885.169 757.481 884.686 757.069 884.277 756.539C883.876 756.009 883.565 755.386 883.343 754.67C883.128 753.947 883.021 753.162 883.021 752.317ZM885.019 752.092V752.317C885.019 752.897 885.076 753.442 885.19 753.95C885.312 754.459 885.498 754.906 885.749 755.293C886 755.68 886.318 755.984 886.705 756.206C887.092 756.421 887.554 756.528 888.091 756.528C888.75 756.528 889.29 756.389 889.713 756.109C890.143 755.83 890.486 755.461 890.744 755.003C891.002 754.545 891.202 754.047 891.346 753.51V750.921C891.26 750.527 891.134 750.147 890.97 749.782C890.812 749.41 890.604 749.08 890.347 748.794C890.096 748.5 889.785 748.268 889.412 748.096C889.047 747.924 888.614 747.838 888.112 747.838C887.568 747.838 887.099 747.952 886.705 748.182C886.318 748.404 886 748.712 885.749 749.105C885.498 749.492 885.312 749.943 885.19 750.459C885.076 750.967 885.019 751.512 885.019 752.092ZM897.92 748.203V758H895.933V746.377H897.866L897.92 748.203ZM901.551 746.312L901.54 748.16C901.375 748.124 901.218 748.103 901.067 748.096C900.924 748.081 900.759 748.074 900.573 748.074C900.115 748.074 899.71 748.146 899.359 748.289C899.008 748.432 898.711 748.633 898.468 748.891C898.224 749.148 898.031 749.456 897.888 749.814C897.752 750.165 897.662 750.552 897.619 750.975L897.061 751.297C897.061 750.595 897.129 749.936 897.265 749.32C897.408 748.704 897.626 748.16 897.92 747.688C898.214 747.208 898.586 746.835 899.037 746.57C899.495 746.298 900.04 746.162 900.67 746.162C900.813 746.162 900.978 746.18 901.164 746.216C901.35 746.244 901.479 746.277 901.551 746.312ZM905.547 746.377V758H903.549V746.377H905.547ZM903.398 743.294C903.398 742.972 903.495 742.7 903.688 742.478C903.889 742.256 904.183 742.145 904.569 742.145C904.949 742.145 905.239 742.256 905.439 742.478C905.647 742.7 905.751 742.972 905.751 743.294C905.751 743.602 905.647 743.867 905.439 744.089C905.239 744.304 904.949 744.411 904.569 744.411C904.183 744.411 903.889 744.304 903.688 744.089C903.495 743.867 903.398 743.602 903.398 743.294ZM917.396 756.367V758H908.941V756.367H917.396ZM917.084 747.784L909.393 758H908.179V756.539L915.816 746.377H917.084V747.784ZM916.203 746.377V748.021H908.265V746.377H916.203ZM928.31 756.367V758H919.855V756.367H928.31ZM927.998 747.784L920.307 758H919.093V756.539L926.73 746.377H927.998V747.784ZM927.117 746.377V748.021H919.179V746.377H927.117ZM932.725 741.5V758H930.727V741.5H932.725ZM940.738 758.215C939.929 758.215 939.195 758.079 938.536 757.807C937.884 757.527 937.322 757.137 936.85 756.636C936.384 756.134 936.026 755.54 935.775 754.853C935.525 754.165 935.399 753.413 935.399 752.597V752.146C935.399 751.2 935.539 750.359 935.818 749.621C936.098 748.876 936.477 748.246 936.957 747.73C937.437 747.215 937.981 746.825 938.59 746.56C939.199 746.295 939.829 746.162 940.48 746.162C941.311 746.162 942.027 746.305 942.629 746.592C943.238 746.878 943.735 747.279 944.122 747.795C944.509 748.303 944.795 748.905 944.981 749.6C945.168 750.287 945.261 751.039 945.261 751.855V752.747H936.581V751.125H943.273V750.975C943.245 750.459 943.137 749.958 942.951 749.471C942.772 748.984 942.486 748.583 942.092 748.268C941.698 747.952 941.161 747.795 940.48 747.795C940.029 747.795 939.614 747.892 939.234 748.085C938.855 748.271 938.529 748.55 938.257 748.923C937.985 749.295 937.773 749.75 937.623 750.287C937.473 750.824 937.397 751.444 937.397 752.146V752.597C937.397 753.148 937.473 753.667 937.623 754.154C937.781 754.634 938.006 755.057 938.3 755.422C938.601 755.787 938.962 756.074 939.385 756.281C939.814 756.489 940.301 756.593 940.846 756.593C941.548 756.593 942.142 756.45 942.629 756.163C943.116 755.877 943.542 755.493 943.907 755.014L945.11 755.97C944.86 756.349 944.541 756.711 944.154 757.055C943.768 757.398 943.291 757.678 942.726 757.893C942.167 758.107 941.505 758.215 940.738 758.215Z" fill="#C3B3D3"/>
<path d="M367.502 246.203V256H365.515V244.377H367.448L367.502 246.203ZM371.133 244.312L371.122 246.16C370.957 246.124 370.8 246.103 370.649 246.096C370.506 246.081 370.341 246.074 370.155 246.074C369.697 246.074 369.292 246.146 368.941 246.289C368.59 246.432 368.293 246.633 368.05 246.891C367.806 247.148 367.613 247.456 367.47 247.814C367.334 248.165 367.244 248.552 367.201 248.975L366.643 249.297C366.643 248.595 366.711 247.936 366.847 247.32C366.99 246.704 367.208 246.16 367.502 245.688C367.796 245.208 368.168 244.835 368.619 244.57C369.077 244.298 369.622 244.162 370.252 244.162C370.395 244.162 370.56 244.18 370.746 244.216C370.932 244.244 371.061 244.277 371.133 244.312ZM379.394 254.013V248.029C379.394 247.571 379.3 247.174 379.114 246.837C378.935 246.493 378.663 246.228 378.298 246.042C377.933 245.856 377.481 245.763 376.944 245.763C376.443 245.763 376.003 245.849 375.623 246.021C375.251 246.192 374.957 246.418 374.742 246.697C374.535 246.977 374.431 247.277 374.431 247.6H372.443C372.443 247.184 372.551 246.772 372.766 246.364C372.98 245.956 373.288 245.587 373.689 245.258C374.098 244.921 374.585 244.656 375.15 244.463C375.723 244.262 376.361 244.162 377.062 244.162C377.908 244.162 378.652 244.305 379.297 244.592C379.949 244.878 380.457 245.312 380.822 245.892C381.195 246.465 381.381 247.184 381.381 248.051V253.465C381.381 253.852 381.413 254.263 381.478 254.7C381.549 255.137 381.653 255.513 381.789 255.828V256H379.716C379.616 255.771 379.537 255.466 379.479 255.087C379.422 254.7 379.394 254.342 379.394 254.013ZM379.737 248.953L379.759 250.35H377.75C377.184 250.35 376.679 250.396 376.235 250.489C375.791 250.575 375.419 250.708 375.118 250.887C374.817 251.066 374.588 251.291 374.431 251.563C374.273 251.828 374.194 252.14 374.194 252.498C374.194 252.863 374.277 253.196 374.441 253.497C374.606 253.798 374.853 254.038 375.183 254.217C375.519 254.389 375.931 254.475 376.418 254.475C377.027 254.475 377.564 254.346 378.029 254.088C378.495 253.83 378.864 253.515 379.136 253.143C379.415 252.77 379.565 252.409 379.587 252.058L380.436 253.014C380.385 253.314 380.249 253.647 380.027 254.013C379.805 254.378 379.508 254.729 379.136 255.065C378.771 255.395 378.334 255.671 377.825 255.893C377.324 256.107 376.758 256.215 376.128 256.215C375.34 256.215 374.649 256.061 374.055 255.753C373.467 255.445 373.009 255.033 372.68 254.518C372.357 253.995 372.196 253.411 372.196 252.767C372.196 252.144 372.318 251.596 372.562 251.123C372.805 250.643 373.156 250.246 373.614 249.931C374.073 249.608 374.624 249.365 375.269 249.2C375.913 249.035 376.633 248.953 377.428 248.953H379.737ZM386.666 244.377V256H384.668V244.377H386.666ZM384.518 241.294C384.518 240.972 384.614 240.7 384.808 240.478C385.008 240.256 385.302 240.145 385.688 240.145C386.068 240.145 386.358 240.256 386.559 240.478C386.766 240.7 386.87 240.972 386.87 241.294C386.87 241.602 386.766 241.867 386.559 242.089C386.358 242.304 386.068 242.411 385.688 242.411C385.302 242.411 385.008 242.304 384.808 242.089C384.614 241.867 384.518 241.602 384.518 241.294ZM391.844 246.858V256H389.856V244.377H391.736L391.844 246.858ZM391.371 249.748L390.544 249.716C390.551 248.921 390.669 248.187 390.898 247.514C391.128 246.833 391.45 246.243 391.865 245.741C392.281 245.24 392.775 244.853 393.348 244.581C393.928 244.302 394.569 244.162 395.271 244.162C395.843 244.162 396.359 244.241 396.817 244.398C397.276 244.549 397.666 244.792 397.988 245.129C398.318 245.465 398.568 245.902 398.74 246.439C398.912 246.969 398.998 247.618 398.998 248.384V256H397V248.362C397 247.754 396.91 247.267 396.731 246.901C396.552 246.529 396.291 246.26 395.947 246.096C395.604 245.924 395.181 245.838 394.68 245.838C394.186 245.838 393.734 245.942 393.326 246.149C392.925 246.357 392.578 246.644 392.284 247.009C391.998 247.374 391.772 247.793 391.607 248.266C391.45 248.731 391.371 249.225 391.371 249.748Z" fill="#C3B3D3"/>
<path d="M162.479 105H160.492V92.1523C160.492 91.3145 160.643 90.609 160.943 90.0361C161.251 89.4561 161.692 89.0192 162.265 88.7256C162.838 88.4248 163.518 88.2744 164.306 88.2744C164.535 88.2744 164.764 88.2887 164.993 88.3174C165.229 88.346 165.459 88.389 165.681 88.4463L165.573 90.0684C165.423 90.0326 165.251 90.0075 165.058 89.9932C164.871 89.9788 164.685 89.9717 164.499 89.9717C164.076 89.9717 163.711 90.0576 163.403 90.2295C163.103 90.3942 162.873 90.6377 162.716 90.96C162.558 91.2822 162.479 91.6797 162.479 92.1523V105ZM164.95 93.377V94.9023H158.655V93.377H164.95ZM166.637 99.3174V99.0703C166.637 98.2324 166.758 97.4554 167.002 96.7393C167.245 96.016 167.596 95.3893 168.055 94.8594C168.513 94.3223 169.068 93.9069 169.72 93.6133C170.371 93.3125 171.102 93.1621 171.911 93.1621C172.728 93.1621 173.462 93.3125 174.113 93.6133C174.772 93.9069 175.331 94.3223 175.789 94.8594C176.255 95.3893 176.609 96.016 176.853 96.7393C177.096 97.4554 177.218 98.2324 177.218 99.0703V99.3174C177.218 100.155 177.096 100.932 176.853 101.648C176.609 102.365 176.255 102.991 175.789 103.528C175.331 104.058 174.776 104.474 174.124 104.774C173.479 105.068 172.749 105.215 171.933 105.215C171.116 105.215 170.382 105.068 169.73 104.774C169.079 104.474 168.52 104.058 168.055 103.528C167.596 102.991 167.245 102.365 167.002 101.648C166.758 100.932 166.637 100.155 166.637 99.3174ZM168.624 99.0703V99.3174C168.624 99.8975 168.692 100.445 168.828 100.961C168.964 101.469 169.168 101.921 169.44 102.314C169.72 102.708 170.067 103.02 170.482 103.249C170.898 103.471 171.381 103.582 171.933 103.582C172.477 103.582 172.953 103.471 173.361 103.249C173.777 103.02 174.12 102.708 174.393 102.314C174.665 101.921 174.869 101.469 175.005 100.961C175.148 100.445 175.22 99.8975 175.22 99.3174V99.0703C175.22 98.4974 175.148 97.9567 175.005 97.4482C174.869 96.9326 174.661 96.4779 174.382 96.084C174.11 95.6829 173.766 95.3678 173.351 95.1387C172.942 94.9095 172.463 94.7949 171.911 94.7949C171.367 94.7949 170.887 94.9095 170.472 95.1387C170.063 95.3678 169.72 95.6829 169.44 96.084C169.168 96.4779 168.964 96.9326 168.828 97.4482C168.692 97.9567 168.624 98.4974 168.624 99.0703ZM187.24 93.377H189.045V104.753C189.045 105.777 188.837 106.651 188.422 107.374C188.007 108.097 187.426 108.645 186.682 109.018C185.944 109.397 185.092 109.587 184.125 109.587C183.724 109.587 183.251 109.522 182.707 109.394C182.17 109.272 181.64 109.061 181.117 108.76C180.602 108.466 180.168 108.069 179.817 107.567L180.859 106.386C181.346 106.973 181.855 107.381 182.385 107.61C182.922 107.84 183.452 107.954 183.975 107.954C184.605 107.954 185.149 107.836 185.607 107.6C186.066 107.363 186.42 107.012 186.671 106.547C186.929 106.089 187.058 105.523 187.058 104.85V95.9336L187.24 93.377ZM179.237 99.3174V99.0918C179.237 98.2038 179.341 97.3981 179.549 96.6748C179.764 95.9443 180.068 95.3177 180.462 94.7949C180.863 94.2721 181.346 93.8711 181.912 93.5918C182.478 93.3053 183.115 93.1621 183.824 93.1621C184.555 93.1621 185.192 93.291 185.736 93.5488C186.288 93.7995 186.753 94.1683 187.133 94.6553C187.52 95.1351 187.824 95.7152 188.046 96.3955C188.268 97.0758 188.422 97.8457 188.508 98.7051V99.6934C188.429 100.546 188.275 101.312 188.046 101.992C187.824 102.673 187.52 103.253 187.133 103.732C186.753 104.212 186.288 104.581 185.736 104.839C185.185 105.09 184.54 105.215 183.803 105.215C183.108 105.215 182.478 105.068 181.912 104.774C181.354 104.481 180.874 104.069 180.473 103.539C180.072 103.009 179.764 102.386 179.549 101.67C179.341 100.947 179.237 100.162 179.237 99.3174ZM181.225 99.0918V99.3174C181.225 99.8975 181.282 100.442 181.396 100.95C181.518 101.459 181.701 101.906 181.944 102.293C182.195 102.68 182.514 102.984 182.9 103.206C183.287 103.421 183.749 103.528 184.286 103.528C184.945 103.528 185.489 103.389 185.919 103.109C186.349 102.83 186.689 102.461 186.939 102.003C187.197 101.545 187.398 101.047 187.541 100.51V97.9209C187.462 97.527 187.34 97.1475 187.176 96.7822C187.018 96.4098 186.811 96.0804 186.553 95.7939C186.302 95.5003 185.991 95.2676 185.618 95.0957C185.246 94.9238 184.809 94.8379 184.308 94.8379C183.763 94.8379 183.294 94.9525 182.9 95.1816C182.514 95.4036 182.195 95.7116 181.944 96.1055C181.701 96.4922 181.518 96.9434 181.396 97.459C181.282 97.9674 181.225 98.5117 181.225 99.0918ZM199.594 93.377H201.398V104.753C201.398 105.777 201.191 106.651 200.775 107.374C200.36 108.097 199.78 108.645 199.035 109.018C198.298 109.397 197.445 109.587 196.479 109.587C196.077 109.587 195.605 109.522 195.061 109.394C194.523 109.272 193.993 109.061 193.471 108.76C192.955 108.466 192.522 108.069 192.171 107.567L193.213 106.386C193.7 106.973 194.208 107.381 194.738 107.61C195.275 107.84 195.805 107.954 196.328 107.954C196.958 107.954 197.503 107.836 197.961 107.6C198.419 107.363 198.774 107.012 199.024 106.547C199.282 106.089 199.411 105.523 199.411 104.85V95.9336L199.594 93.377ZM191.591 99.3174V99.0918C191.591 98.2038 191.695 97.3981 191.902 96.6748C192.117 95.9443 192.422 95.3177 192.815 94.7949C193.216 94.2721 193.7 93.8711 194.266 93.5918C194.831 93.3053 195.469 93.1621 196.178 93.1621C196.908 93.1621 197.546 93.291 198.09 93.5488C198.641 93.7995 199.107 94.1683 199.486 94.6553C199.873 95.1351 200.177 95.7152 200.399 96.3955C200.621 97.0758 200.775 97.8457 200.861 98.7051V99.6934C200.783 100.546 200.629 101.312 200.399 101.992C200.177 102.673 199.873 103.253 199.486 103.732C199.107 104.212 198.641 104.581 198.09 104.839C197.538 105.09 196.894 105.215 196.156 105.215C195.462 105.215 194.831 105.068 194.266 104.774C193.707 104.481 193.227 104.069 192.826 103.539C192.425 103.009 192.117 102.386 191.902 101.67C191.695 100.947 191.591 100.162 191.591 99.3174ZM193.578 99.0918V99.3174C193.578 99.8975 193.635 100.442 193.75 100.95C193.872 101.459 194.054 101.906 194.298 102.293C194.549 102.68 194.867 102.984 195.254 103.206C195.641 103.421 196.103 103.528 196.64 103.528C197.299 103.528 197.843 103.389 198.272 103.109C198.702 102.83 199.042 102.461 199.293 102.003C199.551 101.545 199.751 101.047 199.895 100.51V97.9209C199.816 97.527 199.694 97.1475 199.529 96.7822C199.372 96.4098 199.164 96.0804 198.906 95.7939C198.656 95.5003 198.344 95.2676 197.972 95.0957C197.599 94.9238 197.162 94.8379 196.661 94.8379C196.117 94.8379 195.648 94.9525 195.254 95.1816C194.867 95.4036 194.549 95.7116 194.298 96.1055C194.054 96.4922 193.872 96.9434 193.75 97.459C193.635 97.9674 193.578 98.5117 193.578 99.0918ZM207.683 103.797L210.916 93.377H213.043L208.381 106.794C208.273 107.08 208.13 107.388 207.951 107.718C207.779 108.054 207.557 108.373 207.285 108.674C207.013 108.975 206.684 109.218 206.297 109.404C205.917 109.598 205.463 109.694 204.933 109.694C204.775 109.694 204.575 109.673 204.331 109.63C204.088 109.587 203.916 109.551 203.815 109.522L203.805 107.911C203.862 107.918 203.951 107.925 204.073 107.933C204.202 107.947 204.292 107.954 204.342 107.954C204.793 107.954 205.176 107.893 205.491 107.771C205.806 107.657 206.071 107.46 206.286 107.181C206.508 106.909 206.698 106.533 206.855 106.053L207.683 103.797ZM205.309 93.377L208.327 102.4L208.843 104.495L207.414 105.226L203.139 93.377H205.309Z" fill="#C3B3D3"/>
</g>
<defs>
<clipPath id="clip0_32_486">
<rect width="1000" height="800" fill="white"/>
</clipPath>
</defs>
</svg>
