<svg width="1002" height="1076" viewBox="0 0 1002 1076" fill="none" xmlns="http://www.w3.org/2000/svg">
<g clip-path="url(#clip0_32_320)">
<path d="M362.086 504.172C365.695 504.172 369.031 503.434 372.094 501.957C375.156 500.48 377.672 498.457 379.641 495.887C381.609 493.262 382.73 490.281 383.004 486.945H397.441C397.168 492.195 395.391 497.09 392.109 501.629C388.883 506.113 384.645 509.75 379.395 512.539C374.145 515.273 368.375 516.641 362.086 516.641C355.414 516.641 349.59 515.465 344.613 513.113C339.691 510.762 335.59 507.535 332.309 503.434C329.082 499.332 326.648 494.629 325.008 489.324C323.422 483.965 322.629 478.305 322.629 472.344V468.898C322.629 462.938 323.422 457.305 325.008 452C326.648 446.641 329.082 441.91 332.309 437.809C335.59 433.707 339.691 430.48 344.613 428.129C349.59 425.777 355.414 424.602 362.086 424.602C369.031 424.602 375.102 426.023 380.297 428.867C385.492 431.656 389.566 435.484 392.52 440.352C395.527 445.164 397.168 450.633 397.441 456.758H383.004C382.73 453.094 381.691 449.785 379.887 446.832C378.137 443.879 375.73 441.527 372.668 439.777C369.66 437.973 366.133 437.07 362.086 437.07C357.438 437.07 353.527 438 350.355 439.859C347.238 441.664 344.75 444.125 342.891 447.242C341.086 450.305 339.773 453.723 338.953 457.496C338.188 461.215 337.805 465.016 337.805 468.898V472.344C337.805 476.227 338.188 480.055 338.953 483.828C339.719 487.602 341.004 491.02 342.809 494.082C344.668 497.145 347.156 499.605 350.273 501.465C353.445 503.27 357.383 504.172 362.086 504.172ZM430.992 389V515H415.734V389H430.992ZM451.336 471.605V469.719C451.336 463.32 452.266 457.387 454.125 451.918C455.984 446.395 458.664 441.609 462.164 437.562C465.664 433.461 469.902 430.289 474.879 428.047C479.855 425.75 485.434 424.602 491.613 424.602C497.848 424.602 503.453 425.75 508.43 428.047C513.461 430.289 517.727 433.461 521.227 437.562C524.781 441.609 527.488 446.395 529.348 451.918C531.207 457.387 532.137 463.32 532.137 469.719V471.605C532.137 478.004 531.207 483.938 529.348 489.406C527.488 494.875 524.781 499.66 521.227 503.762C517.727 507.809 513.488 510.98 508.512 513.277C503.59 515.52 498.012 516.641 491.777 516.641C485.543 516.641 479.938 515.52 474.961 513.277C469.984 510.98 465.719 507.809 462.164 503.762C458.664 499.66 455.984 494.875 454.125 489.406C452.266 483.938 451.336 478.004 451.336 471.605ZM466.512 469.719V471.605C466.512 476.035 467.031 480.219 468.07 484.156C469.109 488.039 470.668 491.484 472.746 494.492C474.879 497.5 477.531 499.879 480.703 501.629C483.875 503.324 487.566 504.172 491.777 504.172C495.934 504.172 499.57 503.324 502.688 501.629C505.859 499.879 508.484 497.5 510.562 494.492C512.641 491.484 514.199 488.039 515.238 484.156C516.332 480.219 516.879 476.035 516.879 471.605V469.719C516.879 465.344 516.332 461.215 515.238 457.332C514.199 453.395 512.613 449.922 510.48 446.914C508.402 443.852 505.777 441.445 502.605 439.695C499.488 437.945 495.824 437.07 491.613 437.07C487.457 437.07 483.793 437.945 480.621 439.695C477.504 441.445 474.879 443.852 472.746 446.914C470.668 449.922 469.109 453.395 468.07 457.332C467.031 461.215 466.512 465.344 466.512 469.719ZM605.473 494.492V426.242H620.73V515H606.211L605.473 494.492ZM608.344 475.789L614.66 475.625C614.66 481.531 614.031 487 612.773 492.031C611.57 497.008 609.602 501.328 606.867 504.992C604.133 508.656 600.551 511.527 596.121 513.605C591.691 515.629 586.305 516.641 579.961 516.641C575.641 516.641 571.676 516.012 568.066 514.754C564.512 513.496 561.449 511.555 558.879 508.93C556.309 506.305 554.312 502.887 552.891 498.676C551.523 494.465 550.84 489.406 550.84 483.5V426.242H566.016V483.664C566.016 487.656 566.453 490.965 567.328 493.59C568.258 496.16 569.488 498.211 571.02 499.742C572.605 501.219 574.355 502.258 576.27 502.859C578.238 503.461 580.262 503.762 582.34 503.762C588.793 503.762 593.906 502.531 597.68 500.07C601.453 497.555 604.16 494.191 605.801 489.98C607.496 485.715 608.344 480.984 608.344 475.789ZM699.809 497.773V389H715.066V515H701.121L699.809 497.773ZM640.09 471.605V469.883C640.09 463.102 640.91 456.949 642.551 451.426C644.246 445.848 646.625 441.062 649.688 437.07C652.805 433.078 656.496 430.016 660.762 427.883C665.082 425.695 669.895 424.602 675.199 424.602C680.777 424.602 685.645 425.586 689.801 427.555C694.012 429.469 697.566 432.285 700.465 436.004C703.418 439.668 705.742 444.098 707.438 449.293C709.133 454.488 710.309 460.367 710.965 466.93V474.477C710.363 480.984 709.188 486.836 707.438 492.031C705.742 497.227 703.418 501.656 700.465 505.32C697.566 508.984 694.012 511.801 689.801 513.77C685.59 515.684 680.668 516.641 675.035 516.641C669.84 516.641 665.082 515.52 660.762 513.277C656.496 511.035 652.805 507.891 649.688 503.844C646.625 499.797 644.246 495.039 642.551 489.57C640.91 484.047 640.09 478.059 640.09 471.605ZM655.348 469.883V471.605C655.348 476.035 655.785 480.191 656.66 484.074C657.59 487.957 659.012 491.375 660.926 494.328C662.84 497.281 665.273 499.605 668.227 501.301C671.18 502.941 674.707 503.762 678.809 503.762C683.84 503.762 687.969 502.695 691.195 500.562C694.477 498.43 697.102 495.613 699.07 492.113C701.039 488.613 702.57 484.812 703.664 480.711V460.941C703.008 457.934 702.051 455.035 700.793 452.246C699.59 449.402 698.004 446.887 696.035 444.699C694.121 442.457 691.742 440.68 688.898 439.367C686.109 438.055 682.801 437.398 678.973 437.398C674.816 437.398 671.234 438.273 668.227 440.023C665.273 441.719 662.84 444.07 660.926 447.078C659.012 450.031 657.59 453.477 656.66 457.414C655.785 461.297 655.348 465.453 655.348 469.883ZM763.629 505.812L788.32 426.242H804.562L768.961 528.699C768.141 530.887 767.047 533.238 765.68 535.754C764.367 538.324 762.672 540.758 760.594 543.055C758.516 545.352 756 547.211 753.047 548.633C750.148 550.109 746.676 550.848 742.629 550.848C741.426 550.848 739.895 550.684 738.035 550.355C736.176 550.027 734.863 549.754 734.098 549.535L734.016 537.23C734.453 537.285 735.137 537.34 736.066 537.395C737.051 537.504 737.734 537.559 738.117 537.559C741.562 537.559 744.488 537.094 746.895 536.164C749.301 535.289 751.324 533.785 752.965 531.652C754.66 529.574 756.109 526.703 757.312 523.039L763.629 505.812ZM745.5 426.242L768.551 495.148L772.488 511.145L761.578 516.723L728.93 426.242H745.5Z" fill="#C3B3D3"/>
<g filter="url(#filter0_d_32_320)">
<path d="M137.564 725.922C137.564 724.243 137.186 722.689 136.43 721.261C135.716 719.792 134.226 718.469 131.958 717.293C129.732 716.075 126.373 715.025 121.88 714.144C118.101 713.346 114.678 712.401 111.613 711.309C108.589 710.217 106.007 708.895 103.865 707.341C101.766 705.787 100.149 703.96 99.0151 701.861C97.8813 699.761 97.3145 697.305 97.3145 694.491C97.3145 691.804 97.9023 689.263 99.0781 686.87C100.296 684.476 101.997 682.355 104.18 680.508C106.406 678.66 109.072 677.211 112.18 676.162C115.287 675.112 118.751 674.587 122.573 674.587C128.032 674.587 132.693 675.553 136.556 677.484C140.419 679.416 143.38 681.999 145.438 685.232C147.495 688.423 148.524 691.972 148.524 695.877H136.871C136.871 693.987 136.304 692.161 135.17 690.397C134.079 688.591 132.462 687.101 130.32 685.925C128.221 684.749 125.638 684.161 122.573 684.161C119.339 684.161 116.715 684.665 114.699 685.673C112.726 686.639 111.277 687.877 110.353 689.389C109.471 690.901 109.03 692.497 109.03 694.176C109.03 695.436 109.24 696.57 109.66 697.578C110.122 698.543 110.92 699.446 112.054 700.286C113.188 701.084 114.783 701.84 116.841 702.554C118.898 703.268 121.523 703.981 124.714 704.695C130.299 705.955 134.897 707.467 138.509 709.23C142.12 710.994 144.808 713.157 146.571 715.718C148.335 718.28 149.217 721.387 149.217 725.041C149.217 728.022 148.587 730.751 147.327 733.229C146.109 735.707 144.325 737.848 141.973 739.654C139.664 741.417 136.892 742.803 133.659 743.811C130.467 744.777 126.877 745.26 122.888 745.26C116.883 745.26 111.802 744.189 107.645 742.047C103.487 739.906 100.338 737.134 98.1963 733.733C96.0547 730.332 94.9839 726.741 94.9839 722.962H106.7C106.868 726.153 107.792 728.694 109.471 730.583C111.151 732.431 113.208 733.754 115.644 734.552C118.08 735.308 120.494 735.686 122.888 735.686C126.079 735.686 128.746 735.266 130.887 734.426C133.071 733.586 134.729 732.431 135.863 730.961C136.997 729.492 137.564 727.812 137.564 725.922ZM206.221 728.253V675.847H217.937V744H206.788L206.221 728.253ZM208.426 713.892L213.276 713.766C213.276 718.301 212.793 722.5 211.827 726.363C210.903 730.185 209.392 733.502 207.292 736.315C205.192 739.129 202.442 741.333 199.041 742.929C195.639 744.483 191.503 745.26 186.632 745.26C183.314 745.26 180.27 744.777 177.499 743.811C174.769 742.845 172.417 741.354 170.444 739.339C168.47 737.323 166.938 734.699 165.846 731.465C164.796 728.232 164.271 724.348 164.271 719.812V675.847H175.924V719.938C175.924 723.004 176.26 725.544 176.932 727.56C177.646 729.534 178.59 731.108 179.766 732.284C180.984 733.418 182.328 734.216 183.797 734.678C185.309 735.14 186.863 735.371 188.458 735.371C193.414 735.371 197.34 734.426 200.237 732.536C203.135 730.604 205.213 728.022 206.473 724.789C207.775 721.513 208.426 717.881 208.426 713.892ZM247.353 690.397V744H235.7V675.847H246.723L247.353 690.397ZM244.581 707.341L239.731 707.152C239.773 702.491 240.466 698.187 241.81 694.239C243.153 690.25 245.043 686.786 247.479 683.846C249.914 680.907 252.812 678.639 256.171 677.043C259.572 675.406 263.331 674.587 267.446 674.587C270.805 674.587 273.829 675.049 276.516 675.973C279.204 676.854 281.492 678.282 283.382 680.256C285.313 682.229 286.783 684.791 287.791 687.94C288.799 691.048 289.303 694.848 289.303 699.341V744H277.587V699.215C277.587 695.646 277.062 692.791 276.012 690.649C274.962 688.465 273.43 686.891 271.414 685.925C269.398 684.917 266.921 684.413 263.981 684.413C261.084 684.413 258.438 685.022 256.045 686.24C253.693 687.458 251.657 689.137 249.935 691.279C248.255 693.42 246.933 695.877 245.967 698.648C245.043 701.378 244.581 704.275 244.581 707.341ZM318.655 690.397V744H307.002V675.847H318.025L318.655 690.397ZM315.884 707.341L311.034 707.152C311.076 702.491 311.769 698.187 313.112 694.239C314.456 690.25 316.346 686.786 318.781 683.846C321.217 680.907 324.114 678.639 327.474 677.043C330.875 675.406 334.633 674.587 338.749 674.587C342.108 674.587 345.131 675.049 347.819 675.973C350.506 676.854 352.795 678.282 354.685 680.256C356.616 682.229 358.086 684.791 359.094 687.94C360.102 691.048 360.605 694.848 360.605 699.341V744H348.89V699.215C348.89 695.646 348.365 692.791 347.315 690.649C346.265 688.465 344.732 686.891 342.717 685.925C340.701 684.917 338.224 684.413 335.284 684.413C332.387 684.413 329.741 685.022 327.348 686.24C324.996 687.458 322.959 689.137 321.238 691.279C319.558 693.42 318.235 695.877 317.27 698.648C316.346 701.378 315.884 704.275 315.884 707.341ZM397.454 736.945L416.413 675.847H428.885L401.548 754.519C400.918 756.199 400.078 758.004 399.028 759.936C398.021 761.91 396.719 763.778 395.123 765.542C393.527 767.306 391.596 768.733 389.328 769.825C387.103 770.959 384.436 771.526 381.329 771.526C380.405 771.526 379.229 771.4 377.801 771.148C376.374 770.896 375.366 770.686 374.778 770.518L374.715 761.07C375.051 761.112 375.576 761.154 376.29 761.196C377.045 761.28 377.57 761.322 377.864 761.322C380.51 761.322 382.756 760.965 384.604 760.251C386.452 759.579 388.005 758.424 389.265 756.787C390.567 755.191 391.68 752.986 392.604 750.173L397.454 736.945ZM383.533 675.847L401.233 728.757L404.256 741.04L395.879 745.323L370.81 675.847H383.533Z" fill="#FDF464"/>
</g>
<path d="M117.51 588.057V657.344H107.52V576.885H116.65L117.51 588.057ZM156.665 605.459V606.587C156.665 610.812 156.164 614.733 155.161 618.35C154.159 621.93 152.69 625.046 150.757 627.695C148.859 630.345 146.514 632.404 143.721 633.872C140.928 635.34 137.723 636.074 134.106 636.074C130.418 636.074 127.16 635.465 124.331 634.248C121.502 633.031 119.103 631.258 117.134 628.931C115.164 626.603 113.589 623.81 112.407 620.552C111.261 617.293 110.474 613.623 110.044 609.541V603.525C110.474 599.229 111.279 595.379 112.461 591.978C113.643 588.576 115.2 585.675 117.134 583.276C119.103 580.841 121.484 578.997 124.277 577.744C127.07 576.455 130.293 575.811 133.945 575.811C137.598 575.811 140.838 576.527 143.667 577.959C146.496 579.355 148.877 581.361 150.811 583.975C152.744 586.589 154.194 589.722 155.161 593.374C156.164 596.991 156.665 601.019 156.665 605.459ZM146.675 606.587V605.459C146.675 602.559 146.37 599.837 145.762 597.295C145.153 594.717 144.204 592.461 142.915 590.527C141.662 588.558 140.05 587.018 138.081 585.908C136.112 584.762 133.766 584.189 131.045 584.189C128.538 584.189 126.354 584.619 124.492 585.479C122.666 586.338 121.108 587.502 119.819 588.97C118.53 590.402 117.474 592.049 116.65 593.911C115.863 595.737 115.272 597.635 114.878 599.604V613.516C115.594 616.022 116.597 618.385 117.886 620.605C119.175 622.79 120.894 624.562 123.042 625.923C125.19 627.248 127.894 627.91 131.152 627.91C133.838 627.91 136.147 627.355 138.081 626.245C140.05 625.099 141.662 623.542 142.915 621.572C144.204 619.603 145.153 617.347 145.762 614.805C146.37 612.227 146.675 609.487 146.675 606.587ZM203.608 625.063V595.146C203.608 592.855 203.143 590.868 202.212 589.185C201.317 587.466 199.956 586.141 198.13 585.21C196.304 584.279 194.048 583.813 191.362 583.813C188.856 583.813 186.654 584.243 184.756 585.103C182.894 585.962 181.426 587.09 180.352 588.486C179.313 589.883 178.794 591.387 178.794 592.998H168.857C168.857 590.921 169.395 588.862 170.469 586.821C171.543 584.78 173.083 582.936 175.088 581.289C177.129 579.606 179.564 578.281 182.393 577.314C185.257 576.312 188.444 575.811 191.953 575.811C196.178 575.811 199.902 576.527 203.125 577.959C206.383 579.391 208.926 581.558 210.752 584.458C212.614 587.323 213.545 590.921 213.545 595.254V622.324C213.545 624.258 213.706 626.317 214.028 628.501C214.386 630.685 214.906 632.565 215.586 634.141V635H205.22C204.718 633.854 204.325 632.332 204.038 630.435C203.752 628.501 203.608 626.711 203.608 625.063ZM205.327 599.766L205.435 606.748H195.391C192.562 606.748 190.037 606.981 187.817 607.446C185.597 607.876 183.735 608.538 182.231 609.434C180.728 610.329 179.582 611.457 178.794 612.817C178.006 614.142 177.612 615.7 177.612 617.49C177.612 619.316 178.024 620.981 178.848 622.485C179.671 623.989 180.907 625.189 182.554 626.084C184.237 626.943 186.296 627.373 188.73 627.373C191.774 627.373 194.46 626.729 196.787 625.439C199.115 624.15 200.959 622.575 202.319 620.713C203.716 618.851 204.468 617.043 204.575 615.288L208.818 620.068C208.568 621.572 207.887 623.237 206.777 625.063C205.667 626.89 204.181 628.644 202.319 630.327C200.493 631.974 198.309 633.353 195.767 634.463C193.26 635.537 190.431 636.074 187.28 636.074C183.341 636.074 179.886 635.304 176.914 633.765C173.978 632.225 171.686 630.166 170.039 627.588C168.428 624.974 167.622 622.056 167.622 618.833C167.622 615.718 168.231 612.979 169.448 610.615C170.666 608.216 172.42 606.229 174.712 604.653C177.004 603.042 179.761 601.825 182.983 601.001C186.206 600.177 189.805 599.766 193.779 599.766H205.327ZM239.111 586.016V635H229.175V576.885H238.843L239.111 586.016ZM257.266 576.562L257.212 585.801C256.388 585.622 255.601 585.514 254.849 585.479C254.132 585.407 253.309 585.371 252.378 585.371C250.086 585.371 248.063 585.729 246.309 586.445C244.554 587.161 243.068 588.164 241.851 589.453C240.633 590.742 239.666 592.282 238.95 594.072C238.27 595.827 237.822 597.76 237.607 599.873L234.814 601.484C234.814 597.975 235.155 594.681 235.835 591.602C236.551 588.522 237.643 585.801 239.111 583.438C240.579 581.038 242.441 579.176 244.697 577.852C246.989 576.491 249.71 575.811 252.861 575.811C253.577 575.811 254.401 575.9 255.332 576.079C256.263 576.222 256.908 576.383 257.266 576.562ZM293.467 576.885V584.512H262.046V576.885H293.467ZM272.681 562.759H282.617V620.605C282.617 622.575 282.922 624.061 283.53 625.063C284.139 626.066 284.927 626.729 285.894 627.051C286.86 627.373 287.899 627.534 289.009 627.534C289.832 627.534 290.692 627.463 291.587 627.319C292.518 627.14 293.216 626.997 293.682 626.89L293.735 635C292.948 635.251 291.909 635.483 290.62 635.698C289.367 635.949 287.845 636.074 286.055 636.074C283.62 636.074 281.382 635.591 279.341 634.624C277.3 633.657 275.671 632.046 274.453 629.79C273.271 627.498 272.681 624.419 272.681 620.552V562.759ZM315.918 552.5V635H305.928V552.5H315.918ZM348.198 628.984L364.365 576.885H375L351.689 643.97C351.152 645.402 350.436 646.942 349.541 648.589C348.682 650.272 347.572 651.865 346.211 653.369C344.85 654.873 343.203 656.09 341.27 657.021C339.372 657.988 337.098 658.472 334.448 658.472C333.66 658.472 332.658 658.364 331.44 658.149C330.223 657.935 329.364 657.756 328.862 657.612L328.809 649.556C329.095 649.591 329.543 649.627 330.151 649.663C330.796 649.735 331.243 649.771 331.494 649.771C333.75 649.771 335.666 649.466 337.241 648.857C338.817 648.285 340.142 647.3 341.216 645.903C342.326 644.543 343.275 642.663 344.062 640.264L348.198 628.984ZM336.328 576.885L351.421 622.002L353.999 632.476L346.855 636.128L325.479 576.885H336.328ZM434.512 627.91C436.875 627.91 439.059 627.427 441.064 626.46C443.07 625.493 444.717 624.168 446.006 622.485C447.295 620.767 448.029 618.815 448.208 616.631H457.661C457.482 620.068 456.318 623.273 454.17 626.245C452.057 629.181 449.282 631.562 445.845 633.389C442.407 635.179 438.63 636.074 434.512 636.074C430.143 636.074 426.33 635.304 423.071 633.765C419.849 632.225 417.163 630.112 415.015 627.427C412.902 624.741 411.309 621.662 410.234 618.188C409.196 614.679 408.677 610.973 408.677 607.07V604.814C408.677 600.911 409.196 597.223 410.234 593.75C411.309 590.241 412.902 587.144 415.015 584.458C417.163 581.772 419.849 579.66 423.071 578.12C426.33 576.58 430.143 575.811 434.512 575.811C439.059 575.811 443.034 576.742 446.436 578.604C449.837 580.43 452.505 582.936 454.438 586.123C456.408 589.274 457.482 592.855 457.661 596.865H448.208C448.029 594.466 447.349 592.3 446.167 590.366C445.021 588.433 443.446 586.893 441.44 585.747C439.471 584.565 437.161 583.975 434.512 583.975C431.468 583.975 428.908 584.583 426.831 585.801C424.79 586.982 423.161 588.594 421.943 590.635C420.762 592.64 419.902 594.878 419.365 597.349C418.864 599.784 418.613 602.272 418.613 604.814V607.07C418.613 609.613 418.864 612.119 419.365 614.59C419.867 617.061 420.708 619.299 421.89 621.304C423.107 623.309 424.736 624.92 426.777 626.138C428.854 627.319 431.432 627.91 434.512 627.91ZM479.629 552.5V635H469.639V552.5H479.629ZM492.949 606.587V605.352C492.949 601.162 493.558 597.277 494.775 593.696C495.993 590.08 497.747 586.947 500.039 584.297C502.331 581.611 505.106 579.535 508.364 578.066C511.623 576.562 515.275 575.811 519.321 575.811C523.403 575.811 527.074 576.562 530.332 578.066C533.626 579.535 536.419 581.611 538.711 584.297C541.038 586.947 542.811 590.08 544.028 593.696C545.246 597.277 545.854 601.162 545.854 605.352V606.587C545.854 610.776 545.246 614.661 544.028 618.242C542.811 621.823 541.038 624.956 538.711 627.642C536.419 630.291 533.644 632.368 530.386 633.872C527.163 635.34 523.511 636.074 519.429 636.074C515.347 636.074 511.676 635.34 508.418 633.872C505.16 632.368 502.367 630.291 500.039 627.642C497.747 624.956 495.993 621.823 494.775 618.242C493.558 614.661 492.949 610.776 492.949 606.587ZM502.886 605.352V606.587C502.886 609.487 503.226 612.227 503.906 614.805C504.587 617.347 505.607 619.603 506.968 621.572C508.364 623.542 510.101 625.099 512.178 626.245C514.255 627.355 516.672 627.91 519.429 627.91C522.15 627.91 524.531 627.355 526.572 626.245C528.649 625.099 530.368 623.542 531.729 621.572C533.089 619.603 534.11 617.347 534.79 614.805C535.506 612.227 535.864 609.487 535.864 606.587V605.352C535.864 602.487 535.506 599.784 534.79 597.241C534.11 594.663 533.071 592.389 531.675 590.42C530.314 588.415 528.595 586.839 526.519 585.693C524.478 584.548 522.078 583.975 519.321 583.975C516.6 583.975 514.201 584.548 512.124 585.693C510.083 586.839 508.364 588.415 506.968 590.42C505.607 592.389 504.587 594.663 503.906 597.241C503.226 599.784 502.886 602.487 502.886 605.352ZM593.872 621.572V576.885H603.862V635H594.355L593.872 621.572ZM595.752 609.326L599.888 609.219C599.888 613.086 599.476 616.667 598.652 619.961C597.865 623.219 596.576 626.048 594.785 628.447C592.995 630.846 590.649 632.726 587.749 634.087C584.849 635.412 581.322 636.074 577.168 636.074C574.339 636.074 571.743 635.662 569.38 634.839C567.052 634.015 565.047 632.744 563.364 631.025C561.681 629.307 560.374 627.069 559.443 624.312C558.548 621.554 558.101 618.242 558.101 614.375V576.885H568.037V614.482C568.037 617.096 568.324 619.263 568.896 620.981C569.505 622.664 570.311 624.007 571.313 625.01C572.352 625.977 573.498 626.657 574.751 627.051C576.04 627.445 577.365 627.642 578.726 627.642C582.951 627.642 586.299 626.836 588.77 625.225C591.24 623.577 593.013 621.375 594.087 618.618C595.197 615.825 595.752 612.728 595.752 609.326ZM655.64 623.721V552.5H665.63V635H656.499L655.64 623.721ZM616.538 606.587V605.459C616.538 601.019 617.075 596.991 618.149 593.374C619.259 589.722 620.817 586.589 622.822 583.975C624.863 581.361 627.28 579.355 630.073 577.959C632.902 576.527 636.053 575.811 639.526 575.811C643.179 575.811 646.366 576.455 649.087 577.744C651.844 578.997 654.172 580.841 656.069 583.276C658.003 585.675 659.525 588.576 660.635 591.978C661.745 595.379 662.515 599.229 662.944 603.525V608.467C662.55 612.728 661.781 616.559 660.635 619.961C659.525 623.363 658.003 626.263 656.069 628.662C654.172 631.061 651.844 632.905 649.087 634.194C646.33 635.448 643.107 636.074 639.419 636.074C636.017 636.074 632.902 635.34 630.073 633.872C627.28 632.404 624.863 630.345 622.822 627.695C620.817 625.046 619.259 621.93 618.149 618.35C617.075 614.733 616.538 610.812 616.538 606.587ZM626.528 605.459V606.587C626.528 609.487 626.815 612.209 627.388 614.751C627.996 617.293 628.927 619.531 630.181 621.465C631.434 623.398 633.027 624.92 634.961 626.03C636.895 627.104 639.204 627.642 641.89 627.642C645.184 627.642 647.887 626.943 650 625.547C652.148 624.15 653.867 622.306 655.156 620.015C656.445 617.723 657.448 615.234 658.164 612.549V599.604C657.734 597.635 657.108 595.737 656.284 593.911C655.496 592.049 654.458 590.402 653.169 588.97C651.916 587.502 650.358 586.338 648.496 585.479C646.67 584.619 644.504 584.189 641.997 584.189C639.276 584.189 636.93 584.762 634.961 585.908C633.027 587.018 631.434 588.558 630.181 590.527C628.927 592.461 627.996 594.717 627.388 597.295C626.815 599.837 626.528 602.559 626.528 605.459ZM697.427 628.984L713.594 576.885H724.229L700.918 643.97C700.381 645.402 699.665 646.942 698.77 648.589C697.91 650.272 696.8 651.865 695.439 653.369C694.079 654.873 692.432 656.09 690.498 657.021C688.6 657.988 686.326 658.472 683.677 658.472C682.889 658.472 681.886 658.364 680.669 658.149C679.451 657.935 678.592 657.756 678.091 657.612L678.037 649.556C678.324 649.591 678.771 649.627 679.38 649.663C680.024 649.735 680.472 649.771 680.723 649.771C682.979 649.771 684.894 649.466 686.47 648.857C688.045 648.285 689.37 647.3 690.444 645.903C691.554 644.543 692.503 642.663 693.291 640.264L697.427 628.984ZM685.557 576.885L700.649 622.002L703.228 632.476L696.084 636.128L674.707 576.885H685.557Z" fill="#C3B3D3"/>
<g filter="url(#filter1_d_32_320)">
<path d="M223.902 308.25V340H217.09V300.376H223.536L223.902 308.25ZM222.51 318.687L219.361 318.577C219.385 315.867 219.739 313.364 220.423 311.069C221.106 308.75 222.12 306.736 223.462 305.027C224.805 303.318 226.478 302 228.479 301.072C230.481 300.12 232.801 299.644 235.438 299.644C237.293 299.644 239.002 299.912 240.564 300.449C242.127 300.962 243.482 301.78 244.629 302.903C245.777 304.026 246.668 305.466 247.303 307.224C247.938 308.982 248.255 311.106 248.255 313.596V340H241.48V313.926C241.48 311.851 241.126 310.19 240.418 308.945C239.734 307.7 238.758 306.797 237.488 306.235C236.219 305.649 234.729 305.356 233.021 305.356C231.019 305.356 229.346 305.71 228.003 306.418C226.661 307.126 225.586 308.103 224.781 309.348C223.975 310.593 223.389 312.021 223.023 313.633C222.681 315.22 222.51 316.904 222.51 318.687ZM248.182 314.951L243.641 316.343C243.665 314.17 244.019 312.083 244.703 310.081C245.411 308.079 246.424 306.296 247.742 304.734C249.085 303.171 250.733 301.938 252.686 301.035C254.639 300.107 256.873 299.644 259.388 299.644C261.512 299.644 263.392 299.924 265.027 300.486C266.688 301.047 268.079 301.914 269.202 303.086C270.35 304.233 271.216 305.71 271.802 307.517C272.388 309.324 272.681 311.472 272.681 313.962V340H265.87V313.889C265.87 311.667 265.516 309.946 264.808 308.726C264.124 307.48 263.147 306.614 261.878 306.125C260.633 305.613 259.144 305.356 257.41 305.356C255.921 305.356 254.603 305.613 253.455 306.125C252.308 306.638 251.343 307.346 250.562 308.25C249.781 309.128 249.183 310.142 248.768 311.289C248.377 312.437 248.182 313.657 248.182 314.951ZM306.299 333.225V312.827C306.299 311.265 305.982 309.91 305.347 308.762C304.737 307.59 303.809 306.687 302.564 306.052C301.319 305.417 299.781 305.1 297.95 305.1C296.241 305.1 294.739 305.393 293.445 305.979C292.176 306.565 291.175 307.334 290.442 308.286C289.734 309.238 289.38 310.264 289.38 311.362H282.605C282.605 309.946 282.972 308.542 283.704 307.151C284.437 305.759 285.486 304.502 286.854 303.379C288.245 302.231 289.905 301.328 291.834 300.669C293.787 299.985 295.96 299.644 298.353 299.644C301.233 299.644 303.772 300.132 305.97 301.108C308.191 302.085 309.925 303.562 311.17 305.54C312.439 307.493 313.074 309.946 313.074 312.9V331.357C313.074 332.676 313.184 334.08 313.404 335.569C313.648 337.058 314.002 338.34 314.466 339.414V340H307.398C307.056 339.219 306.788 338.181 306.592 336.887C306.397 335.569 306.299 334.348 306.299 333.225ZM307.471 315.977L307.544 320.737H300.696C298.768 320.737 297.046 320.896 295.533 321.213C294.019 321.506 292.75 321.958 291.724 322.568C290.699 323.179 289.917 323.948 289.38 324.875C288.843 325.779 288.575 326.841 288.575 328.062C288.575 329.307 288.855 330.442 289.417 331.467C289.979 332.493 290.821 333.311 291.944 333.921C293.091 334.507 294.495 334.8 296.155 334.8C298.23 334.8 300.062 334.36 301.648 333.481C303.235 332.603 304.493 331.528 305.42 330.259C306.373 328.989 306.885 327.756 306.958 326.56L309.852 329.819C309.681 330.845 309.217 331.98 308.46 333.225C307.703 334.47 306.69 335.667 305.42 336.814C304.175 337.937 302.686 338.877 300.953 339.634C299.244 340.366 297.315 340.732 295.167 340.732C292.481 340.732 290.125 340.208 288.099 339.158C286.097 338.108 284.534 336.704 283.411 334.946C282.312 333.164 281.763 331.174 281.763 328.977C281.763 326.853 282.178 324.985 283.008 323.374C283.838 321.738 285.035 320.383 286.597 319.309C288.16 318.21 290.04 317.38 292.237 316.819C294.434 316.257 296.888 315.977 299.598 315.977H307.471ZM331.092 300.376V340H324.28V300.376H331.092ZM323.768 289.866C323.768 288.767 324.097 287.839 324.756 287.083C325.44 286.326 326.441 285.947 327.759 285.947C329.053 285.947 330.042 286.326 330.726 287.083C331.434 287.839 331.788 288.767 331.788 289.866C331.788 290.916 331.434 291.819 330.726 292.576C330.042 293.308 329.053 293.674 327.759 293.674C326.441 293.674 325.44 293.308 324.756 292.576C324.097 291.819 323.768 290.916 323.768 289.866ZM348.743 308.835V340H341.968V300.376H348.377L348.743 308.835ZM347.132 318.687L344.312 318.577C344.336 315.867 344.739 313.364 345.521 311.069C346.302 308.75 347.4 306.736 348.816 305.027C350.232 303.318 351.917 302 353.87 301.072C355.848 300.12 358.033 299.644 360.425 299.644C362.378 299.644 364.136 299.912 365.699 300.449C367.261 300.962 368.592 301.792 369.69 302.939C370.813 304.087 371.668 305.576 372.254 307.407C372.84 309.214 373.133 311.423 373.133 314.036V340H366.321V313.962C366.321 311.887 366.016 310.227 365.406 308.982C364.795 307.712 363.904 306.797 362.732 306.235C361.561 305.649 360.12 305.356 358.411 305.356C356.727 305.356 355.188 305.71 353.797 306.418C352.43 307.126 351.246 308.103 350.245 309.348C349.268 310.593 348.499 312.021 347.938 313.633C347.4 315.22 347.132 316.904 347.132 318.687ZM390.784 283.75V340H383.973V283.75H390.784ZM412.793 335.898L423.816 300.376H431.067L415.174 346.116C414.808 347.092 414.319 348.142 413.709 349.265C413.123 350.413 412.366 351.499 411.438 352.524C410.511 353.55 409.388 354.38 408.069 355.015C406.775 355.674 405.225 356.003 403.418 356.003C402.881 356.003 402.198 355.93 401.368 355.784C400.538 355.637 399.952 355.515 399.61 355.417L399.573 349.924C399.769 349.949 400.074 349.973 400.489 349.998C400.928 350.046 401.233 350.071 401.404 350.071C402.942 350.071 404.249 349.863 405.323 349.448C406.397 349.058 407.3 348.386 408.033 347.434C408.79 346.506 409.437 345.225 409.974 343.589L412.793 335.898ZM404.7 300.376L414.991 331.138L416.749 338.279L411.878 340.769L397.303 300.376H404.7ZM478.858 329.49C478.858 328.513 478.638 327.61 478.199 326.78C477.784 325.925 476.917 325.156 475.599 324.473C474.305 323.765 472.352 323.154 469.739 322.642C467.542 322.178 465.552 321.628 463.77 320.994C462.012 320.359 460.511 319.59 459.266 318.687C458.045 317.783 457.105 316.721 456.446 315.5C455.787 314.28 455.457 312.852 455.457 311.216C455.457 309.653 455.799 308.176 456.482 306.785C457.19 305.393 458.179 304.16 459.449 303.086C460.743 302.012 462.293 301.169 464.1 300.559C465.906 299.949 467.92 299.644 470.142 299.644C473.316 299.644 476.026 300.205 478.272 301.328C480.518 302.451 482.239 303.953 483.436 305.833C484.632 307.688 485.23 309.751 485.23 312.021H478.455C478.455 310.923 478.125 309.861 477.466 308.835C476.832 307.786 475.892 306.919 474.646 306.235C473.426 305.552 471.924 305.21 470.142 305.21C468.262 305.21 466.736 305.503 465.564 306.089C464.417 306.65 463.575 307.371 463.038 308.25C462.525 309.128 462.269 310.056 462.269 311.033C462.269 311.765 462.391 312.424 462.635 313.01C462.903 313.572 463.367 314.097 464.026 314.585C464.686 315.049 465.613 315.488 466.81 315.903C468.006 316.318 469.532 316.733 471.387 317.148C474.634 317.881 477.308 318.76 479.407 319.785C481.507 320.811 483.069 322.068 484.095 323.557C485.12 325.046 485.633 326.853 485.633 328.977C485.633 330.71 485.267 332.297 484.534 333.738C483.826 335.178 482.789 336.423 481.421 337.473C480.079 338.499 478.467 339.304 476.587 339.89C474.732 340.452 472.645 340.732 470.325 340.732C466.834 340.732 463.88 340.11 461.463 338.865C459.046 337.62 457.215 336.008 455.97 334.031C454.725 332.053 454.102 329.966 454.102 327.769H460.914C461.011 329.624 461.548 331.101 462.525 332.2C463.501 333.274 464.698 334.043 466.114 334.507C467.53 334.946 468.934 335.166 470.325 335.166C472.181 335.166 473.731 334.922 474.976 334.434C476.246 333.945 477.21 333.274 477.869 332.419C478.528 331.565 478.858 330.588 478.858 329.49ZM518.775 330.845V300.376H525.586V340H519.104L518.775 330.845ZM520.057 322.495L522.876 322.422C522.876 325.059 522.596 327.5 522.034 329.746C521.497 331.968 520.618 333.896 519.397 335.532C518.177 337.168 516.578 338.45 514.6 339.377C512.623 340.281 510.218 340.732 507.386 340.732C505.457 340.732 503.687 340.452 502.076 339.89C500.489 339.329 499.122 338.462 497.974 337.29C496.827 336.118 495.936 334.592 495.301 332.712C494.69 330.833 494.385 328.574 494.385 325.938V300.376H501.16V326.011C501.16 327.793 501.355 329.27 501.746 330.442C502.161 331.589 502.71 332.505 503.394 333.188C504.102 333.848 504.883 334.312 505.738 334.58C506.617 334.849 507.52 334.983 508.448 334.983C511.329 334.983 513.611 334.434 515.296 333.335C516.98 332.212 518.189 330.71 518.921 328.831C519.678 326.926 520.057 324.814 520.057 322.495ZM542.688 308.835V340H535.914V300.376H542.322L542.688 308.835ZM541.077 318.687L538.257 318.577C538.282 315.867 538.685 313.364 539.466 311.069C540.247 308.75 541.346 306.736 542.762 305.027C544.178 303.318 545.862 302 547.815 301.072C549.793 300.12 551.978 299.644 554.371 299.644C556.324 299.644 558.082 299.912 559.644 300.449C561.207 300.962 562.537 301.792 563.636 302.939C564.759 304.087 565.613 305.576 566.199 307.407C566.785 309.214 567.078 311.423 567.078 314.036V340H560.267V313.962C560.267 311.887 559.961 310.227 559.351 308.982C558.741 307.712 557.85 306.797 556.678 306.235C555.506 305.649 554.065 305.356 552.356 305.356C550.672 305.356 549.134 305.71 547.742 306.418C546.375 307.126 545.191 308.103 544.19 309.348C543.213 310.593 542.444 312.021 541.883 313.633C541.346 315.22 541.077 316.904 541.077 318.687ZM584.144 308.835V340H577.369V300.376H583.777L584.144 308.835ZM582.532 318.687L579.712 318.577C579.737 315.867 580.14 313.364 580.921 311.069C581.702 308.75 582.801 306.736 584.217 305.027C585.633 303.318 587.317 302 589.271 301.072C591.248 300.12 593.433 299.644 595.826 299.644C597.779 299.644 599.537 299.912 601.099 300.449C602.662 300.962 603.992 301.792 605.091 302.939C606.214 304.087 607.068 305.576 607.654 307.407C608.24 309.214 608.533 311.423 608.533 314.036V340H601.722V313.962C601.722 311.887 601.417 310.227 600.806 308.982C600.196 307.712 599.305 306.797 598.133 306.235C596.961 305.649 595.521 305.356 593.812 305.356C592.127 305.356 590.589 305.71 589.197 306.418C587.83 307.126 586.646 308.103 585.645 309.348C584.668 310.593 583.899 312.021 583.338 313.633C582.801 315.22 582.532 316.904 582.532 318.687ZM629.957 335.898L640.979 300.376H648.23L632.337 346.116C631.971 347.092 631.482 348.142 630.872 349.265C630.286 350.413 629.529 351.499 628.602 352.524C627.674 353.55 626.551 354.38 625.232 355.015C623.938 355.674 622.388 356.003 620.582 356.003C620.044 356.003 619.361 355.93 618.531 355.784C617.701 355.637 617.115 355.515 616.773 355.417L616.736 349.924C616.932 349.949 617.237 349.973 617.652 349.998C618.091 350.046 618.396 350.071 618.567 350.071C620.105 350.071 621.412 349.863 622.486 349.448C623.56 349.058 624.463 348.386 625.196 347.434C625.953 346.506 626.6 345.225 627.137 343.589L629.957 335.898ZM621.863 300.376L632.154 331.138L633.912 338.279L629.041 340.769L614.466 300.376H621.863Z" fill="#FDF464"/>
</g>
<path d="M284.517 782.75V821H279.885V782.75H284.517ZM296.918 794.056V821H292.286V794.056H296.918ZM291.938 786.909C291.938 786.162 292.162 785.531 292.61 785.016C293.075 784.501 293.755 784.244 294.652 784.244C295.532 784.244 296.204 784.501 296.669 785.016C297.15 785.531 297.391 786.162 297.391 786.909C297.391 787.623 297.15 788.237 296.669 788.751C296.204 789.25 295.532 789.499 294.652 789.499C293.755 789.499 293.075 789.25 292.61 788.751C292.162 788.237 291.938 787.623 291.938 786.909ZM321.771 794.056H325.954V820.427C325.954 822.801 325.473 824.827 324.51 826.503C323.547 828.18 322.202 829.45 320.476 830.313C318.766 831.193 316.79 831.633 314.549 831.633C313.619 831.633 312.523 831.484 311.262 831.185C310.017 830.903 308.788 830.413 307.576 829.716C306.381 829.035 305.376 828.114 304.563 826.952L306.979 824.212C308.107 825.574 309.286 826.52 310.515 827.051C311.76 827.583 312.988 827.848 314.2 827.848C315.661 827.848 316.923 827.574 317.985 827.026C319.048 826.479 319.87 825.665 320.451 824.586C321.048 823.523 321.347 822.212 321.347 820.651V799.982L321.771 794.056ZM303.218 807.827V807.304C303.218 805.245 303.459 803.377 303.94 801.701C304.438 800.007 305.144 798.555 306.057 797.343C306.987 796.131 308.107 795.201 309.419 794.554C310.73 793.89 312.208 793.558 313.852 793.558C315.545 793.558 317.022 793.856 318.284 794.454C319.562 795.035 320.642 795.89 321.521 797.019C322.418 798.131 323.124 799.476 323.638 801.053C324.153 802.63 324.51 804.415 324.709 806.407V808.698C324.526 810.674 324.169 812.45 323.638 814.027C323.124 815.604 322.418 816.949 321.521 818.062C320.642 819.174 319.562 820.029 318.284 820.626C317.006 821.208 315.512 821.498 313.802 821.498C312.191 821.498 310.73 821.158 309.419 820.477C308.124 819.796 307.012 818.842 306.082 817.613C305.152 816.385 304.438 814.94 303.94 813.28C303.459 811.604 303.218 809.786 303.218 807.827ZM307.825 807.304V807.827C307.825 809.171 307.958 810.433 308.224 811.612C308.506 812.791 308.929 813.828 309.494 814.725C310.075 815.621 310.813 816.327 311.71 816.841C312.606 817.339 313.677 817.588 314.922 817.588C316.45 817.588 317.711 817.265 318.708 816.617C319.704 815.97 320.492 815.115 321.073 814.052C321.671 812.99 322.136 811.836 322.468 810.591V804.589C322.285 803.676 322.003 802.796 321.621 801.95C321.256 801.086 320.774 800.323 320.177 799.659C319.596 798.978 318.874 798.438 318.01 798.04C317.147 797.642 316.134 797.442 314.972 797.442C313.71 797.442 312.623 797.708 311.71 798.239C310.813 798.754 310.075 799.468 309.494 800.381C308.929 801.277 308.506 802.323 308.224 803.519C307.958 804.697 307.825 805.959 307.825 807.304ZM337.559 782.75V821H332.952V782.75H337.559ZM336.463 806.507L334.545 806.432C334.562 804.589 334.836 802.888 335.367 801.327C335.898 799.75 336.646 798.38 337.608 797.218C338.571 796.056 339.717 795.16 341.045 794.529C342.39 793.881 343.875 793.558 345.502 793.558C346.831 793.558 348.026 793.74 349.088 794.105C350.151 794.454 351.056 795.019 351.803 795.799C352.566 796.579 353.147 797.592 353.546 798.837C353.944 800.065 354.144 801.568 354.144 803.344V821H349.512V803.294C349.512 801.883 349.304 800.754 348.889 799.908C348.474 799.044 347.868 798.422 347.071 798.04C346.274 797.642 345.295 797.442 344.133 797.442C342.987 797.442 341.941 797.683 340.995 798.165C340.065 798.646 339.26 799.31 338.58 800.157C337.916 801.003 337.393 801.975 337.011 803.07C336.646 804.149 336.463 805.295 336.463 806.507ZM372.322 794.056V797.592H357.754V794.056H372.322ZM362.685 787.506H367.292V814.326C367.292 815.239 367.433 815.928 367.715 816.393C367.998 816.858 368.363 817.165 368.811 817.314C369.259 817.464 369.741 817.539 370.255 817.539C370.637 817.539 371.036 817.505 371.451 817.439C371.882 817.356 372.206 817.29 372.422 817.24L372.447 821C372.082 821.116 371.6 821.224 371.002 821.324C370.421 821.44 369.716 821.498 368.886 821.498C367.757 821.498 366.719 821.274 365.773 820.826C364.827 820.377 364.071 819.63 363.507 818.584C362.959 817.522 362.685 816.094 362.685 814.301V787.506ZM394.983 798.289V821H390.376V794.056H394.859L394.983 798.289ZM403.4 793.906L403.375 798.189C402.994 798.106 402.628 798.057 402.28 798.04C401.948 798.007 401.566 797.99 401.134 797.99C400.072 797.99 399.134 798.156 398.32 798.488C397.507 798.82 396.818 799.285 396.253 799.883C395.689 800.48 395.241 801.194 394.909 802.024C394.593 802.838 394.386 803.734 394.286 804.714L392.991 805.461C392.991 803.834 393.149 802.307 393.464 800.879C393.796 799.451 394.303 798.189 394.983 797.094C395.664 795.981 396.527 795.118 397.573 794.504C398.636 793.873 399.897 793.558 401.358 793.558C401.69 793.558 402.072 793.599 402.504 793.682C402.936 793.749 403.234 793.823 403.4 793.906ZM422.55 816.393V802.522C422.55 801.46 422.334 800.539 421.903 799.758C421.488 798.961 420.857 798.347 420.01 797.916C419.164 797.484 418.118 797.268 416.873 797.268C415.71 797.268 414.689 797.467 413.81 797.866C412.946 798.264 412.266 798.787 411.768 799.435C411.286 800.082 411.045 800.779 411.045 801.526H406.438C406.438 800.563 406.688 799.609 407.186 798.663C407.684 797.716 408.397 796.861 409.327 796.098C410.273 795.317 411.402 794.703 412.714 794.255C414.042 793.79 415.52 793.558 417.146 793.558C419.105 793.558 420.832 793.89 422.326 794.554C423.837 795.218 425.016 796.222 425.862 797.567C426.726 798.895 427.157 800.563 427.157 802.572V815.123C427.157 816.02 427.232 816.974 427.381 817.987C427.547 819 427.788 819.871 428.104 820.602V821H423.297C423.065 820.469 422.882 819.763 422.75 818.883C422.617 817.987 422.55 817.157 422.55 816.393ZM423.347 804.664L423.397 807.901H418.74C417.429 807.901 416.258 808.009 415.229 808.225C414.2 808.424 413.336 808.731 412.639 809.146C411.942 809.562 411.411 810.084 411.045 810.715C410.68 811.33 410.498 812.052 410.498 812.882C410.498 813.729 410.688 814.5 411.07 815.198C411.452 815.895 412.025 816.451 412.789 816.866C413.569 817.265 414.523 817.464 415.652 817.464C417.063 817.464 418.309 817.165 419.388 816.567C420.467 815.97 421.322 815.239 421.953 814.376C422.6 813.513 422.949 812.674 422.999 811.861L424.966 814.077C424.85 814.774 424.534 815.546 424.02 816.393C423.505 817.24 422.816 818.053 421.953 818.833C421.106 819.597 420.093 820.236 418.915 820.751C417.752 821.249 416.441 821.498 414.98 821.498C413.154 821.498 411.552 821.141 410.174 820.427C408.812 819.713 407.75 818.759 406.986 817.563C406.239 816.352 405.866 814.999 405.866 813.504C405.866 812.06 406.148 810.79 406.712 809.694C407.277 808.582 408.09 807.661 409.153 806.93C410.215 806.183 411.494 805.619 412.988 805.237C414.482 804.855 416.15 804.664 417.993 804.664H423.347ZM439.409 794.056V821H434.777V794.056H439.409ZM434.429 786.909C434.429 786.162 434.653 785.531 435.101 785.016C435.566 784.501 436.247 784.244 437.143 784.244C438.023 784.244 438.695 784.501 439.16 785.016C439.642 785.531 439.882 786.162 439.882 786.909C439.882 787.623 439.642 788.237 439.16 788.751C438.695 789.25 438.023 789.499 437.143 789.499C436.247 789.499 435.566 789.25 435.101 788.751C434.653 788.237 434.429 787.623 434.429 786.909ZM451.412 799.808V821H446.805V794.056H451.163L451.412 799.808ZM450.316 806.507L448.399 806.432C448.416 804.589 448.689 802.888 449.221 801.327C449.752 799.75 450.499 798.38 451.462 797.218C452.425 796.056 453.57 795.16 454.898 794.529C456.243 793.881 457.729 793.558 459.356 793.558C460.684 793.558 461.879 793.74 462.942 794.105C464.004 794.454 464.909 795.019 465.656 795.799C466.42 796.579 467.001 797.592 467.399 798.837C467.798 800.065 467.997 801.568 467.997 803.344V821H463.365V803.294C463.365 801.883 463.158 800.754 462.743 799.908C462.328 799.044 461.722 798.422 460.925 798.04C460.128 797.642 459.148 797.442 457.986 797.442C456.841 797.442 455.795 797.683 454.849 798.165C453.919 798.646 453.114 799.31 452.433 800.157C451.769 801.003 451.246 801.975 450.864 803.07C450.499 804.149 450.316 805.295 450.316 806.507Z" fill="#C3B3D3"/>
<path d="M253.847 894.25V925H250.123V894.25H253.847ZM263.816 903.339V925H260.093V903.339H263.816ZM259.812 897.593C259.812 896.993 259.993 896.486 260.353 896.072C260.727 895.658 261.274 895.451 261.995 895.451C262.702 895.451 263.243 895.658 263.616 896.072C264.003 896.486 264.197 896.993 264.197 897.593C264.197 898.167 264.003 898.661 263.616 899.075C263.243 899.475 262.702 899.675 261.995 899.675C261.274 899.675 260.727 899.475 260.353 899.075C259.993 898.661 259.812 898.167 259.812 897.593ZM283.796 903.339H287.159V924.54C287.159 926.448 286.772 928.076 285.998 929.424C285.224 930.772 284.143 931.793 282.755 932.487C281.38 933.195 279.792 933.548 277.99 933.548C277.243 933.548 276.362 933.428 275.348 933.188C274.347 932.961 273.359 932.567 272.385 932.007C271.424 931.46 270.616 930.719 269.962 929.785L271.904 927.583C272.812 928.677 273.759 929.438 274.747 929.865C275.748 930.292 276.736 930.505 277.71 930.505C278.884 930.505 279.899 930.285 280.753 929.845C281.607 929.404 282.268 928.75 282.735 927.883C283.215 927.029 283.456 925.974 283.456 924.72V908.104L283.796 903.339ZM268.881 914.41V913.989C268.881 912.334 269.075 910.833 269.462 909.485C269.862 908.124 270.43 906.956 271.164 905.981C271.911 905.007 272.812 904.26 273.866 903.739C274.921 903.205 276.108 902.938 277.43 902.938C278.791 902.938 279.979 903.179 280.993 903.659C282.021 904.126 282.888 904.814 283.596 905.721C284.316 906.615 284.884 907.696 285.297 908.964C285.711 910.232 285.998 911.667 286.158 913.269V915.11C286.011 916.699 285.724 918.127 285.297 919.395C284.884 920.662 284.316 921.743 283.596 922.638C282.888 923.532 282.021 924.219 280.993 924.7C279.965 925.167 278.764 925.4 277.39 925.4C276.095 925.4 274.921 925.127 273.866 924.58C272.825 924.032 271.931 923.265 271.184 922.277C270.436 921.29 269.862 920.129 269.462 918.794C269.075 917.446 268.881 915.985 268.881 914.41ZM272.585 913.989V914.41C272.585 915.491 272.692 916.505 272.905 917.453C273.132 918.4 273.472 919.234 273.926 919.955C274.393 920.676 274.987 921.243 275.708 921.657C276.429 922.057 277.29 922.257 278.291 922.257C279.518 922.257 280.533 921.997 281.333 921.477C282.134 920.956 282.768 920.269 283.235 919.415C283.716 918.56 284.09 917.633 284.356 916.632V911.807C284.21 911.073 283.983 910.366 283.676 909.685C283.382 908.991 282.995 908.377 282.515 907.843C282.048 907.296 281.467 906.862 280.773 906.542C280.079 906.222 279.265 906.062 278.331 906.062C277.316 906.062 276.442 906.275 275.708 906.702C274.987 907.116 274.393 907.69 273.926 908.424C273.472 909.145 273.132 909.985 272.905 910.946C272.692 911.894 272.585 912.908 272.585 913.989ZM296.488 894.25V925H292.785V894.25H296.488ZM295.607 913.349L294.066 913.289C294.079 911.807 294.299 910.439 294.727 909.185C295.154 907.917 295.754 906.816 296.528 905.881C297.302 904.947 298.223 904.226 299.291 903.719C300.372 903.199 301.567 902.938 302.875 902.938C303.942 902.938 304.903 903.085 305.757 903.379C306.611 903.659 307.339 904.113 307.939 904.74C308.553 905.368 309.021 906.182 309.341 907.183C309.661 908.17 309.821 909.378 309.821 910.806V925H306.098V910.766C306.098 909.632 305.931 908.724 305.597 908.043C305.264 907.349 304.776 906.849 304.136 906.542C303.495 906.222 302.708 906.062 301.773 906.062C300.853 906.062 300.012 906.255 299.251 906.642C298.504 907.029 297.856 907.563 297.309 908.244C296.775 908.924 296.355 909.705 296.048 910.586C295.754 911.453 295.607 912.374 295.607 913.349ZM324.436 903.339V906.182H312.724V903.339H324.436ZM316.688 898.074H320.392V919.635C320.392 920.369 320.505 920.923 320.732 921.296C320.959 921.67 321.252 921.917 321.613 922.037C321.973 922.157 322.36 922.217 322.774 922.217C323.081 922.217 323.401 922.191 323.735 922.137C324.082 922.07 324.342 922.017 324.516 921.977L324.536 925C324.242 925.093 323.855 925.18 323.375 925.26C322.907 925.354 322.34 925.4 321.673 925.4C320.765 925.4 319.931 925.22 319.17 924.86C318.41 924.5 317.802 923.899 317.349 923.058C316.908 922.204 316.688 921.056 316.688 919.615V898.074ZM351.562 919.254C351.562 918.721 351.442 918.227 351.202 917.773C350.975 917.306 350.501 916.885 349.78 916.512C349.073 916.125 348.005 915.791 346.577 915.511C345.376 915.257 344.288 914.957 343.314 914.61C342.353 914.263 341.532 913.842 340.852 913.349C340.184 912.855 339.67 912.274 339.31 911.607C338.95 910.94 338.77 910.159 338.77 909.265C338.77 908.41 338.956 907.603 339.33 906.842C339.717 906.082 340.258 905.408 340.952 904.82C341.659 904.233 342.507 903.773 343.494 903.439C344.482 903.105 345.583 902.938 346.797 902.938C348.532 902.938 350.014 903.245 351.242 903.859C352.47 904.473 353.41 905.294 354.064 906.322C354.718 907.336 355.045 908.464 355.045 909.705H351.342C351.342 909.104 351.162 908.524 350.801 907.963C350.454 907.389 349.94 906.916 349.26 906.542C348.592 906.168 347.772 905.981 346.797 905.981C345.77 905.981 344.936 906.142 344.295 906.462C343.668 906.769 343.207 907.163 342.914 907.643C342.633 908.124 342.493 908.631 342.493 909.165C342.493 909.565 342.56 909.925 342.693 910.246C342.84 910.553 343.094 910.84 343.454 911.106C343.814 911.36 344.322 911.6 344.976 911.827C345.63 912.054 346.464 912.281 347.478 912.508C349.253 912.908 350.715 913.389 351.862 913.949C353.01 914.51 353.864 915.197 354.425 916.011C354.985 916.825 355.266 917.813 355.266 918.974C355.266 919.922 355.065 920.789 354.665 921.577C354.278 922.364 353.711 923.045 352.963 923.619C352.229 924.179 351.348 924.62 350.321 924.94C349.306 925.247 348.165 925.4 346.897 925.4C344.989 925.4 343.374 925.06 342.053 924.379C340.731 923.699 339.73 922.818 339.05 921.737C338.369 920.656 338.029 919.515 338.029 918.313H341.752C341.806 919.328 342.099 920.135 342.633 920.736C343.167 921.323 343.821 921.743 344.595 921.997C345.369 922.237 346.137 922.357 346.897 922.357C347.912 922.357 348.759 922.224 349.44 921.957C350.134 921.69 350.661 921.323 351.021 920.856C351.382 920.389 351.562 919.855 351.562 919.254ZM363.834 894.25V925H360.13V894.25H363.834ZM362.953 913.349L361.412 913.289C361.425 911.807 361.645 910.439 362.072 909.185C362.499 907.917 363.1 906.816 363.874 905.881C364.648 904.947 365.569 904.226 366.637 903.719C367.718 903.199 368.912 902.938 370.22 902.938C371.288 902.938 372.249 903.085 373.103 903.379C373.957 903.659 374.685 904.113 375.285 904.74C375.899 905.368 376.366 906.182 376.687 907.183C377.007 908.17 377.167 909.378 377.167 910.806V925H373.443V910.766C373.443 909.632 373.277 908.724 372.943 908.043C372.609 907.349 372.122 906.849 371.481 906.542C370.841 906.222 370.053 906.062 369.119 906.062C368.198 906.062 367.357 906.255 366.597 906.642C365.849 907.029 365.202 907.563 364.655 908.244C364.121 908.924 363.701 909.705 363.394 910.586C363.1 911.453 362.953 912.374 362.953 913.349ZM381.731 914.41V913.949C381.731 912.388 381.958 910.94 382.412 909.605C382.866 908.257 383.52 907.089 384.374 906.102C385.228 905.101 386.263 904.326 387.477 903.779C388.692 903.219 390.053 902.938 391.561 902.938C393.083 902.938 394.451 903.219 395.665 903.779C396.893 904.326 397.934 905.101 398.788 906.102C399.656 907.089 400.316 908.257 400.77 909.605C401.224 910.94 401.451 912.388 401.451 913.949V914.41C401.451 915.971 401.224 917.419 400.77 918.754C400.316 920.089 399.656 921.256 398.788 922.257C397.934 923.245 396.9 924.019 395.685 924.58C394.484 925.127 393.123 925.4 391.601 925.4C390.08 925.4 388.712 925.127 387.497 924.58C386.283 924.019 385.242 923.245 384.374 922.257C383.52 921.256 382.866 920.089 382.412 918.754C381.958 917.419 381.731 915.971 381.731 914.41ZM385.435 913.949V914.41C385.435 915.491 385.562 916.512 385.815 917.473C386.069 918.42 386.449 919.261 386.957 919.995C387.477 920.729 388.124 921.31 388.898 921.737C389.673 922.151 390.573 922.357 391.601 922.357C392.615 922.357 393.503 922.151 394.264 921.737C395.038 921.31 395.678 920.729 396.186 919.995C396.693 919.261 397.073 918.42 397.327 917.473C397.594 916.512 397.727 915.491 397.727 914.41V913.949C397.727 912.882 397.594 911.874 397.327 910.926C397.073 909.965 396.686 909.118 396.166 908.384C395.658 907.636 395.018 907.049 394.244 906.622C393.483 906.195 392.589 905.981 391.561 905.981C390.547 905.981 389.653 906.195 388.878 906.622C388.118 907.049 387.477 907.636 386.957 908.384C386.449 909.118 386.069 909.965 385.815 910.926C385.562 911.874 385.435 912.882 385.435 913.949ZM411.581 921.156L417.146 903.339H419.588L419.108 906.882L413.442 925H411.06L411.581 921.156ZM407.837 903.339L412.582 921.356L412.922 925H410.419L404.133 903.339H407.837ZM424.914 921.216L429.438 903.339H433.122L426.835 925H424.353L424.914 921.216ZM420.129 903.339L425.574 920.856L426.195 925H423.833L418.007 906.842L417.526 903.339H420.129ZM445.914 925.4C444.406 925.4 443.038 925.147 441.81 924.64C440.596 924.119 439.548 923.392 438.667 922.458C437.799 921.523 437.132 920.416 436.665 919.134C436.198 917.853 435.964 916.452 435.964 914.93V914.089C435.964 912.328 436.225 910.759 436.745 909.385C437.266 907.997 437.973 906.822 438.867 905.861C439.761 904.9 440.776 904.173 441.91 903.679C443.045 903.185 444.219 902.938 445.434 902.938C446.982 902.938 448.316 903.205 449.438 903.739C450.572 904.273 451.5 905.021 452.22 905.981C452.941 906.929 453.475 908.05 453.822 909.345C454.169 910.626 454.342 912.027 454.342 913.549V915.21H438.167V912.188H450.639V911.907C450.585 910.946 450.385 910.012 450.038 909.104C449.704 908.197 449.171 907.45 448.437 906.862C447.702 906.275 446.701 905.981 445.434 905.981C444.593 905.981 443.819 906.162 443.111 906.522C442.404 906.869 441.797 907.389 441.29 908.083C440.782 908.778 440.389 909.625 440.108 910.626C439.828 911.627 439.688 912.781 439.688 914.089V914.93C439.688 915.958 439.828 916.925 440.108 917.833C440.402 918.727 440.822 919.515 441.37 920.195C441.93 920.876 442.604 921.41 443.392 921.797C444.192 922.184 445.1 922.377 446.114 922.377C447.422 922.377 448.53 922.111 449.438 921.577C450.345 921.043 451.139 920.329 451.82 919.435L454.062 921.216C453.595 921.924 453.001 922.598 452.28 923.238C451.56 923.879 450.672 924.399 449.618 924.8C448.577 925.2 447.342 925.4 445.914 925.4ZM462.37 906.742V925H458.667V903.339H462.27L462.37 906.742ZM469.137 903.219L469.117 906.662C468.81 906.595 468.516 906.555 468.236 906.542C467.969 906.515 467.662 906.502 467.315 906.502C466.461 906.502 465.707 906.635 465.053 906.902C464.399 907.169 463.845 907.543 463.391 908.023C462.937 908.504 462.577 909.078 462.31 909.745C462.056 910.399 461.89 911.12 461.81 911.907L460.769 912.508C460.769 911.2 460.895 909.972 461.149 908.824C461.416 907.676 461.823 906.662 462.37 905.781C462.917 904.887 463.611 904.193 464.452 903.699C465.306 903.192 466.321 902.938 467.495 902.938C467.762 902.938 468.069 902.972 468.416 903.039C468.763 903.092 469.003 903.152 469.137 903.219ZM485.172 919.254C485.172 918.721 485.052 918.227 484.812 917.773C484.585 917.306 484.111 916.885 483.391 916.512C482.683 916.125 481.616 915.791 480.188 915.511C478.986 915.257 477.899 914.957 476.924 914.61C475.963 914.263 475.143 913.842 474.462 913.349C473.795 912.855 473.281 912.274 472.92 911.607C472.56 910.94 472.38 910.159 472.38 909.265C472.38 908.41 472.567 907.603 472.94 906.842C473.327 906.082 473.868 905.408 474.562 904.82C475.269 904.233 476.117 903.773 477.104 903.439C478.092 903.105 479.193 902.938 480.408 902.938C482.143 902.938 483.624 903.245 484.852 903.859C486.08 904.473 487.021 905.294 487.675 906.322C488.329 907.336 488.656 908.464 488.656 909.705H484.952C484.952 909.104 484.772 908.524 484.412 907.963C484.065 907.389 483.551 906.916 482.87 906.542C482.203 906.168 481.382 905.981 480.408 905.981C479.38 905.981 478.546 906.142 477.905 906.462C477.278 906.769 476.818 907.163 476.524 907.643C476.244 908.124 476.104 908.631 476.104 909.165C476.104 909.565 476.17 909.925 476.304 910.246C476.451 910.553 476.704 910.84 477.064 911.106C477.425 911.36 477.932 911.6 478.586 911.827C479.24 912.054 480.074 912.281 481.088 912.508C482.863 912.908 484.325 913.389 485.473 913.949C486.62 914.51 487.475 915.197 488.035 916.011C488.596 916.825 488.876 917.813 488.876 918.974C488.876 919.922 488.676 920.789 488.275 921.577C487.888 922.364 487.321 923.045 486.574 923.619C485.84 924.179 484.959 924.62 483.931 924.94C482.917 925.247 481.776 925.4 480.508 925.4C478.599 925.4 476.984 925.06 475.663 924.379C474.342 923.699 473.341 922.818 472.66 921.737C471.979 920.656 471.639 919.515 471.639 918.313H475.363C475.416 919.328 475.71 920.135 476.244 920.736C476.778 921.323 477.431 921.743 478.206 921.997C478.98 922.237 479.747 922.357 480.508 922.357C481.522 922.357 482.37 922.224 483.05 921.957C483.744 921.69 484.271 921.323 484.632 920.856C484.992 920.389 485.172 919.855 485.172 919.254Z" fill="#C3B3D3"/>
<path d="M389.008 134V152H386.828V134H389.008ZM394.844 139.32V152H392.664V139.32H394.844ZM392.5 135.957C392.5 135.605 392.605 135.309 392.816 135.066C393.035 134.824 393.355 134.703 393.777 134.703C394.191 134.703 394.508 134.824 394.727 135.066C394.953 135.309 395.066 135.605 395.066 135.957C395.066 136.293 394.953 136.582 394.727 136.824C394.508 137.059 394.191 137.176 393.777 137.176C393.355 137.176 393.035 137.059 392.816 136.824C392.605 136.582 392.5 136.293 392.5 135.957ZM406.539 139.32H408.508V151.73C408.508 152.848 408.281 153.801 407.828 154.59C407.375 155.379 406.742 155.977 405.93 156.383C405.125 156.797 404.195 157.004 403.141 157.004C402.703 157.004 402.188 156.934 401.594 156.793C401.008 156.66 400.43 156.43 399.859 156.102C399.297 155.781 398.824 155.348 398.441 154.801L399.578 153.512C400.109 154.152 400.664 154.598 401.242 154.848C401.828 155.098 402.406 155.223 402.977 155.223C403.664 155.223 404.258 155.094 404.758 154.836C405.258 154.578 405.645 154.195 405.918 153.688C406.199 153.188 406.34 152.57 406.34 151.836V142.109L406.539 139.32ZM397.809 145.801V145.555C397.809 144.586 397.922 143.707 398.148 142.918C398.383 142.121 398.715 141.438 399.145 140.867C399.582 140.297 400.109 139.859 400.727 139.555C401.344 139.242 402.039 139.086 402.812 139.086C403.609 139.086 404.305 139.227 404.898 139.508C405.5 139.781 406.008 140.184 406.422 140.715C406.844 141.238 407.176 141.871 407.418 142.613C407.66 143.355 407.828 144.195 407.922 145.133V146.211C407.836 147.141 407.668 147.977 407.418 148.719C407.176 149.461 406.844 150.094 406.422 150.617C406.008 151.141 405.5 151.543 404.898 151.824C404.297 152.098 403.594 152.234 402.789 152.234C402.031 152.234 401.344 152.074 400.727 151.754C400.117 151.434 399.594 150.984 399.156 150.406C398.719 149.828 398.383 149.148 398.148 148.367C397.922 147.578 397.809 146.723 397.809 145.801ZM399.977 145.555V145.801C399.977 146.434 400.039 147.027 400.164 147.582C400.297 148.137 400.496 148.625 400.762 149.047C401.035 149.469 401.383 149.801 401.805 150.043C402.227 150.277 402.73 150.395 403.316 150.395C404.035 150.395 404.629 150.242 405.098 149.938C405.566 149.633 405.938 149.23 406.211 148.73C406.492 148.23 406.711 147.688 406.867 147.102V144.277C406.781 143.848 406.648 143.434 406.469 143.035C406.297 142.629 406.07 142.27 405.789 141.957C405.516 141.637 405.176 141.383 404.77 141.195C404.363 141.008 403.887 140.914 403.34 140.914C402.746 140.914 402.234 141.039 401.805 141.289C401.383 141.531 401.035 141.867 400.762 142.297C400.496 142.719 400.297 143.211 400.164 143.773C400.039 144.328 399.977 144.922 399.977 145.555ZM413.969 134V152H411.801V134H413.969ZM413.453 145.18L412.551 145.145C412.559 144.277 412.688 143.477 412.938 142.742C413.188 142 413.539 141.355 413.992 140.809C414.445 140.262 414.984 139.84 415.609 139.543C416.242 139.238 416.941 139.086 417.707 139.086C418.332 139.086 418.895 139.172 419.395 139.344C419.895 139.508 420.32 139.773 420.672 140.141C421.031 140.508 421.305 140.984 421.492 141.57C421.68 142.148 421.773 142.855 421.773 143.691V152H419.594V143.668C419.594 143.004 419.496 142.473 419.301 142.074C419.105 141.668 418.82 141.375 418.445 141.195C418.07 141.008 417.609 140.914 417.062 140.914C416.523 140.914 416.031 141.027 415.586 141.254C415.148 141.48 414.77 141.793 414.449 142.191C414.137 142.59 413.891 143.047 413.711 143.562C413.539 144.07 413.453 144.609 413.453 145.18ZM430.328 139.32V140.984H423.473V139.32H430.328ZM425.793 136.238H427.961V148.859C427.961 149.289 428.027 149.613 428.16 149.832C428.293 150.051 428.465 150.195 428.676 150.266C428.887 150.336 429.113 150.371 429.355 150.371C429.535 150.371 429.723 150.355 429.918 150.324C430.121 150.285 430.273 150.254 430.375 150.23L430.387 152C430.215 152.055 429.988 152.105 429.707 152.152C429.434 152.207 429.102 152.234 428.711 152.234C428.18 152.234 427.691 152.129 427.246 151.918C426.801 151.707 426.445 151.355 426.18 150.863C425.922 150.363 425.793 149.691 425.793 148.848V136.238ZM446.816 149.539V134H448.996V152H447.004L446.816 149.539ZM438.285 145.801V145.555C438.285 144.586 438.402 143.707 438.637 142.918C438.879 142.121 439.219 141.438 439.656 140.867C440.102 140.297 440.629 139.859 441.238 139.555C441.855 139.242 442.543 139.086 443.301 139.086C444.098 139.086 444.793 139.227 445.387 139.508C445.988 139.781 446.496 140.184 446.91 140.715C447.332 141.238 447.664 141.871 447.906 142.613C448.148 143.355 448.316 144.195 448.41 145.133V146.211C448.324 147.141 448.156 147.977 447.906 148.719C447.664 149.461 447.332 150.094 446.91 150.617C446.496 151.141 445.988 151.543 445.387 151.824C444.785 152.098 444.082 152.234 443.277 152.234C442.535 152.234 441.855 152.074 441.238 151.754C440.629 151.434 440.102 150.984 439.656 150.406C439.219 149.828 438.879 149.148 438.637 148.367C438.402 147.578 438.285 146.723 438.285 145.801ZM440.465 145.555V145.801C440.465 146.434 440.527 147.027 440.652 147.582C440.785 148.137 440.988 148.625 441.262 149.047C441.535 149.469 441.883 149.801 442.305 150.043C442.727 150.277 443.23 150.395 443.816 150.395C444.535 150.395 445.125 150.242 445.586 149.938C446.055 149.633 446.43 149.23 446.711 148.73C446.992 148.23 447.211 147.688 447.367 147.102V144.277C447.273 143.848 447.137 143.434 446.957 143.035C446.785 142.629 446.559 142.27 446.277 141.957C446.004 141.637 445.664 141.383 445.258 141.195C444.859 141.008 444.387 140.914 443.84 140.914C443.246 140.914 442.734 141.039 442.305 141.289C441.883 141.531 441.535 141.867 441.262 142.297C440.988 142.719 440.785 143.211 440.652 143.773C440.527 144.328 440.465 144.922 440.465 145.555ZM454.539 141.312V152H452.371V139.32H454.48L454.539 141.312ZM458.5 139.25L458.488 141.266C458.309 141.227 458.137 141.203 457.973 141.195C457.816 141.18 457.637 141.172 457.434 141.172C456.934 141.172 456.492 141.25 456.109 141.406C455.727 141.562 455.402 141.781 455.137 142.062C454.871 142.344 454.66 142.68 454.504 143.07C454.355 143.453 454.258 143.875 454.211 144.336L453.602 144.688C453.602 143.922 453.676 143.203 453.824 142.531C453.98 141.859 454.219 141.266 454.539 140.75C454.859 140.227 455.266 139.82 455.758 139.531C456.258 139.234 456.852 139.086 457.539 139.086C457.695 139.086 457.875 139.105 458.078 139.145C458.281 139.176 458.422 139.211 458.5 139.25ZM462.859 139.32V152H460.68V139.32H462.859ZM460.516 135.957C460.516 135.605 460.621 135.309 460.832 135.066C461.051 134.824 461.371 134.703 461.793 134.703C462.207 134.703 462.523 134.824 462.742 135.066C462.969 135.309 463.082 135.605 463.082 135.957C463.082 136.293 462.969 136.582 462.742 136.824C462.523 137.059 462.207 137.176 461.793 137.176C461.371 137.176 461.051 137.059 460.832 136.824C460.621 136.582 460.516 136.293 460.516 135.957ZM475.785 150.219V152H466.562V150.219H475.785ZM475.445 140.855L467.055 152H465.73V150.406L474.062 139.32H475.445V140.855ZM474.484 139.32V141.113H465.824V139.32H474.484ZM487.691 150.219V152H478.469V150.219H487.691ZM487.352 140.855L478.961 152H477.637V150.406L485.969 139.32H487.352V140.855ZM486.391 139.32V141.113H477.73V139.32H486.391ZM492.508 134V152H490.328V134H492.508ZM501.25 152.234C500.367 152.234 499.566 152.086 498.848 151.789C498.137 151.484 497.523 151.059 497.008 150.512C496.5 149.965 496.109 149.316 495.836 148.566C495.562 147.816 495.426 146.996 495.426 146.105V145.613C495.426 144.582 495.578 143.664 495.883 142.859C496.188 142.047 496.602 141.359 497.125 140.797C497.648 140.234 498.242 139.809 498.906 139.52C499.57 139.23 500.258 139.086 500.969 139.086C501.875 139.086 502.656 139.242 503.312 139.555C503.977 139.867 504.52 140.305 504.941 140.867C505.363 141.422 505.676 142.078 505.879 142.836C506.082 143.586 506.184 144.406 506.184 145.297V146.27H496.715V144.5H504.016V144.336C503.984 143.773 503.867 143.227 503.664 142.695C503.469 142.164 503.156 141.727 502.727 141.383C502.297 141.039 501.711 140.867 500.969 140.867C500.477 140.867 500.023 140.973 499.609 141.184C499.195 141.387 498.84 141.691 498.543 142.098C498.246 142.504 498.016 143 497.852 143.586C497.688 144.172 497.605 144.848 497.605 145.613V146.105C497.605 146.707 497.688 147.273 497.852 147.805C498.023 148.328 498.27 148.789 498.59 149.188C498.918 149.586 499.312 149.898 499.773 150.125C500.242 150.352 500.773 150.465 501.367 150.465C502.133 150.465 502.781 150.309 503.312 149.996C503.844 149.684 504.309 149.266 504.707 148.742L506.02 149.785C505.746 150.199 505.398 150.594 504.977 150.969C504.555 151.344 504.035 151.648 503.418 151.883C502.809 152.117 502.086 152.234 501.25 152.234Z" fill="#C3B3D3"/>
<g filter="url(#filter2_d_32_320)">
<path d="M504.801 748.434V749.82H499.088V748.434H504.801ZM501.021 745.865H502.828V756.383C502.828 756.741 502.883 757.011 502.994 757.193C503.105 757.376 503.248 757.496 503.424 757.555C503.6 757.613 503.788 757.643 503.99 757.643C504.14 757.643 504.296 757.63 504.459 757.604C504.628 757.571 504.755 757.545 504.84 757.525L504.85 759C504.706 759.046 504.518 759.088 504.283 759.127C504.055 759.173 503.779 759.195 503.453 759.195C503.01 759.195 502.604 759.107 502.232 758.932C501.861 758.756 501.565 758.463 501.344 758.053C501.129 757.636 501.021 757.076 501.021 756.373V745.865ZM508.727 744V759H506.92V744H508.727ZM508.297 753.316L507.545 753.287C507.551 752.564 507.659 751.897 507.867 751.285C508.076 750.667 508.368 750.13 508.746 749.674C509.124 749.218 509.573 748.867 510.094 748.619C510.621 748.365 511.204 748.238 511.842 748.238C512.363 748.238 512.831 748.31 513.248 748.453C513.665 748.59 514.02 748.811 514.312 749.117C514.612 749.423 514.84 749.82 514.996 750.309C515.152 750.79 515.23 751.38 515.23 752.076V759H513.414V752.057C513.414 751.503 513.333 751.061 513.17 750.729C513.007 750.39 512.77 750.146 512.457 749.996C512.145 749.84 511.76 749.762 511.305 749.762C510.855 749.762 510.445 749.856 510.074 750.045C509.71 750.234 509.394 750.494 509.127 750.826C508.867 751.158 508.661 751.539 508.512 751.969C508.368 752.392 508.297 752.841 508.297 753.316ZM524.4 756.559V748.434H526.217V759H524.488L524.4 756.559ZM524.742 754.332L525.494 754.312C525.494 755.016 525.419 755.667 525.27 756.266C525.126 756.858 524.892 757.372 524.566 757.809C524.241 758.245 523.814 758.587 523.287 758.834C522.76 759.075 522.118 759.195 521.363 759.195C520.849 759.195 520.377 759.12 519.947 758.971C519.524 758.821 519.16 758.59 518.854 758.277C518.548 757.965 518.31 757.558 518.141 757.057C517.978 756.555 517.896 755.953 517.896 755.25V748.434H519.703V755.27C519.703 755.745 519.755 756.139 519.859 756.451C519.97 756.757 520.117 757.001 520.299 757.184C520.488 757.359 520.696 757.483 520.924 757.555C521.158 757.626 521.399 757.662 521.646 757.662C522.415 757.662 523.023 757.516 523.473 757.223C523.922 756.923 524.244 756.523 524.439 756.021C524.641 755.514 524.742 754.951 524.742 754.332ZM530.777 750.689V759H528.971V748.434H530.68L530.777 750.689ZM530.348 753.316L529.596 753.287C529.602 752.564 529.71 751.897 529.918 751.285C530.126 750.667 530.419 750.13 530.797 749.674C531.174 749.218 531.624 748.867 532.145 748.619C532.672 748.365 533.255 748.238 533.893 748.238C534.413 748.238 534.882 748.31 535.299 748.453C535.715 748.59 536.07 748.811 536.363 749.117C536.663 749.423 536.891 749.82 537.047 750.309C537.203 750.79 537.281 751.38 537.281 752.076V759H535.465V752.057C535.465 751.503 535.383 751.061 535.221 750.729C535.058 750.39 534.82 750.146 534.508 749.996C534.195 749.84 533.811 749.762 533.355 749.762C532.906 749.762 532.496 749.856 532.125 750.045C531.76 750.234 531.445 750.494 531.178 750.826C530.917 751.158 530.712 751.539 530.562 751.969C530.419 752.392 530.348 752.841 530.348 753.316ZM546.686 756.949V744H548.502V759H546.842L546.686 756.949ZM539.576 753.834V753.629C539.576 752.822 539.674 752.089 539.869 751.432C540.071 750.768 540.354 750.198 540.719 749.723C541.09 749.247 541.529 748.883 542.037 748.629C542.551 748.368 543.124 748.238 543.756 748.238C544.42 748.238 544.999 748.355 545.494 748.59C545.995 748.818 546.419 749.153 546.764 749.596C547.115 750.032 547.392 750.559 547.594 751.178C547.796 751.796 547.936 752.496 548.014 753.277V754.176C547.942 754.951 547.802 755.647 547.594 756.266C547.392 756.884 547.115 757.411 546.764 757.848C546.419 758.284 545.995 758.619 545.494 758.854C544.993 759.081 544.407 759.195 543.736 759.195C543.118 759.195 542.551 759.062 542.037 758.795C541.529 758.528 541.09 758.154 540.719 757.672C540.354 757.19 540.071 756.624 539.869 755.973C539.674 755.315 539.576 754.602 539.576 753.834ZM541.393 753.629V753.834C541.393 754.361 541.445 754.856 541.549 755.318C541.66 755.781 541.829 756.188 542.057 756.539C542.285 756.891 542.574 757.167 542.926 757.369C543.277 757.564 543.697 757.662 544.186 757.662C544.785 757.662 545.276 757.535 545.66 757.281C546.051 757.027 546.363 756.692 546.598 756.275C546.832 755.859 547.014 755.406 547.145 754.918V752.564C547.066 752.206 546.952 751.861 546.803 751.529C546.66 751.191 546.471 750.891 546.236 750.631C546.008 750.364 545.725 750.152 545.387 749.996C545.055 749.84 544.661 749.762 544.205 749.762C543.71 749.762 543.284 749.866 542.926 750.074C542.574 750.276 542.285 750.556 542.057 750.914C541.829 751.266 541.66 751.676 541.549 752.145C541.445 752.607 541.393 753.102 541.393 753.629ZM555.699 759.195C554.964 759.195 554.296 759.072 553.697 758.824C553.105 758.57 552.594 758.215 552.164 757.76C551.741 757.304 551.415 756.764 551.188 756.139C550.96 755.514 550.846 754.83 550.846 754.088V753.678C550.846 752.818 550.973 752.053 551.227 751.383C551.48 750.706 551.826 750.133 552.262 749.664C552.698 749.195 553.193 748.84 553.746 748.6C554.299 748.359 554.872 748.238 555.465 748.238C556.22 748.238 556.871 748.368 557.418 748.629C557.971 748.889 558.424 749.254 558.775 749.723C559.127 750.185 559.387 750.732 559.557 751.363C559.726 751.988 559.811 752.672 559.811 753.414V754.225H551.92V752.75H558.004V752.613C557.978 752.145 557.88 751.689 557.711 751.246C557.548 750.803 557.288 750.439 556.93 750.152C556.572 749.866 556.083 749.723 555.465 749.723C555.055 749.723 554.677 749.811 554.332 749.986C553.987 750.156 553.691 750.41 553.443 750.748C553.196 751.087 553.004 751.5 552.867 751.988C552.73 752.477 552.662 753.04 552.662 753.678V754.088C552.662 754.589 552.73 755.061 552.867 755.504C553.01 755.94 553.215 756.324 553.482 756.656C553.756 756.988 554.085 757.249 554.469 757.438C554.859 757.626 555.302 757.721 555.797 757.721C556.435 757.721 556.975 757.59 557.418 757.33C557.861 757.07 558.248 756.721 558.58 756.285L559.674 757.154C559.446 757.499 559.156 757.828 558.805 758.141C558.453 758.453 558.02 758.707 557.506 758.902C556.998 759.098 556.396 759.195 555.699 759.195ZM563.727 750.094V759H561.92V748.434H563.678L563.727 750.094ZM567.027 748.375L567.018 750.055C566.868 750.022 566.725 750.003 566.588 749.996C566.458 749.983 566.308 749.977 566.139 749.977C565.722 749.977 565.354 750.042 565.035 750.172C564.716 750.302 564.446 750.484 564.225 750.719C564.003 750.953 563.827 751.233 563.697 751.559C563.574 751.878 563.492 752.229 563.453 752.613L562.945 752.906C562.945 752.268 563.007 751.669 563.131 751.109C563.261 750.549 563.46 750.055 563.727 749.625C563.993 749.189 564.332 748.85 564.742 748.609C565.159 748.362 565.654 748.238 566.227 748.238C566.357 748.238 566.507 748.255 566.676 748.287C566.845 748.313 566.962 748.342 567.027 748.375ZM574.85 756.197C574.85 755.937 574.791 755.696 574.674 755.475C574.563 755.247 574.332 755.042 573.98 754.859C573.635 754.671 573.115 754.508 572.418 754.371C571.832 754.247 571.301 754.101 570.826 753.932C570.357 753.762 569.957 753.557 569.625 753.316C569.299 753.076 569.049 752.792 568.873 752.467C568.697 752.141 568.609 751.76 568.609 751.324C568.609 750.908 568.701 750.514 568.883 750.143C569.072 749.771 569.335 749.443 569.674 749.156C570.019 748.87 570.432 748.645 570.914 748.482C571.396 748.32 571.933 748.238 572.525 748.238C573.372 748.238 574.094 748.388 574.693 748.688C575.292 748.987 575.751 749.387 576.07 749.889C576.389 750.383 576.549 750.934 576.549 751.539H574.742C574.742 751.246 574.654 750.963 574.479 750.689C574.309 750.41 574.059 750.178 573.727 749.996C573.401 749.814 573.001 749.723 572.525 749.723C572.024 749.723 571.617 749.801 571.305 749.957C570.999 750.107 570.774 750.299 570.631 750.533C570.494 750.768 570.426 751.015 570.426 751.275C570.426 751.471 570.458 751.646 570.523 751.803C570.595 751.952 570.719 752.092 570.895 752.223C571.07 752.346 571.318 752.464 571.637 752.574C571.956 752.685 572.363 752.796 572.857 752.906C573.723 753.102 574.436 753.336 574.996 753.609C575.556 753.883 575.973 754.218 576.246 754.615C576.52 755.012 576.656 755.494 576.656 756.061C576.656 756.523 576.559 756.946 576.363 757.33C576.174 757.714 575.898 758.046 575.533 758.326C575.175 758.6 574.745 758.814 574.244 758.971C573.749 759.12 573.193 759.195 572.574 759.195C571.643 759.195 570.855 759.029 570.211 758.697C569.566 758.365 569.078 757.936 568.746 757.408C568.414 756.881 568.248 756.324 568.248 755.738H570.064C570.09 756.233 570.234 756.627 570.494 756.92C570.755 757.206 571.074 757.411 571.451 757.535C571.829 757.652 572.203 757.711 572.574 757.711C573.069 757.711 573.482 757.646 573.814 757.516C574.153 757.385 574.41 757.206 574.586 756.979C574.762 756.751 574.85 756.49 574.85 756.197ZM583.453 748.434V749.82H577.74V748.434H583.453ZM579.674 745.865H581.48V756.383C581.48 756.741 581.536 757.011 581.646 757.193C581.757 757.376 581.9 757.496 582.076 757.555C582.252 757.613 582.441 757.643 582.643 757.643C582.792 757.643 582.949 757.63 583.111 757.604C583.281 757.571 583.408 757.545 583.492 757.525L583.502 759C583.359 759.046 583.17 759.088 582.936 759.127C582.708 759.173 582.431 759.195 582.105 759.195C581.663 759.195 581.256 759.107 580.885 758.932C580.514 758.756 580.217 758.463 579.996 758.053C579.781 757.636 579.674 757.076 579.674 756.373V745.865ZM584.898 753.834V753.609C584.898 752.848 585.009 752.141 585.23 751.49C585.452 750.833 585.771 750.263 586.188 749.781C586.604 749.293 587.109 748.915 587.701 748.648C588.294 748.375 588.958 748.238 589.693 748.238C590.436 748.238 591.103 748.375 591.695 748.648C592.294 748.915 592.802 749.293 593.219 749.781C593.642 750.263 593.964 750.833 594.186 751.49C594.407 752.141 594.518 752.848 594.518 753.609V753.834C594.518 754.596 594.407 755.302 594.186 755.953C593.964 756.604 593.642 757.174 593.219 757.662C592.802 758.144 592.298 758.521 591.705 758.795C591.119 759.062 590.455 759.195 589.713 759.195C588.971 759.195 588.303 759.062 587.711 758.795C587.118 758.521 586.611 758.144 586.188 757.662C585.771 757.174 585.452 756.604 585.23 755.953C585.009 755.302 584.898 754.596 584.898 753.834ZM586.705 753.609V753.834C586.705 754.361 586.767 754.859 586.891 755.328C587.014 755.79 587.2 756.201 587.447 756.559C587.701 756.917 588.017 757.2 588.395 757.408C588.772 757.61 589.212 757.711 589.713 757.711C590.208 757.711 590.641 757.61 591.012 757.408C591.389 757.2 591.702 756.917 591.949 756.559C592.197 756.201 592.382 755.79 592.506 755.328C592.636 754.859 592.701 754.361 592.701 753.834V753.609C592.701 753.089 592.636 752.597 592.506 752.135C592.382 751.666 592.193 751.253 591.939 750.895C591.692 750.53 591.38 750.243 591.002 750.035C590.631 749.827 590.195 749.723 589.693 749.723C589.199 749.723 588.762 749.827 588.385 750.035C588.014 750.243 587.701 750.53 587.447 750.895C587.2 751.253 587.014 751.666 586.891 752.135C586.767 752.597 586.705 753.089 586.705 753.609ZM598.59 750.094V759H596.783V748.434H598.541L598.59 750.094ZM601.891 748.375L601.881 750.055C601.731 750.022 601.588 750.003 601.451 749.996C601.321 749.983 601.171 749.977 601.002 749.977C600.585 749.977 600.217 750.042 599.898 750.172C599.579 750.302 599.309 750.484 599.088 750.719C598.867 750.953 598.691 751.233 598.561 751.559C598.437 751.878 598.355 752.229 598.316 752.613L597.809 752.906C597.809 752.268 597.87 751.669 597.994 751.109C598.124 750.549 598.323 750.055 598.59 749.625C598.857 749.189 599.195 748.85 599.605 748.609C600.022 748.362 600.517 748.238 601.09 748.238C601.22 748.238 601.37 748.255 601.539 748.287C601.708 748.313 601.826 748.342 601.891 748.375ZM605.357 750.533V759H603.541V748.434H605.26L605.357 750.533ZM604.986 753.316L604.146 753.287C604.153 752.564 604.247 751.897 604.43 751.285C604.612 750.667 604.882 750.13 605.24 749.674C605.598 749.218 606.044 748.867 606.578 748.619C607.112 748.365 607.73 748.238 608.434 748.238C608.928 748.238 609.384 748.31 609.801 748.453C610.217 748.59 610.579 748.808 610.885 749.107C611.191 749.407 611.428 749.791 611.598 750.26C611.767 750.729 611.852 751.295 611.852 751.959V759H610.045V752.047C610.045 751.493 609.951 751.051 609.762 750.719C609.579 750.387 609.319 750.146 608.98 749.996C608.642 749.84 608.245 749.762 607.789 749.762C607.255 749.762 606.809 749.856 606.451 750.045C606.093 750.234 605.807 750.494 605.592 750.826C605.377 751.158 605.221 751.539 605.123 751.969C605.032 752.392 604.986 752.841 604.986 753.316ZM611.832 752.32L610.621 752.691C610.628 752.112 610.722 751.555 610.904 751.021C611.093 750.488 611.363 750.012 611.715 749.596C612.073 749.179 612.512 748.85 613.033 748.609C613.554 748.362 614.15 748.238 614.82 748.238C615.387 748.238 615.888 748.313 616.324 748.463C616.767 748.613 617.138 748.844 617.438 749.156C617.743 749.462 617.975 749.856 618.131 750.338C618.287 750.82 618.365 751.393 618.365 752.057V759H616.549V752.037C616.549 751.445 616.454 750.986 616.266 750.66C616.083 750.328 615.823 750.097 615.484 749.967C615.152 749.83 614.755 749.762 614.293 749.762C613.896 749.762 613.544 749.83 613.238 749.967C612.932 750.104 612.675 750.292 612.467 750.533C612.258 750.768 612.099 751.038 611.988 751.344C611.884 751.65 611.832 751.975 611.832 752.32Z" fill="#C3B3D3"/>
</g>
<g filter="url(#filter3_d_32_320)">
<path d="M877.88 451.259C878.358 455.649 885.143 464.508 882.311 468.507C881.107 470.154 876.309 471.272 874.313 470.592C872.053 469.814 871.543 466.68 868.969 467.375C867.795 467.694 864.882 470.896 864.481 472.198C863.493 475.673 867.23 476.454 869.433 478.195C873.17 481.025 875.074 487.315 869.649 489.533C867.302 490.495 866.468 489.579 864.265 489.317C861.887 488.972 860.101 490.1 858.227 491.488C856.318 492.914 854.928 495.323 852.843 496.435C850.413 497.685 847.494 497.567 845.066 498.606C843.805 499.131 840.335 500.995 840.983 502.827C841.545 504.299 845.904 504.998 847.207 505.694C851.422 507.908 849.035 511.861 850.377 515.334C849.292 515.118 848.257 515.015 847.175 515.067C845.96 521.026 857.466 524.182 860.774 526.761C866.766 531.367 871.203 541.924 871.856 549.264C872.119 552.784 870.291 554.74 869.947 558.174C869.566 561.643 870.292 565.107 870.292 568.596C870.292 572.379 870.771 578.128 868.507 581.284C866.422 584.192 861.954 585.278 858.691 585.885C854.825 586.627 853.004 587.233 850.002 589.53C846.754 592.052 846.151 592.186 843.892 588.129C840.751 582.611 843.243 576.229 840.705 570.752C839.053 567.149 833.231 556.242 829.062 556.33C831.373 561.426 836.006 566.985 836.274 572.493C836.536 579.354 832.485 582.138 827.152 585.526C824.892 586.93 822.762 589.216 819.997 588.882C816.435 588.449 815.004 584.713 813.074 581.964C810.114 577.795 803.052 570.059 797.22 571.191C796.35 576.488 800.52 583.137 802.517 587.78C805.699 595.125 809.395 599.423 814.815 605.023C818.886 609.233 826.339 613.928 827.42 620.14C828.887 628.783 813.692 632.086 808.833 636.997C806.83 638.995 804.566 647.281 802.404 647.77C800.495 648.202 793.237 640.25 791.568 638.644C785.185 632.52 779.055 627.325 772.075 622.4C773.501 626.61 776.285 631.433 779.158 634.691C782.149 638.042 787.929 640.383 789.401 644.6C791.234 649.768 789.936 655.692 784.052 653.694C777.828 651.605 777.494 646.483 771.858 652.217C766.206 657.952 762.428 664.468 760.956 672.285C760.648 673.762 760.781 678.627 759.304 679.497C757.09 680.799 754.614 677.067 754.1 677.325C751.187 678.951 749.401 683.064 746.791 685.406C743.404 688.376 739.198 700.482 735.06 700.57C730.113 700.673 727.375 693.92 723.978 700.673C722.023 704.523 724.194 711.095 724.246 715.27C724.246 720.478 723.546 725.997 717.292 727.658C710.687 729.341 711.038 723.921 708.084 719.968C704.738 715.583 698.489 713.458 693.27 716.324C687.696 719.366 690.521 723.447 693.141 728.27C698.659 738.487 704.522 748.822 711.213 758.292C717.391 767.022 721.466 776.534 727.458 785.181C732.384 792.176 740.29 801.054 725.852 801.054C720.421 801.054 715.51 800.56 710.647 802.572C705.077 804.873 701.123 809.479 696.306 812.851C692.039 815.821 685.213 817.247 682.002 821.627C679.088 825.642 680.061 831.592 685.652 831.968C690.037 832.318 694.547 827.027 699.73 826.589C708.764 825.76 718.195 826.589 727.305 826.589C732.824 826.543 741.476 825.631 745.244 829.935C750.334 835.715 748.935 845.577 751.024 852.567C753.773 861.821 758.674 870.247 762.117 879.254C767.331 892.725 770.358 907.234 776.108 920.833C779.057 927.91 781.786 934.906 783.916 942.209C785.698 948.33 788.95 953.909 788.256 960.513C787.294 970.025 773.529 972.269 765.314 975.414C752.023 980.443 738.378 981.843 725.175 987.314C715.703 991.267 702.752 1003.43 694.146 995.091C690.625 991.621 688.505 987.401 685.117 983.983C680.721 979.536 675.151 977.811 669.458 975.429C665.243 973.643 653.049 969.777 655.735 962.916C657.691 957.832 665.289 960.481 668.254 962.644C672.815 966 673.551 970.895 679.63 972.17C684.107 973.035 689.153 972.34 691.443 968.212C698.388 955.818 684.839 950.923 680.577 942.404C678.312 937.855 680.912 928.59 675.266 927.076C670.576 925.826 667.457 931.343 663.895 933.587C650.337 942.1 652.56 922.335 642.26 924.981C642.142 929.464 649.313 930.673 648.082 935.671C643.167 936.911 641.642 938.188 638.004 941.838C634.653 945.183 630.489 948.184 626.263 944.489C624.482 942.868 622.871 934.236 618.238 938.446C615.587 940.835 618.5 947.757 619.803 949.878C624.148 956.909 632.873 958.865 626.32 968.212C619.232 978.383 615.448 965.345 607.507 966.781C607.393 969.607 607.466 972.525 607.336 975.341C602.035 976.164 598.128 972.643 593.752 970.43C587.137 966.997 580.482 963.347 573.708 960.305C562.327 955.169 547.384 944.493 536.698 954.138C526.486 963.289 514.585 963.999 500.99 963.999C497.516 963.999 477.369 965.508 488.364 968.333C494.963 970.021 504.557 968.333 511.475 968.333C517.735 968.333 521.987 968.066 524.901 974.19C526.944 978.364 528.462 985.442 528.73 990.048C529.162 998.489 515.517 1014.03 513.951 999.91C502.437 999.307 489.703 1002.34 478.327 1004.29C468.249 1006.03 458.215 1008.25 448.003 1009.66C439.268 1010.83 430.451 1010.35 421.622 1010.25C413.891 1010.13 406.509 1012.85 398.865 1014.33C381.626 1017.64 364.151 1019.63 346.866 1022.63C334.45 1024.8 321.963 1025.58 309.856 1029.28C298.169 1032.84 287.913 1038.05 275.621 1039.88C256.031 1042.74 236.563 1044.59 216.575 1043.83C209.322 1043.53 202.161 1042.53 195.772 1038.79C190.728 1035.81 187.95 1030.55 182.916 1027.41C175.993 1023.03 168.967 1023.46 161.02 1022.11C155.892 1021.24 151.291 1020.98 150.205 1015.03C149.768 1012.68 151.379 1009.99 150.769 1007.43C150.162 1004.83 148.123 1003.17 146.942 1000.92C144.512 996.059 145.514 992.801 149.073 988.713C152.635 984.647 158.627 980.55 163.671 978.636C168.585 976.773 173.665 978.549 177.229 974.745C179.052 972.83 177.486 971.049 180.57 969.433C182.621 968.399 186 968.569 187.876 969.773C188.954 970.515 187.876 973.17 189.269 974.205C190.396 975.034 193.485 975.29 194.788 975.425C197.696 975.728 200.697 975.25 203.564 975.508C210.126 976.121 217.724 976.64 224.072 978.813C229.07 980.465 233.159 983.676 238.199 985.201C240.719 985.952 245.19 987.326 247.971 986.24C250.018 985.504 250.318 983.497 251.619 982.838C257.911 979.852 259.268 988.196 265.263 986.704C265.916 978.191 259.917 977.321 254.314 973.368C249.839 970.198 249.013 957.51 245.795 956.908C243.275 956.424 238.326 959.986 235.021 960.161C227.425 960.593 219.681 959.641 213.772 955.298C209.263 951.993 202.304 945.22 203.436 939.008C204.613 932.446 213.389 932.012 218.555 930.783C219.551 925.585 214.123 922.933 215.381 917.843C216.774 912.274 224.063 911.333 222.899 903.771C219.118 903.426 210.3 910.493 207.861 904.249C205.774 898.891 214.506 898.892 215.376 894.99C217.332 886.266 197.949 881.298 197.914 894.388C189.394 892.298 181.879 878.009 176.84 871.54C158.201 847.904 129.307 846.123 102.032 840.286C94.6469 838.68 86.6918 838.423 79.6142 835.159C74.5265 832.823 70.1845 828.993 65.0546 826.605C60.1434 824.269 55.8951 820.392 51.2396 817.999C44.8565 814.741 43.8603 818.175 43.6837 823.816C39.7714 822.204 40.4974 817.748 40.4974 814.082C40.4974 808.925 40.0244 805.522 37.6301 800.916C33.1208 792.243 29.5075 783.498 25.6031 774.244C18.8735 758.216 10.5296 741.055 10.096 723.231C9.87994 713.972 10.096 704.676 10.096 695.436C10.096 686.923 9.79033 678.585 12.6564 670.458C16.0047 661.034 20.9054 652.088 25.1208 643.003C29.4245 633.707 30.9426 623.886 36.597 615.245C41.8982 607.118 43.2014 597.087 49.3697 589.351C52.6258 585.222 54.6709 584.528 59.536 584.647C61.3175 584.703 75.1735 589.598 75.1735 589.737C76.8259 578.691 61.4071 581.183 60.5757 570.785C60.3161 567.223 61.9237 562.55 64.3536 560.068C69.2595 555.076 72.6975 555.508 76.7772 559.971C79.9872 563.446 82.4157 568.134 88.2889 566.451C93.938 564.799 90.6819 562.374 90.0283 557.768C89.5065 554.16 88.899 547.118 93.1579 545.348C96.7685 543.917 101.591 549.903 104.626 547.402C109.544 543.346 100.235 537.226 97.6382 536.021C91.6386 533.324 90.6924 532.716 94.8117 526.16C100.415 517.384 109.232 510.04 116.917 502.915C119.133 500.871 124.391 492.317 127.432 493.146C131.264 494.221 128.998 504.789 135.56 500.347C139.647 497.577 135.817 490.876 142.164 495.303C148.547 499.791 148.164 504.084 157.72 501.783C158.247 491.396 153.113 492.441 145.302 487.613C137.223 482.585 143.395 477.334 149.128 472.938C156.044 467.689 164.941 463.52 172.073 468.723C177.495 472.676 180.754 479.594 188.66 476.289C195.36 473.51 188.66 472.722 186.705 468.167C184.661 463.304 188.007 459.351 192.481 462.351C196.266 464.909 196.482 471.251 201.785 471.436C206.13 471.606 211.258 466.521 208.911 462.234C206.608 458.059 196.614 458.656 198.529 451.368C199.615 447.24 201.527 448.584 204.569 449.057C208.407 449.711 214.784 452.46 218.215 449.443C219.684 448.085 220.598 444.307 219.9 442.407C219.246 440.569 213.295 437.852 213.295 438.716C212.521 433.58 216.206 428.464 215.82 422.626C209.477 425.457 210.031 434.445 203.307 437.1C196.314 439.921 191.532 438.839 186.967 446.302C186.057 447.825 184.666 454.821 181.666 452.911C179.71 451.604 181.707 445.757 182.23 444.306C184.569 437.877 191.181 432.622 187.053 425.365C184.229 425.241 183.275 427.495 181.576 429.58C178.32 433.63 176.659 438.458 173.575 442.653C170.149 447.348 164.362 450.473 159.976 454.034C154.025 458.903 145.162 468.806 136.602 466.449C132.298 465.245 128.606 460.849 126.307 457.195C123.309 452.419 124.783 450.04 125.221 444.801C125.653 439.819 124.31 434.682 122.091 430.564C120.094 426.873 114.879 422.92 116.048 418.262C124.305 416.75 129.738 426.117 130.657 432.9C131.609 440.25 128.567 448.62 137.693 451.893C150.031 456.37 153.638 445.232 152.204 435.082C150.249 421.319 141.994 417.875 131.663 410.068C126.967 406.558 121.585 403.943 117.195 400.294C108.851 393.381 109.672 383.658 112.853 374.305C116.487 363.697 128.969 357.5 138.092 351.406C150.127 343.413 161.992 336.201 173.329 327.137C184.499 318.146 191.625 305.674 199.099 293.774C207.565 280.217 213.345 267.705 214.864 251.939C215.566 244.887 216.603 239.807 220.294 233.683C223.377 228.52 228.159 225.339 231.546 220.533C234.155 216.836 234.292 211.006 238.678 208.755C244.024 205.976 248.539 208.887 252.709 210.883C262.702 215.662 279.822 213.707 290.988 212.93C303.069 212.147 316.4 204.802 324.441 195.681C326.49 193.337 329.871 184.128 332.655 183.601C336.444 182.865 340.011 192.377 341.385 195.112C344.134 200.674 344.258 205.8 345.076 211.837C345.555 215.399 351.516 229.296 357.714 223.742C361.281 220.53 355.932 209.016 354.285 205.754C351.463 200.151 347.639 195.239 345.606 189.288C343.815 184.123 343.12 176.735 344.083 171.132C345.874 161.013 353.39 150.804 357.517 141.464C362.675 129.953 366.118 117.697 372.768 106.924C379.063 96.6742 384.844 87.813 384.844 75.6919C384.844 64.9596 380.454 56.9233 378.456 46.801C376.984 39.0295 376.5 29.6847 376.674 20.4321C380.504 20.0842 385.275 16.3473 388.626 15.0047C393.66 13.0493 397.933 11.7053 402.493 8.5732C412.448 1.71218 423.998 -2.67824 435.9 1.84395C445.926 5.6243 455.285 12.4445 464.612 17.7454C468.519 19.9591 472.745 22.4376 476.137 25.3456C479.874 28.5186 482.045 33.9486 484.521 38.0741C488.691 45.2 492.428 52.9308 497.513 59.4531C499.943 62.5773 502.768 63.754 506.289 65.2284C510.72 67.0969 515.06 69.1405 519.801 69.8784C523.368 70.4424 527.018 70.4002 530.529 71.399C536.489 73.0922 541.395 77.0043 545.162 81.8678C553.238 92.1665 556.718 105.545 560.064 117.972C560.496 119.532 560.888 121.144 561.32 122.705C562.144 125.656 561.701 127.311 561.32 130.089C560.759 134.173 562.668 133.694 565.222 135.392C567.347 136.782 567.878 140.256 566.359 142.343C564.269 145.251 559.528 144.209 557.532 146.99C556.327 148.64 556.327 152.161 557.532 153.77C558.963 155.722 561.927 155.983 563.482 157.812C565.321 159.897 566.04 162.419 568.141 164.416C569.788 166.022 572.572 167.283 573.617 169.455C574.744 171.756 573.298 174.756 574.095 177.145C574.79 179.229 578.651 179.921 579.007 182.008C579.49 184.875 574.616 185.001 572.747 185.74C569.134 187.214 570.528 189.129 573.571 190.819C578.049 193.339 581.596 196.728 585.693 199.727C587.556 201.072 589.116 202.503 590.85 203.985C593.378 206.157 596.105 205.203 598.711 206.464C600.714 207.424 602.983 210.333 604.667 211.85C607.318 214.286 608.795 216.894 610.967 219.756C614.442 224.317 615.831 223.318 621.045 223.58C622.219 228.141 613.659 227.204 611.831 228.886C608.923 231.589 613.999 233.498 616.13 233.874C618.214 234.265 621.117 233.714 622.956 235.006C623.944 235.711 626.26 238.748 626.198 239.828C626.111 242.052 622.158 242.742 620.423 244.126C619.162 245.12 615.641 246.942 616.078 248.342C617.046 251.306 626.156 251.955 628.689 252.948C632.251 254.344 633.99 257.117 636.595 259.675C641.315 264.327 648.11 266.938 652.716 271.626C657.58 276.567 643.029 277.92 644.46 284.314C647.548 285.996 651.162 286.625 654.281 288.426C656.762 289.903 659.32 291.134 661.796 292.554C663.886 293.769 665.63 295.684 667.323 297.331C670.618 300.589 667.874 299.38 665.676 301.5C663.416 303.713 665.584 306.498 667.499 307.975C670.062 309.978 670.757 310.281 671.586 313.394C672.359 316.431 672.399 316.431 670.403 318.778C668.448 321.084 668.448 322.201 670.835 323.766C672.019 324.511 674.089 324.686 674.918 325.82C675.663 326.813 675.134 328.209 675.447 329.335C676.137 332.162 677.753 335.332 679.447 337.838C681.491 340.721 684.532 342.666 686.53 345.657C688.182 348.046 689.181 350.65 690.658 352.961C695.353 353.49 695.132 345.703 696.294 342.965C697.045 341.272 698.605 340.624 699.815 339.187C700.895 337.926 701.246 335.321 703.028 335.105C704.067 338.672 705.674 342.666 707.413 345.976C708.196 347.453 708.458 349.151 710.326 348.457C712.06 347.804 713.945 343.594 715.845 342.373C718.403 340.808 721.146 340.073 723.921 338.987C727.834 337.469 728.441 334.597 730.917 331.642C733.882 328.024 737.913 325.6 741.788 323.078C745.577 320.648 748.347 317.988 751.599 314.996C754.08 312.742 757.07 311.003 759.773 309.046C765.559 304.836 768.76 298.88 773.682 293.79C777.419 289.961 782.066 286.656 786.581 283.794C792.047 280.274 799.043 278.926 805.137 276.923C808.221 275.888 812.22 273.356 815.519 273.448C820.558 273.546 820.126 277.931 820.126 281.884C820.126 286.439 819.91 290.999 820.558 295.528C821.428 301.39 823.961 306.996 825.217 312.858C826.729 319.724 827.121 326.72 829.078 333.539C830.812 339.546 831.198 345.454 831.986 351.621C832.161 352.912 832.423 355.398 833.206 356.438C834.235 357.833 834.159 357.478 836.073 357.648C838.941 357.91 841.061 356.999 842.575 360.083C843.666 362.254 843.183 365.24 843.183 367.68C843.224 371.509 843.925 370.64 846.704 371.808C852.438 374.145 852.134 383.235 852.438 388.366C852.608 392.479 853.437 395.922 855.095 399.658C857.139 404.265 857.838 410.215 858.276 415.167C858.579 418.38 860.01 425.627 864.092 420.767C865.497 419.156 866.404 415.723 868.262 414.73C871.257 413.109 871.88 416.814 871.999 419.239C872.128 422.363 870.825 424.704 870.867 427.665C870.97 430.414 872.215 433.27 873.394 435.7C874.47 437.919 875.994 440.183 876.859 442.648C877.792 445.438 877.575 448.392 877.88 451.259Z" stroke="black" stroke-miterlimit="10" shape-rendering="crispEdges"/>
</g>
</g>
<defs>
<filter id="filter0_d_32_320" x="90.9839" y="674.587" width="341.901" height="104.939" filterUnits="userSpaceOnUse" color-interpolation-filters="sRGB">
<feFlood flood-opacity="0" result="BackgroundImageFix"/>
<feColorMatrix in="SourceAlpha" type="matrix" values="0 0 0 0 0 0 0 0 0 0 0 0 0 0 0 0 0 0 127 0" result="hardAlpha"/>
<feOffset dy="4"/>
<feGaussianBlur stdDeviation="2"/>
<feComposite in2="hardAlpha" operator="out"/>
<feColorMatrix type="matrix" values="0 0 0 0 0 0 0 0 0 0 0 0 0 0 0 0 0 0 0.25 0"/>
<feBlend mode="normal" in2="BackgroundImageFix" result="effect1_dropShadow_32_320"/>
<feBlend mode="normal" in="SourceGraphic" in2="effect1_dropShadow_32_320" result="shape"/>
</filter>
<filter id="filter1_d_32_320" x="213.09" y="283.75" width="439.14" height="80.2534" filterUnits="userSpaceOnUse" color-interpolation-filters="sRGB">
<feFlood flood-opacity="0" result="BackgroundImageFix"/>
<feColorMatrix in="SourceAlpha" type="matrix" values="0 0 0 0 0 0 0 0 0 0 0 0 0 0 0 0 0 0 127 0" result="hardAlpha"/>
<feOffset dy="4"/>
<feGaussianBlur stdDeviation="2"/>
<feComposite in2="hardAlpha" operator="out"/>
<feColorMatrix type="matrix" values="0 0 0 0 0 0 0 0 0 0 0 0 0 0 0 0 0 0 0.25 0"/>
<feBlend mode="normal" in2="BackgroundImageFix" result="effect1_dropShadow_32_320"/>
<feBlend mode="normal" in="SourceGraphic" in2="effect1_dropShadow_32_320" result="shape"/>
</filter>
<filter id="filter2_d_32_320" x="495.088" y="744" width="127.277" height="23.1953" filterUnits="userSpaceOnUse" color-interpolation-filters="sRGB">
<feFlood flood-opacity="0" result="BackgroundImageFix"/>
<feColorMatrix in="SourceAlpha" type="matrix" values="0 0 0 0 0 0 0 0 0 0 0 0 0 0 0 0 0 0 127 0" result="hardAlpha"/>
<feOffset dy="4"/>
<feGaussianBlur stdDeviation="2"/>
<feComposite in2="hardAlpha" operator="out"/>
<feColorMatrix type="matrix" values="0 0 0 0 0 0 0 0 0 0 0 0 0 0 0 0 0 0 0.25 0"/>
<feBlend mode="normal" in2="BackgroundImageFix" result="effect1_dropShadow_32_320"/>
<feBlend mode="normal" in="SourceGraphic" in2="effect1_dropShadow_32_320" result="shape"/>
</filter>
<filter id="filter3_d_32_320" x="5.5" y="-0.500488" width="882" height="1053" filterUnits="userSpaceOnUse" color-interpolation-filters="sRGB">
<feFlood flood-opacity="0" result="BackgroundImageFix"/>
<feColorMatrix in="SourceAlpha" type="matrix" values="0 0 0 0 0 0 0 0 0 0 0 0 0 0 0 0 0 0 127 0" result="hardAlpha"/>
<feOffset dy="4"/>
<feGaussianBlur stdDeviation="2"/>
<feComposite in2="hardAlpha" operator="out"/>
<feColorMatrix type="matrix" values="0 0 0 0 0 0 0 0 0 0 0 0 0 0 0 0 0 0 0.25 0"/>
<feBlend mode="normal" in2="BackgroundImageFix" result="effect1_dropShadow_32_320"/>
<feBlend mode="normal" in="SourceGraphic" in2="effect1_dropShadow_32_320" result="shape"/>
</filter>
<clipPath id="clip0_32_320">
<rect width="1002" height="1076" fill="white"/>
</clipPath>
</defs>
</svg>
